<svg id="Layer_1" data-name="Layer 1" xmlns="http://www.w3.org/2000/svg" viewBox="0 0 1000 1300"><defs><style>.cls-1{fill:#fff;}.cls-2{fill:#e5e7ef;}</style></defs><rect class="cls-1" width="1000" height="1300" rx="40"/><rect class="cls-2" x="110" y="110" width="780" height="780" rx="40"/><path d="M960,0H40A40,40,0,0,0,0,40V960a40,40,0,0,0,40,40H960a40,40,0,0,0,40-40V40A40,40,0,0,0,960,0Zm0,960H40V40H960Z"/><polygon points="139.81 1150 139.81 1171 139.81 1192 158 1181.5 176.19 1171 158 1160.5 139.81 1150"/><path d="M505.3,1178.81a46.46,46.46,0,0,0-4.95,1.27,15.66,15.66,0,0,0-3.55,1.75,7.43,7.43,0,0,0-2.22,2.3,5.84,5.84,0,0,0-.78,3,6.26,6.26,0,0,0,1,3.53,6.82,6.82,0,0,0,2.93,2.42,11.22,11.22,0,0,0,4.77.9,15.47,15.47,0,0,0,7-1.45,13.9,13.9,0,0,0,4.63-3.55,12.38,12.38,0,0,0,2.32-4,15.66,15.66,0,0,0,1.08-5.27c.05-1.19.08-2.22.1-3.14l-5.63.91Q508.1,1178.24,505.3,1178.81Z"/><path d="M628.65,1157.18q-7.41,0-11,4.58a16.86,16.86,0,0,0-3.13,7.62h26.54a17.07,17.07,0,0,0-2.81-8.15C636.21,1158.53,633,1157.18,628.65,1157.18Z"/><path d="M834.5,1157.18q-7.41,0-11,4.58a16.87,16.87,0,0,0-3.14,7.62H846.9a17,17,0,0,0-2.8-8.15Q841,1157.18,834.5,1157.18Z"/><path d="M683.8,1178.81a46.46,46.46,0,0,0-4.95,1.27,15.66,15.66,0,0,0-3.55,1.75,7.59,7.59,0,0,0-2.23,2.3,5.93,5.93,0,0,0-.77,3,6.26,6.26,0,0,0,1,3.53,6.79,6.79,0,0,0,2.92,2.42,11.3,11.3,0,0,0,4.78.9,15.5,15.5,0,0,0,7-1.45,13.86,13.86,0,0,0,4.62-3.55,12.43,12.43,0,0,0,2.33-4,15.42,15.42,0,0,0,1.07-5.27c.05-1.19.09-2.22.11-3.14l-5.63.91C687.9,1178,685.66,1178.43,683.8,1178.81Z"/><path d="M960,1040H40a40,40,0,0,0-40,40v180a40,40,0,0,0,40,40H960a40,40,0,0,0,40-40V1080A40,40,0,0,0,960,1040ZM216,1201.86a12,12,0,0,1-12,12H108a12,12,0,0,1-12-12v-61.72a12,12,0,0,1,12-12h96a12,12,0,0,1,12,12Zm80.66,18.27H284.61v-54h12.05Zm0-61H284.61v-11h12.05Zm65.49-17.75H327.7v17.75h28.45v11.3H327.7v20.35h34.45v11.3h-46.5v-72h46.5ZM411.38,1199q-5.92,4.65-16.38,4.65-10,0-16.25-4.5a18.67,18.67,0,0,1-7.6-12.65l12.3-1.9a10.43,10.43,0,0,0,4.2,6.3,13.81,13.81,0,0,0,8.2,2.3,11.31,11.31,0,0,0,6.73-1.72,5.54,5.54,0,0,0,2.37-4.73,4.72,4.72,0,0,0-.87-3,8.64,8.64,0,0,0-3.83-2.18q-2.94-1-9.05-2.65a54.54,54.54,0,0,1-10.8-3.87,14.19,14.19,0,0,1-5.75-4.93,13,13,0,0,1-1.75-6.9,14.92,14.92,0,0,1,2.65-8.8,17,17,0,0,1,7.4-5.77,28.42,28.42,0,0,1,11.2-2,29.94,29.94,0,0,1,11.18,1.95,19.38,19.38,0,0,1,7.87,5.55,16.59,16.59,0,0,1,3.7,8.45l-12.3,2.2a7.79,7.79,0,0,0-3.12-5.45,13,13,0,0,0-7.13-2.25,12.06,12.06,0,0,0-6.85,1.28,4.74,4.74,0,0,0-2.6,4.27,3.68,3.68,0,0,0,1.05,2.65,11.1,11.1,0,0,0,4.23,2.2q3.18,1.11,9.47,2.7A44.93,44.93,0,0,1,410,1174a14.18,14.18,0,0,1,5.6,5.07,13.94,13.94,0,0,1,1.72,7.15Q417.3,1194.34,411.38,1199Zm30.12-11.4q3.45,4.76,10.25,4.75a11.87,11.87,0,0,0,7.58-2.2,13.16,13.16,0,0,0,4.17-6.35l12.3,2.75a23.15,23.15,0,0,1-8.75,12.68q-6.24,4.43-15.3,4.42a26.21,26.21,0,0,1-14.25-3.72,24.28,24.28,0,0,1-9-10.18,33.67,33.67,0,0,1-3.18-14.6,32.91,32.91,0,0,1,3.28-14.72,24.55,24.55,0,0,1,9.17-10.1,26.42,26.42,0,0,1,14.15-3.68,25.84,25.84,0,0,1,15.58,4.63,21.27,21.27,0,0,1,8.32,12.62l-12,3.25a13.19,13.19,0,0,0-4.65-6.77,12,12,0,0,0-7.4-2.43,12.14,12.14,0,0,0-12.25,8.35,25.43,25.43,0,0,0-1.45,8.85Q438.05,1182.84,441.5,1187.58Zm88.1,14.55H519.05v-7.27a22.41,22.41,0,0,1-6.77,6.05,24.77,24.77,0,0,1-12.18,2.72,20.35,20.35,0,0,1-9.9-2.22,15.15,15.15,0,0,1-6.12-5.93,16.28,16.28,0,0,1-2.08-8.15,18,18,0,0,1,1.3-7,14.13,14.13,0,0,1,4-5.4,21.31,21.31,0,0,1,7-3.73,66.81,66.81,0,0,1,7.63-1.9c2.91-.56,6.08-1.09,9.5-1.57l6.35-.92a10.13,10.13,0,0,0-2.43-6.46c-1.7-1.76-4.57-2.65-8.6-2.65a15.64,15.64,0,0,0-7.05,1.7,9.46,9.46,0,0,0-4.75,5.85l-11-3.45a20.42,20.42,0,0,1,7.63-11q5.63-4.14,15.17-4.15a32,32,0,0,1,12.68,2.35,15.76,15.76,0,0,1,8.12,7.7,16.38,16.38,0,0,1,1.75,5.83,64.68,64.68,0,0,1,.3,6.47Zm62.55,0H580v-26a51.59,51.59,0,0,0-.35-5.65,20.51,20.51,0,0,0-1.62-6,11.64,11.64,0,0,0-3.8-4.73,11.36,11.36,0,0,0-6.83-1.85,14.32,14.32,0,0,0-4.55.75,10.28,10.28,0,0,0-4.07,2.58,12.86,12.86,0,0,0-2.93,5,25.31,25.31,0,0,0-1.1,8.12v27.75H542.5v-54h10.75v6a21.7,21.7,0,0,1,4.85-4.23,23.26,23.26,0,0,1,12.8-3.33,21.66,21.66,0,0,1,9.9,2,17.6,17.6,0,0,1,6.2,5.1,22.28,22.28,0,0,1,3.4,6.6,33.78,33.78,0,0,1,1.42,6.63,50.29,50.29,0,0,1,.33,5.07Zm61.15-23.65H614.23a17.53,17.53,0,0,0,3.42,9.35q3.6,4.5,10.5,4.5a14.35,14.35,0,0,0,7.67-2,13,13,0,0,0,5-5.73l11.9,3.6a24.16,24.16,0,0,1-9.58,11.35,26.35,26.35,0,0,1-14.27,4.05,28.42,28.42,0,0,1-14.4-3.55,25.12,25.12,0,0,1-9.68-9.85,29.59,29.59,0,0,1-3.47-14.5,32.78,32.78,0,0,1,3.4-15.37,24.86,24.86,0,0,1,9.45-10.13,26.84,26.84,0,0,1,14-3.6,25.05,25.05,0,0,1,14.27,3.93,23.29,23.29,0,0,1,8.73,11.07A37.85,37.85,0,0,1,653.3,1178.48Zm54.8,23.65H697.55v-7.27a22.44,22.44,0,0,1-6.78,6.05,24.76,24.76,0,0,1-12.17,2.72,20.35,20.35,0,0,1-9.9-2.22,15.24,15.24,0,0,1-6.13-5.93,16.38,16.38,0,0,1-2.07-8.15,18,18,0,0,1,1.3-7,14,14,0,0,1,4-5.4,21.31,21.31,0,0,1,7-3.73,66.6,66.6,0,0,1,7.62-1.9c2.92-.56,6.09-1.09,9.5-1.57l6.36-.92a10.13,10.13,0,0,0-2.43-6.46c-1.7-1.76-4.57-2.65-8.6-2.65a15.58,15.58,0,0,0-7,1.7,9.46,9.46,0,0,0-4.75,5.85l-11-3.45a20.4,20.4,0,0,1,7.62-11q5.63-4.14,15.18-4.15a32,32,0,0,1,12.67,2.35,15.78,15.78,0,0,1,8.13,7.7,16.38,16.38,0,0,1,1.75,5.83,64.68,64.68,0,0,1,.3,6.47Zm89.9,0H786v-32.8q0-5.55-2.75-8.67a9.45,9.45,0,0,0-7.45-3.13,10.24,10.24,0,0,0-5.2,1.33,9.32,9.32,0,0,0-3.65,3.9,13,13,0,0,0-1.35,6.12v33.25h-12v-32.65c0-3.76-.92-6.7-2.75-8.8a9.46,9.46,0,0,0-7.5-3.15,9.35,9.35,0,0,0-7.38,3.15,12,12,0,0,0-2.77,8.2v33.25H721v-54h10.65V1154a18.62,18.62,0,0,1,5.72-4.79,20.28,20.28,0,0,1,9.93-2.43,18.55,18.55,0,0,1,10.12,2.58,15.82,15.82,0,0,1,5.61,6,18.14,18.14,0,0,1,6.67-6.2,20.12,20.12,0,0,1,9.8-2.4q8.94,0,13.72,5.38t4.78,14.12Zm61.15-23.65H820.07a17.53,17.53,0,0,0,3.43,9.35q3.6,4.5,10.5,4.5a14.38,14.38,0,0,0,7.67-2,13,13,0,0,0,5-5.73l11.9,3.6a24.16,24.16,0,0,1-9.58,11.35,26.38,26.38,0,0,1-14.27,4.05,28.42,28.42,0,0,1-14.4-3.55,25.05,25.05,0,0,1-9.68-9.85,29.48,29.48,0,0,1-3.47-14.5,32.78,32.78,0,0,1,3.4-15.37,24.8,24.8,0,0,1,9.45-10.13,26.84,26.84,0,0,1,14-3.6,25.08,25.08,0,0,1,14.27,3.93,23.29,23.29,0,0,1,8.73,11.07A38,38,0,0,1,859.15,1178.48Zm28.24,23.65h-12v-11.05h12Zm0-18h-12v-54h12Z"/><path d="M414,244H244V414H414ZM374,374H284V284h90Z"/><rect x="309" y="309" width="40" height="40"/><path d="M756,244H586V414H756ZM716,374H626V284h90Z"/><rect x="651" y="309" width="40" height="40"/><path d="M414,586H244V756H414ZM374,716H284V626h90Z"/><rect x="309" y="651" width="40" height="40"/><rect x="284" y="441" width="40" height="40"/><polygon points="363 521 363 561 403 561 403 521 364 521 364 481 324 481 324 521 363 521"/><rect x="524" y="321" width="40" height="40"/><rect x="444" y="284" width="40" height="77"/><rect x="484" y="244" width="40" height="40"/><polygon points="524 361 484 361 484 401 444 401 444 441 524 441 524 361"/><polygon points="484 561 484 600 524 600 524 639 604 639 604 599 524 599 524 560 484 560 484 481 444 481 444 561 484 561"/><rect x="524" y="441" width="40" height="80"/><path d="M644,560H756V480H716V441H643v40H604v40h40Zm0-79h72v39H644Z"/><rect x="716" y="599" width="40" height="80"/><rect x="564" y="521" width="40" height="40"/><rect x="604" y="639" width="40" height="40"/><rect x="644" y="599" width="40" height="40"/><polygon points="684 756 684 719 716 719 716 679 644 679 644 756 684 756"/><rect x="444" y="600" width="40" height="76"/><polygon points="524 756 524 716 563 716 563 756 603 756 603 716 564 716 564 676 484 676 484 756 524 756"/><rect x="364" y="441" width="80" height="40"/><rect x="244" y="481" width="40" height="80"/></svg>