<?xml version="1.0" encoding="UTF-8"?>
<svg id="TEXTO" xmlns="http://www.w3.org/2000/svg" viewBox="0 0 1000 1300">
<g>
<g>
<path d="M925.5,75V924.84H75.67V75H925.5m5-40H70.67c-19.33,0-35,15.67-35,35V929.84c0,19.33,15.67,35,35,35H930.5c19.33,0,35-15.67,35-35V70c0-19.33-15.67-35-35-35h0Z"/>
<rect x="137.95" y="137.28" width="725.27" height="725.27" rx="40" ry="40" fill="#e5e7ef"/>
</g>
<g>
<rect x="34.5" y="1047.84" width="931" height="217.16" rx="35" ry="35"/>
<polygon points="500.58 980.97 473.92 1016.3 447.26 1051.64 500.58 1051.64 553.9 1051.64 527.24 1016.3 500.58 980.97 500.58 980.97"/>
</g>
</g>
<g>
<rect x="229.33" y="1156.99" width="10.84" height="48.6" fill="#fff"/>
<rect x="229.33" y="1140.79" width="10.84" height="9.94" fill="#fff"/>
<polygon points="257.27 1189.39 299.12 1189.39 299.12 1179.22 268.12 1179.22 268.12 1160.91 293.72 1160.91 293.72 1150.74 268.12 1150.74 268.12 1134.76 299.12 1134.76 299.12 1124.59 257.27 1124.59 257.27 1189.39" fill="#fff"/>
<path d="M342.16,1164.03c-2.33-1.27-5.42-2.41-9.29-3.4-3.78-.96-6.62-1.77-8.53-2.43-1.91-.66-3.17-1.32-3.8-1.98-.63-.66-.95-1.46-.95-2.38,0-1.65,.78-2.93,2.34-3.85,1.56-.92,3.61-1.3,6.17-1.15,2.67,.15,4.81,.83,6.41,2.03,1.6,1.2,2.54,2.83,2.81,4.9l11.07-1.98c-.42-2.91-1.53-5.45-3.33-7.61-1.8-2.16-4.16-3.83-7.09-5s-6.28-1.75-10.06-1.75-7.23,.61-10.08,1.82c-2.85,1.22-5.07,2.95-6.66,5.2s-2.38,4.89-2.38,7.92c0,2.43,.52,4.5,1.58,6.21,1.05,1.71,2.77,3.19,5.17,4.43s5.64,2.41,9.72,3.49c3.66,.96,6.38,1.75,8.15,2.38,1.77,.63,2.92,1.28,3.44,1.96,.52,.67,.79,1.57,.79,2.68,0,1.8-.71,3.22-2.14,4.25-1.43,1.04-3.44,1.55-6.05,1.55-2.97,0-5.43-.69-7.38-2.07-1.95-1.38-3.21-3.27-3.78-5.67l-11.07,1.71c.81,4.89,3.09,8.68,6.84,11.38,3.75,2.7,8.62,4.05,14.62,4.05s11.18-1.39,14.74-4.18c3.55-2.79,5.33-6.63,5.33-11.52,0-2.52-.52-4.66-1.55-6.43-1.03-1.77-2.71-3.29-5.04-4.57Z" fill="#fff"/>
<path d="M372.79,1151.61c1.83-1.33,4.16-2,6.98-2,2.49,0,4.71,.73,6.66,2.18,1.95,1.46,3.34,3.49,4.18,6.1l10.8-2.92c-1.17-4.8-3.67-8.59-7.49-11.36-3.83-2.78-8.5-4.16-14.02-4.16-4.92,0-9.17,1.1-12.74,3.31s-6.32,5.24-8.26,9.09c-1.94,3.86-2.92,8.27-2.95,13.25,.03,4.89,.98,9.27,2.86,13.14s4.58,6.92,8.12,9.16c3.54,2.24,7.81,3.35,12.83,3.35,5.43,0,10.02-1.33,13.77-3.98,3.75-2.65,6.38-6.46,7.88-11.41l-11.07-2.47c-.84,2.49-2.09,4.39-3.76,5.71s-3.94,1.98-6.82,1.98c-4.08,0-7.16-1.42-9.23-4.27-2.07-2.85-3.1-6.58-3.1-11.21,0-2.97,.43-5.62,1.3-7.96,.87-2.34,2.22-4.18,4.05-5.51Z" fill="#fff"/>
<path d="M447.98,1148.49c-1.59-3.21-4.03-5.52-7.31-6.93s-7.09-2.12-11.41-2.12c-5.73,0-10.28,1.25-13.66,3.74s-5.66,5.79-6.86,9.9l9.9,3.11c.81-2.49,2.23-4.25,4.28-5.26,2.04-1.02,4.15-1.53,6.34-1.53,3.63,0,6.21,.79,7.74,2.38,1.27,1.32,2,3.26,2.19,5.81-1.95,.29-3.87,.57-5.72,.83-3.08,.44-5.92,.91-8.55,1.42-2.62,.51-4.91,1.08-6.86,1.71-2.58,.87-4.68,1.99-6.3,3.35-1.62,1.37-2.82,2.99-3.6,4.86-.78,1.88-1.17,3.98-1.17,6.32,0,2.67,.62,5.12,1.87,7.33,1.24,2.22,3.08,4,5.51,5.33,2.43,1.33,5.4,2,8.91,2,4.38,0,8.03-.82,10.96-2.45,2.25-1.26,4.28-3.08,6.1-5.45v6.55h9.5v-29.83c0-2.1-.09-4.04-.27-5.83s-.71-3.53-1.58-5.24Zm-9.99,25.56c-.36,1.11-1.06,2.29-2.09,3.55s-2.42,2.33-4.16,3.2-3.84,1.3-6.3,1.3c-1.71,0-3.14-.27-4.3-.81-1.16-.54-2.03-1.27-2.63-2.18-.6-.92-.9-1.97-.9-3.17,0-1.05,.23-1.96,.7-2.75,.46-.78,1.13-1.47,2-2.07,.87-.6,1.94-1.12,3.2-1.58,1.29-.42,2.77-.8,4.46-1.15,1.68-.34,3.69-.71,6.03-1.1,1.49-.25,3.2-.52,5.07-.82-.02,.83-.05,1.76-.09,2.82-.08,1.79-.4,3.37-.97,4.75Z" fill="#fff"/>
<path d="M504.54,1151.73c-.66-2.1-1.68-4.08-3.06-5.94-1.38-1.86-3.24-3.39-5.58-4.59-2.34-1.2-5.31-1.8-8.91-1.8-4.56,0-8.4,1-11.52,2.99-1.68,1.07-3.13,2.35-4.37,3.81v-5.41h-9.67v48.6h10.98v-24.97c0-2.97,.33-5.41,.99-7.31s1.54-3.41,2.63-4.5c1.09-1.09,2.32-1.87,3.67-2.32,1.35-.45,2.71-.67,4.09-.67,2.58,0,4.63,.56,6.14,1.67,1.51,1.11,2.65,2.53,3.42,4.25,.76,1.73,1.25,3.52,1.46,5.38,.21,1.86,.32,3.56,.32,5.08v23.4h10.98v-27.13c0-1.17-.1-2.69-.29-4.57-.2-1.88-.62-3.86-1.28-5.96Z" fill="#fff"/>
<path d="M551.36,1142.97c-3.53-2.35-7.81-3.53-12.85-3.53-4.77,0-8.97,1.08-12.6,3.24s-6.46,5.2-8.5,9.11c-2.04,3.92-3.06,8.53-3.06,13.84,0,4.92,1.04,9.27,3.13,13.05,2.08,3.78,4.99,6.74,8.71,8.87s8.04,3.19,12.96,3.19,8.96-1.21,12.85-3.64,6.76-5.83,8.62-10.21l-10.71-3.24c-1.05,2.25-2.54,3.97-4.48,5.15-1.94,1.19-4.24,1.78-6.91,1.78-4.14,0-7.29-1.35-9.45-4.05-1.69-2.12-2.71-4.93-3.08-8.42h35.16c.42-5.82-.23-10.87-1.94-15.17-1.71-4.29-4.33-7.61-7.85-9.97Zm-12.4,5.96c3.93,0,6.81,1.21,8.64,3.65,1.3,1.72,2.13,4.18,2.53,7.33h-23.88c.5-2.81,1.43-5.1,2.82-6.86,2.16-2.74,5.46-4.12,9.9-4.12Z" fill="#fff"/>
<path d="M608.63,1148.49c-1.59-3.21-4.03-5.52-7.31-6.93s-7.09-2.12-11.41-2.12c-5.73,0-10.28,1.25-13.66,3.74s-5.66,5.79-6.86,9.9l9.9,3.11c.81-2.49,2.23-4.25,4.28-5.26,2.04-1.02,4.15-1.53,6.34-1.53,3.63,0,6.21,.79,7.74,2.38,1.27,1.32,2,3.26,2.19,5.81-1.95,.29-3.87,.57-5.72,.83-3.08,.44-5.92,.91-8.55,1.42-2.62,.51-4.91,1.08-6.86,1.71-2.58,.87-4.68,1.99-6.3,3.35-1.62,1.37-2.82,2.99-3.6,4.86-.78,1.88-1.17,3.98-1.17,6.32,0,2.67,.62,5.12,1.87,7.33,1.24,2.22,3.08,4,5.51,5.33,2.43,1.33,5.4,2,8.91,2,4.38,0,8.03-.82,10.96-2.45,2.25-1.26,4.28-3.08,6.1-5.45v6.55h9.5v-29.83c0-2.1-.09-4.04-.27-5.83s-.71-3.53-1.58-5.24Zm-9.99,25.56c-.36,1.11-1.06,2.29-2.09,3.55s-2.42,2.33-4.16,3.2-3.84,1.3-6.3,1.3c-1.71,0-3.14-.27-4.3-.81-1.16-.54-2.03-1.27-2.63-2.18-.6-.92-.9-1.97-.9-3.17,0-1.05,.23-1.96,.7-2.75,.46-.78,1.13-1.47,2-2.07,.87-.6,1.94-1.12,3.2-1.58,1.29-.42,2.77-.8,4.46-1.15,1.68-.34,3.69-.71,6.03-1.1,1.49-.25,3.2-.52,5.07-.82-.02,.83-.05,1.76-.09,2.82-.08,1.79-.4,3.37-.97,4.75Z" fill="#fff"/>
<path d="M674.73,1139.58c-3.24,0-6.18,.72-8.82,2.16-2.49,1.36-4.47,3.23-5.99,5.59-1.2-2.25-2.89-4.06-5.06-5.43-2.45-1.54-5.48-2.32-9.11-2.32-3.3,0-6.28,.73-8.93,2.18-2.04,1.12-3.76,2.56-5.15,4.32v-5.28h-9.58v48.6h10.93v-29.92c0-3.03,.83-5.49,2.5-7.38,1.67-1.89,3.88-2.83,6.64-2.83s5.1,.94,6.75,2.83c1.65,1.89,2.47,4.53,2.47,7.92v29.38h10.8v-29.92c0-2.13,.41-3.97,1.21-5.51,.81-1.54,1.91-2.71,3.29-3.51s2.94-1.19,4.68-1.19c2.82,0,5.05,.94,6.71,2.81,1.65,1.88,2.47,4.48,2.47,7.81v29.52h10.84v-32.26c0-5.25-1.43-9.49-4.3-12.71-2.87-3.22-6.98-4.84-12.35-4.84Z" fill="#fff"/>
<path d="M736.63,1142.97c-3.53-2.35-7.81-3.53-12.85-3.53-4.77,0-8.97,1.08-12.6,3.24s-6.46,5.2-8.5,9.11c-2.04,3.92-3.06,8.53-3.06,13.84,0,4.92,1.04,9.27,3.13,13.05,2.08,3.78,4.99,6.74,8.71,8.87s8.04,3.19,12.96,3.19,8.96-1.21,12.85-3.64,6.76-5.83,8.62-10.21l-10.71-3.24c-1.05,2.25-2.54,3.97-4.48,5.15-1.94,1.19-4.24,1.78-6.91,1.78-4.14,0-7.29-1.35-9.45-4.05-1.69-2.12-2.71-4.93-3.08-8.42h35.16c.42-5.82-.23-10.87-1.94-15.17-1.71-4.29-4.33-7.61-7.85-9.97Zm-12.4,5.96c3.93,0,6.81,1.21,8.64,3.65,1.3,1.72,2.13,4.18,2.53,7.33h-23.88c.5-2.81,1.43-5.1,2.82-6.86,2.16-2.74,5.46-4.12,9.9-4.12Z" fill="#fff"/>
<rect x="760.99" y="1179.45" width="10.84" height="9.95" fill="#fff"/>
<rect x="760.99" y="1124.59" width="10.84" height="48.6" fill="#fff"/>
</g>
<g>
<path d="M414.58,243.92H244.58v170h170V243.92Zm-40,130h-90v-90h90v90Z"/>
<rect x="309.58" y="308.92" width="40" height="40"/>
<path d="M756.58,243.92h-170v170h170V243.92Zm-40,130h-90v-90h90v90Z"/>
<rect x="651.58" y="308.92" width="40" height="40"/>
<path d="M414.58,585.92H244.58v170h170v-170Zm-40,130h-90v-90h90v90Z"/>
<rect x="309.58" y="650.92" width="40" height="40"/>
<rect x="284.58" y="440.92" width="40" height="40"/>
<polygon points="363.58 520.92 363.58 560.92 403.58 560.92 403.58 520.92 364.58 520.92 364.58 480.92 324.58 480.92 324.58 520.92 363.58 520.92"/>
<rect x="524.58" y="320.92" width="40" height="40"/>
<rect x="444.58" y="283.92" width="40" height="77"/>
<rect x="484.58" y="243.92" width="40" height="40"/>
<polygon points="524.58 360.92 484.58 360.92 484.58 400.92 444.58 400.92 444.58 440.92 524.58 440.92 524.58 360.92"/>
<polygon points="484.58 560.92 484.58 599.92 524.58 599.92 524.58 638.92 604.58 638.92 604.58 598.92 524.58 598.92 524.58 559.92 484.58 559.92 484.58 480.92 444.58 480.92 444.58 560.92 484.58 560.92"/>
<rect x="524.58" y="440.92" width="40" height="80"/>
<path d="M644.58,559.92h112v-80h-40v-39h-73v40h-39v40h40v39Zm0-79h72v39h-72v-39Z"/>
<rect x="716.58" y="598.92" width="40" height="80"/>
<rect x="564.58" y="520.92" width="40" height="40"/>
<rect x="604.58" y="638.92" width="40" height="40"/>
<rect x="644.58" y="598.92" width="40" height="40"/>
<polygon points="684.58 755.92 684.58 718.92 716.58 718.92 716.58 678.92 644.58 678.92 644.58 755.92 684.58 755.92"/>
<rect x="444.58" y="599.92" width="40" height="76"/>
<polygon points="524.58 755.92 524.58 715.92 563.58 715.92 563.58 755.92 603.58 755.92 603.58 715.92 564.58 715.92 564.58 675.92 484.58 675.92 484.58 755.92 524.58 755.92"/>
<rect x="364.58" y="440.92" width="80" height="40"/>
<rect x="244.58" y="480.92" width="40" height="80"/>
</g>
</svg>