<svg id="Layer_1" data-name="Layer 1" xmlns="http://www.w3.org/2000/svg" viewBox="0 0 1000 1300"><defs><style>.cls-1{fill:#fff;}.cls-2{fill:#e5e7ef;}</style></defs><rect class="cls-1" width="1000" height="1300" rx="40"/><rect class="cls-2" x="110" y="110" width="780" height="780" rx="40"/><path d="M960,0H40A40,40,0,0,0,0,40V1260a40,40,0,0,0,40,40H960a40,40,0,0,0,40-40V40A40,40,0,0,0,960,0Zm20,1260a20,20,0,0,1-20,20H40a20,20,0,0,1-20-20V40A20,20,0,0,1,40,20H960a20,20,0,0,1,20,20Z"/><path d="M414,244H244V414H414ZM374,374H284V284h90Z"/><rect x="309" y="309" width="40" height="40"/><path d="M756,244H586V414H756ZM716,374H626V284h90Z"/><rect x="651" y="309" width="40" height="40"/><path d="M414,586H244V756H414ZM374,716H284V626h90Z"/><rect x="309" y="651" width="40" height="40"/><rect x="284" y="441" width="40" height="40"/><polygon points="363 521 363 561 403 561 403 521 364 521 364 481 324 481 324 521 363 521"/><rect x="524" y="321" width="40" height="40"/><rect x="444" y="284" width="40" height="77"/><rect x="484" y="244" width="40" height="40"/><polygon points="524 361 484 361 484 401 444 401 444 441 524 441 524 361"/><polygon points="484 561 484 600 524 600 524 639 604 639 604 599 524 599 524 560 484 560 484 481 444 481 444 561 484 561"/><rect x="524" y="441" width="40" height="80"/><path d="M644,560H756V480H716V441H643v40H604v40h40Zm0-79h72v39H644Z"/><rect x="716" y="599" width="40" height="80"/><rect x="564" y="521" width="40" height="40"/><rect x="604" y="639" width="40" height="40"/><rect x="644" y="599" width="40" height="40"/><polygon points="684 756 684 719 716 719 716 679 644 679 644 756 684 756"/><rect x="444" y="600" width="40" height="76"/><polygon points="524 756 524 716 563 716 563 756 603 756 603 716 564 716 564 676 484 676 484 756 524 756"/><rect x="364" y="441" width="80" height="40"/><rect x="244" y="481" width="40" height="80"/><rect x="198.61" y="1120.13" width="12.05" height="54"/><rect x="198.61" y="1102.13" width="12.05" height="11.05"/><polygon points="229.65 1156.13 276.15 1156.13 276.15 1144.83 241.71 1144.83 241.71 1124.48 270.15 1124.48 270.15 1113.18 241.71 1113.18 241.71 1095.43 276.15 1095.43 276.15 1084.13 229.65 1084.13 229.65 1156.13"/><path d="M324,1128a45.11,45.11,0,0,0-10.33-3.78q-6.3-1.59-9.47-2.7a11.1,11.1,0,0,1-4.23-2.2,3.68,3.68,0,0,1-1.05-2.65,4.74,4.74,0,0,1,2.6-4.27,12.06,12.06,0,0,1,6.85-1.28,12.92,12.92,0,0,1,7.13,2.25,7.79,7.79,0,0,1,3.12,5.45l12.3-2.2a16.59,16.59,0,0,0-3.7-8.45,19.38,19.38,0,0,0-7.87-5.55,29.94,29.94,0,0,0-11.18-1.95,28.42,28.42,0,0,0-11.2,2,17,17,0,0,0-7.4,5.77,14.92,14.92,0,0,0-2.65,8.8,13,13,0,0,0,1.75,6.9,14.19,14.19,0,0,0,5.75,4.93,54.54,54.54,0,0,0,10.8,3.87q6.1,1.6,9.05,2.65a8.64,8.64,0,0,1,3.83,2.18,4.72,4.72,0,0,1,.87,3,5.54,5.54,0,0,1-2.37,4.73,11.31,11.31,0,0,1-6.73,1.72,13.81,13.81,0,0,1-8.2-2.3,10.43,10.43,0,0,1-4.2-6.3l-12.3,1.9a18.67,18.67,0,0,0,7.6,12.65q6.25,4.5,16.25,4.5,10.46,0,16.38-4.65t5.92-12.8a13.94,13.94,0,0,0-1.72-7.15A14.18,14.18,0,0,0,324,1128Z"/><path d="M358,1114.16a12.86,12.86,0,0,1,7.75-2.23,12,12,0,0,1,7.4,2.43,13.19,13.19,0,0,1,4.65,6.77l12-3.25a21.27,21.27,0,0,0-8.32-12.62,25.84,25.84,0,0,0-15.58-4.63,26.42,26.42,0,0,0-14.15,3.68,24.55,24.55,0,0,0-9.17,10.1,32.91,32.91,0,0,0-3.28,14.72,33.53,33.53,0,0,0,3.18,14.6,24.28,24.28,0,0,0,9,10.18,26.21,26.21,0,0,0,14.25,3.72q9.06,0,15.3-4.42a23.15,23.15,0,0,0,8.75-12.68l-12.3-2.75a13.16,13.16,0,0,1-4.17,6.35,11.87,11.87,0,0,1-7.58,2.2q-6.79,0-10.25-4.75t-3.45-12.45a25.43,25.43,0,0,1,1.45-8.85A13,13,0,0,1,358,1114.16Z"/><path d="M441.55,1110.68a15.72,15.72,0,0,0-8.12-7.7,32,32,0,0,0-12.68-2.35q-9.56,0-15.17,4.15a20.47,20.47,0,0,0-7.63,11l11,3.45a9.46,9.46,0,0,1,4.75-5.85,15.64,15.64,0,0,1,7.05-1.7c4,0,6.9.89,8.6,2.65a10.13,10.13,0,0,1,2.43,6.46l-6.35.92c-3.42.48-6.59,1-9.5,1.57a66.81,66.81,0,0,0-7.63,1.9,21.31,21.31,0,0,0-7,3.73,14.13,14.13,0,0,0-4,5.4,18,18,0,0,0-1.3,7,16.28,16.28,0,0,0,2.08,8.15,15.15,15.15,0,0,0,6.12,5.93,20.35,20.35,0,0,0,9.9,2.22,24.77,24.77,0,0,0,12.18-2.72,22.41,22.41,0,0,0,6.77-6.05v7.27H443.6V1123a64.68,64.68,0,0,0-.3-6.47A16.38,16.38,0,0,0,441.55,1110.68Zm-11.1,28.4a12.38,12.38,0,0,1-2.32,4,13.9,13.9,0,0,1-4.63,3.55,15.47,15.47,0,0,1-7,1.45,11.22,11.22,0,0,1-4.77-.9,6.82,6.82,0,0,1-2.93-2.42,6.26,6.26,0,0,1-1-3.53,5.84,5.84,0,0,1,.78-3,7.43,7.43,0,0,1,2.22-2.3,15.66,15.66,0,0,1,3.55-1.75,47.09,47.09,0,0,1,4.95-1.27q2.81-.57,6.7-1.23l5.63-.91c0,.92-.05,1.95-.1,3.14A15.66,15.66,0,0,1,430.45,1139.08Z"/><path d="M504.4,1114.28a22.28,22.28,0,0,0-3.4-6.6,17.6,17.6,0,0,0-6.2-5.1,21.66,21.66,0,0,0-9.9-2,23.26,23.26,0,0,0-12.8,3.33,21.7,21.7,0,0,0-4.85,4.23v-6H456.5v54h12.2v-27.75a25.31,25.31,0,0,1,1.1-8.12,13,13,0,0,1,2.92-5,10.38,10.38,0,0,1,4.08-2.58,14.32,14.32,0,0,1,4.55-.75,11.36,11.36,0,0,1,6.83,1.85,11.61,11.61,0,0,1,3.79,4.73,20.22,20.22,0,0,1,1.63,6,51.59,51.59,0,0,1,.35,5.65v26h12.2V1126a50.29,50.29,0,0,0-.33-5.07A33.78,33.78,0,0,0,504.4,1114.28Z"/><path d="M556.42,1104.56a25.05,25.05,0,0,0-14.27-3.93,26.84,26.84,0,0,0-14,3.6,24.86,24.86,0,0,0-9.45,10.13,32.78,32.78,0,0,0-3.4,15.37,29.59,29.59,0,0,0,3.47,14.5,25.12,25.12,0,0,0,9.68,9.85,28.42,28.42,0,0,0,14.4,3.55,26.35,26.35,0,0,0,14.27-4.05,24.16,24.16,0,0,0,9.58-11.35l-11.9-3.6a13,13,0,0,1-5,5.73,14.35,14.35,0,0,1-7.67,2q-6.9,0-10.5-4.5a17.53,17.53,0,0,1-3.42-9.35H567.3a37.85,37.85,0,0,0-2.15-16.85A23.29,23.29,0,0,0,556.42,1104.56Zm-13.77,6.62c4.37,0,7.56,1.35,9.6,4a17.07,17.07,0,0,1,2.81,8.15H528.52a16.86,16.86,0,0,1,3.13-7.62Q535.25,1111.19,542.65,1111.18Z"/><path d="M620.05,1110.68a15.78,15.78,0,0,0-8.13-7.7,32,32,0,0,0-12.67-2.35q-9.56,0-15.18,4.15a20.4,20.4,0,0,0-7.62,11l11,3.45a9.46,9.46,0,0,1,4.75-5.85,15.58,15.58,0,0,1,7-1.7c4,0,6.9.89,8.6,2.65a10.13,10.13,0,0,1,2.43,6.46l-6.36.92c-3.41.48-6.58,1-9.5,1.57a66.6,66.6,0,0,0-7.62,1.9,21.31,21.31,0,0,0-7,3.73,14,14,0,0,0-4,5.4,18,18,0,0,0-1.3,7,16.38,16.38,0,0,0,2.07,8.15,15.24,15.24,0,0,0,6.13,5.93,20.35,20.35,0,0,0,9.9,2.22,24.76,24.76,0,0,0,12.17-2.72,22.44,22.44,0,0,0,6.78-6.05v7.27H622.1V1123a64.68,64.68,0,0,0-.3-6.47A16.38,16.38,0,0,0,620.05,1110.68Zm-11.1,28.4a12.43,12.43,0,0,1-2.33,4,13.86,13.86,0,0,1-4.62,3.55,15.5,15.5,0,0,1-7,1.45,11.3,11.3,0,0,1-4.78-.9,6.79,6.79,0,0,1-2.92-2.42,6.26,6.26,0,0,1-1-3.53,5.93,5.93,0,0,1,.77-3,7.59,7.59,0,0,1,2.23-2.3,15.66,15.66,0,0,1,3.55-1.75,46.46,46.46,0,0,1,4.95-1.27c1.86-.38,4.1-.79,6.7-1.23l5.63-.91c0,.92-.06,1.95-.11,3.14A15.42,15.42,0,0,1,609,1139.08Z"/><path d="M693.5,1100.78a20.12,20.12,0,0,0-9.8,2.4,18.14,18.14,0,0,0-6.67,6.2,15.82,15.82,0,0,0-5.61-6,18.55,18.55,0,0,0-10.12-2.58,20.28,20.28,0,0,0-9.93,2.43,18.62,18.62,0,0,0-5.72,4.79v-5.87H635v54h12.15v-33.25a12,12,0,0,1,2.77-8.2,9.35,9.35,0,0,1,7.38-3.15,9.46,9.46,0,0,1,7.5,3.15c1.83,2.1,2.75,5,2.75,8.8v32.65h12v-33.25a13,13,0,0,1,1.35-6.12,9.32,9.32,0,0,1,3.65-3.9,10.24,10.24,0,0,1,5.2-1.33,9.45,9.45,0,0,1,7.45,3.13q2.74,3.12,2.75,8.67v32.8h12v-35.85q0-8.74-4.78-14.12T693.5,1100.78Z"/><path d="M762.27,1104.56a25.08,25.08,0,0,0-14.27-3.93,26.84,26.84,0,0,0-14,3.6,24.8,24.8,0,0,0-9.45,10.13,32.78,32.78,0,0,0-3.4,15.37,29.48,29.48,0,0,0,3.47,14.5,25.05,25.05,0,0,0,9.68,9.85,28.42,28.42,0,0,0,14.4,3.55,26.38,26.38,0,0,0,14.27-4.05,24.16,24.16,0,0,0,9.58-11.35l-11.9-3.6a13,13,0,0,1-5,5.73,14.38,14.38,0,0,1-7.67,2q-6.9,0-10.5-4.5a17.53,17.53,0,0,1-3.43-9.35h39.08a38,38,0,0,0-2.15-16.85A23.29,23.29,0,0,0,762.27,1104.56Zm-13.77,6.62q6.54,0,9.6,4a17,17,0,0,1,2.8,8.15H734.36a17,17,0,0,1,3.14-7.62Q741.1,1111.19,748.5,1111.18Z"/><rect x="789.35" y="1084.13" width="12.05" height="54"/><rect x="789.35" y="1145.08" width="12.05" height="11.05"/><rect x="21" y="970" width="958" height="20"/></svg>