<?xml version="1.0" encoding="UTF-8"?>
<svg id="TEXTO" xmlns="http://www.w3.org/2000/svg" viewBox="0 0 1000 1300">
<g>
<path d="M960,165.66h0v920H40V165.66H960m0-40H40C17.91,125.66,0,143.57,0,165.66v920c0,22.09,17.91,40,40,40H960c22.09,0,40-17.91,40-40V165.66c0-22.09-17.91-40-40-40h0Z"/>
<rect x="110" y="235.66" width="780" height="780" rx="40" ry="40" fill="#e5e7ef"/>
<path d="M960,1299.66H40c-22.09,0-40-17.91-40-40v-173H1000v173c0,22.09-17.91,40-40,40Z"/>
<g>
<path d="M357.55,66.01h286.9c37.84,0,68.55,30.72,68.55,68.55v48.87c0,7.3-5.93,13.23-13.23,13.23H302.23c-7.3,0-13.23-5.93-13.23-13.23v-48.87c0-37.84,30.72-68.55,68.55-68.55Z" fill="#585858"/>
<circle cx="501" cy="66.34" r="66" fill="#585858"/>
<circle cx="501" cy="66.34" r="26.23" fill="#fff"/>
</g>
</g>
<g>
<rect x="198.6" y="1191.81" width="12.05" height="54" fill="#fff"/>
<rect x="198.6" y="1173.81" width="12.05" height="11.05" fill="#fff"/>
<polygon points="229.65 1227.81 276.15 1227.81 276.15 1216.51 241.7 1216.51 241.7 1196.16 270.15 1196.16 270.15 1184.86 241.7 1184.86 241.7 1167.11 276.15 1167.11 276.15 1155.81 229.65 1155.81 229.65 1227.81" fill="#fff"/>
<path d="M323.98,1199.63c-2.58-1.42-6.03-2.68-10.33-3.78-4.2-1.07-7.36-1.97-9.47-2.7-2.12-.73-3.53-1.47-4.23-2.2-.7-.73-1.05-1.62-1.05-2.65,0-1.83,.87-3.26,2.6-4.27,1.73-1.02,4.02-1.44,6.85-1.27,2.97,.17,5.34,.92,7.12,2.25,1.78,1.33,2.83,3.15,3.12,5.45l12.3-2.2c-.47-3.23-1.7-6.05-3.7-8.45s-4.62-4.25-7.88-5.55c-3.25-1.3-6.97-1.95-11.17-1.95s-8.03,.67-11.2,2.02-5.63,3.27-7.4,5.77c-1.77,2.5-2.65,5.43-2.65,8.8,0,2.7,.58,5,1.75,6.9,1.17,1.9,3.08,3.54,5.75,4.92,2.67,1.38,6.27,2.68,10.8,3.88,4.07,1.07,7.08,1.95,9.05,2.65,1.97,.7,3.24,1.42,3.83,2.17s.88,1.74,.88,2.98c0,2-.79,3.57-2.38,4.73-1.58,1.15-3.83,1.72-6.72,1.72-3.3,0-6.03-.77-8.2-2.3-2.17-1.53-3.57-3.63-4.2-6.3l-12.3,1.9c.9,5.43,3.43,9.65,7.6,12.65s9.58,4.5,16.25,4.5,12.43-1.55,16.38-4.65c3.95-3.1,5.93-7.37,5.93-12.8,0-2.8-.58-5.18-1.73-7.15-1.15-1.97-3.02-3.66-5.6-5.07Z" fill="#fff"/>
<path d="M358,1185.83c2.03-1.48,4.62-2.23,7.75-2.23,2.77,0,5.23,.81,7.4,2.43,2.17,1.62,3.72,3.88,4.65,6.77l12-3.25c-1.3-5.33-4.08-9.54-8.33-12.62-4.25-3.08-9.44-4.62-15.58-4.62-5.47,0-10.18,1.23-14.15,3.67-3.97,2.45-7.03,5.82-9.17,10.1-2.15,4.28-3.24,9.19-3.28,14.73,.03,5.43,1.09,10.3,3.17,14.6,2.08,4.3,5.09,7.69,9.03,10.17,3.93,2.48,8.68,3.73,14.25,3.73,6.03,0,11.13-1.48,15.3-4.42,4.17-2.95,7.08-7.18,8.75-12.68l-12.3-2.75c-.93,2.77-2.33,4.88-4.17,6.35-1.85,1.47-4.38,2.2-7.58,2.2-4.53,0-7.95-1.58-10.25-4.75-2.3-3.17-3.45-7.32-3.45-12.45,0-3.3,.48-6.25,1.45-8.85,.97-2.6,2.47-4.64,4.5-6.12Z" fill="#fff"/>
<path d="M441.55,1182.36c-1.77-3.57-4.47-6.13-8.12-7.7-3.65-1.57-7.88-2.35-12.67-2.35-6.37,0-11.42,1.38-15.17,4.15-3.75,2.77-6.29,6.43-7.62,11l11,3.45c.9-2.77,2.48-4.72,4.75-5.85,2.27-1.13,4.62-1.7,7.05-1.7,4.03,0,6.9,.88,8.6,2.65,1.41,1.47,2.22,3.63,2.43,6.45-2.17,.32-4.3,.63-6.36,.92-3.42,.48-6.58,1.01-9.5,1.57-2.92,.57-5.46,1.2-7.62,1.9-2.87,.97-5.2,2.21-7,3.73-1.8,1.52-3.13,3.32-4,5.4-.87,2.08-1.3,4.43-1.3,7.03,0,2.97,.69,5.68,2.08,8.15,1.38,2.47,3.42,4.44,6.12,5.92s6,2.23,9.9,2.23c4.87,0,8.93-.91,12.18-2.73,2.5-1.4,4.76-3.42,6.77-6.05v7.28h10.55v-33.15c0-2.33-.1-4.49-.3-6.48-.2-1.98-.78-3.92-1.75-5.83Zm-11.1,28.4c-.4,1.23-1.17,2.55-2.33,3.95s-2.69,2.58-4.62,3.55c-1.93,.97-4.27,1.45-7,1.45-1.9,0-3.49-.3-4.78-.9s-2.26-1.41-2.92-2.42c-.67-1.02-1-2.19-1-3.53,0-1.17,.26-2.18,.78-3.05,.52-.87,1.26-1.63,2.22-2.3,.97-.67,2.15-1.25,3.55-1.75,1.43-.47,3.08-.89,4.95-1.28,1.87-.38,4.1-.79,6.7-1.22,1.66-.28,3.55-.58,5.63-.91-.02,.92-.05,1.95-.1,3.14-.08,1.98-.44,3.74-1.08,5.28Z" fill="#fff"/>
<path d="M504.4,1185.96c-.73-2.33-1.87-4.53-3.4-6.6-1.53-2.07-3.6-3.77-6.2-5.1-2.6-1.33-5.9-2-9.9-2-5.07,0-9.33,1.11-12.8,3.32-1.86,1.19-3.47,2.61-4.85,4.24v-6.01h-10.75v54h12.2v-27.75c0-3.3,.37-6.01,1.1-8.12,.73-2.12,1.71-3.78,2.92-5,1.22-1.22,2.58-2.08,4.08-2.58s3.02-.75,4.55-.75c2.87,0,5.14,.62,6.83,1.85,1.68,1.23,2.95,2.81,3.8,4.73,.85,1.92,1.39,3.91,1.62,5.98,.23,2.07,.35,3.95,.35,5.65v26h12.2v-30.15c0-1.3-.11-2.99-.33-5.08-.22-2.08-.69-4.29-1.42-6.62Z" fill="#fff"/>
<path d="M556.42,1176.23c-3.92-2.62-8.67-3.92-14.28-3.92-5.3,0-9.97,1.2-14,3.6s-7.18,5.77-9.45,10.12c-2.27,4.35-3.4,9.48-3.4,15.38,0,5.47,1.16,10.3,3.47,14.5,2.32,4.2,5.54,7.48,9.68,9.85,4.13,2.37,8.93,3.55,14.4,3.55s9.96-1.35,14.28-4.05c4.32-2.7,7.51-6.48,9.58-11.35l-11.9-3.6c-1.17,2.5-2.83,4.41-4.97,5.73-2.15,1.32-4.71,1.98-7.68,1.98-4.6,0-8.1-1.5-10.5-4.5-1.88-2.35-3.02-5.48-3.42-9.35h39.07c.47-6.47-.25-12.08-2.15-16.85-1.9-4.77-4.81-8.46-8.72-11.08Zm-13.78,6.62c4.37,0,7.57,1.35,9.6,4.05,1.44,1.91,2.37,4.64,2.81,8.15h-26.54c.55-3.12,1.59-5.67,3.13-7.62,2.4-3.05,6.07-4.58,11-4.58Z" fill="#fff"/>
<path d="M620.05,1182.36c-1.77-3.57-4.47-6.13-8.12-7.7-3.65-1.57-7.88-2.35-12.67-2.35-6.37,0-11.42,1.38-15.17,4.15-3.75,2.77-6.29,6.43-7.62,11l11,3.45c.9-2.77,2.48-4.72,4.75-5.85,2.27-1.13,4.62-1.7,7.05-1.7,4.03,0,6.9,.88,8.6,2.65,1.41,1.47,2.22,3.63,2.43,6.45-2.17,.32-4.3,.63-6.36,.92-3.42,.48-6.58,1.01-9.5,1.57-2.92,.57-5.46,1.2-7.62,1.9-2.87,.97-5.2,2.21-7,3.73-1.8,1.52-3.13,3.32-4,5.4-.87,2.08-1.3,4.43-1.3,7.03,0,2.97,.69,5.68,2.08,8.15,1.38,2.47,3.42,4.44,6.12,5.92s6,2.23,9.9,2.23c4.87,0,8.93-.91,12.18-2.73,2.5-1.4,4.76-3.42,6.77-6.05v7.28h10.55v-33.15c0-2.33-.1-4.49-.3-6.48-.2-1.98-.78-3.92-1.75-5.83Zm-11.1,28.4c-.4,1.23-1.17,2.55-2.33,3.95s-2.69,2.58-4.62,3.55c-1.93,.97-4.27,1.45-7,1.45-1.9,0-3.49-.3-4.78-.9s-2.26-1.41-2.92-2.42c-.67-1.02-1-2.19-1-3.53,0-1.17,.26-2.18,.78-3.05,.52-.87,1.26-1.63,2.22-2.3,.97-.67,2.15-1.25,3.55-1.75,1.43-.47,3.08-.89,4.95-1.28,1.87-.38,4.1-.79,6.7-1.22,1.66-.28,3.55-.58,5.63-.91-.02,.92-.05,1.95-.1,3.14-.08,1.98-.44,3.74-1.08,5.28Z" fill="#fff"/>
<path d="M693.5,1172.46c-3.6,0-6.87,.8-9.8,2.4-2.76,1.51-4.98,3.58-6.66,6.2-1.33-2.49-3.2-4.5-5.61-6.02-2.72-1.72-6.09-2.58-10.12-2.58-3.67,0-6.98,.81-9.92,2.43-2.27,1.24-4.18,2.84-5.73,4.79v-5.86h-10.65v54h12.15v-33.25c0-3.37,.92-6.1,2.78-8.2,1.85-2.1,4.31-3.15,7.38-3.15s5.67,1.05,7.5,3.15c1.83,2.1,2.75,5.03,2.75,8.8v32.65h12v-33.25c0-2.37,.45-4.41,1.35-6.12,.9-1.72,2.12-3.02,3.65-3.9,1.53-.88,3.27-1.33,5.2-1.33,3.13,0,5.62,1.04,7.45,3.12,1.83,2.08,2.75,4.98,2.75,8.68v32.8h12.05v-35.85c0-5.83-1.59-10.54-4.78-14.12-3.18-3.58-7.76-5.38-13.72-5.38Z" fill="#fff"/>
<path d="M762.27,1176.23c-3.92-2.62-8.67-3.92-14.28-3.92-5.3,0-9.97,1.2-14,3.6s-7.18,5.77-9.45,10.12c-2.27,4.35-3.4,9.48-3.4,15.38,0,5.47,1.16,10.3,3.47,14.5,2.32,4.2,5.54,7.48,9.68,9.85,4.13,2.37,8.93,3.55,14.4,3.55s9.96-1.35,14.28-4.05c4.32-2.7,7.51-6.48,9.58-11.35l-11.9-3.6c-1.17,2.5-2.83,4.41-4.97,5.73-2.15,1.32-4.71,1.98-7.68,1.98-4.6,0-8.1-1.5-10.5-4.5-1.88-2.35-3.02-5.48-3.42-9.35h39.07c.47-6.47-.25-12.08-2.15-16.85-1.9-4.77-4.81-8.46-8.72-11.08Zm-13.78,6.62c4.37,0,7.57,1.35,9.6,4.05,1.44,1.91,2.37,4.64,2.81,8.15h-26.54c.55-3.12,1.59-5.67,3.13-7.62,2.4-3.05,6.07-4.58,11-4.58Z" fill="#fff"/>
<rect x="789.34" y="1155.81" width="12.05" height="54" fill="#fff"/>
<rect x="789.34" y="1216.76" width="12.05" height="11.05" fill="#fff"/>
</g>
<g>
<path d="M414,373.73H244v170h170v-170Zm-40,130h-90v-90h90v90Z"/>
<rect x="309" y="438.73" width="40" height="40"/>
<path d="M756,373.73h-170v170h170v-170Zm-40,130h-90v-90h90v90Z"/>
<rect x="651" y="438.73" width="40" height="40"/>
<path d="M414,715.73H244v170h170v-170Zm-40,130h-90v-90h90v90Z"/>
<rect x="309" y="780.73" width="40" height="40"/>
<rect x="284" y="570.73" width="40" height="40"/>
<polygon points="363 650.73 363 690.73 403 690.73 403 650.73 364 650.73 364 610.73 324 610.73 324 650.73 363 650.73"/>
<rect x="524" y="450.73" width="40" height="40"/>
<rect x="444" y="413.73" width="40" height="77"/>
<rect x="484" y="373.73" width="40" height="40"/>
<polygon points="524 490.73 484 490.73 484 530.73 444 530.73 444 570.73 524 570.73 524 490.73"/>
<polygon points="484 690.73 484 729.73 524 729.73 524 768.73 604 768.73 604 728.73 524 728.73 524 689.73 484 689.73 484 610.73 444 610.73 444 690.73 484 690.73"/>
<rect x="524" y="570.73" width="40" height="80"/>
<path d="M644,689.73h112v-80h-40v-39h-73v40h-39v40h40v39Zm0-79h72v39h-72v-39Z"/>
<rect x="716" y="728.73" width="40" height="80"/>
<rect x="564" y="650.73" width="40" height="40"/>
<rect x="604" y="768.73" width="40" height="40"/>
<rect x="644" y="728.73" width="40" height="40"/>
<polygon points="684 885.73 684 848.73 716 848.73 716 808.73 644 808.73 644 885.73 684 885.73"/>
<rect x="444" y="729.73" width="40" height="76"/>
<polygon points="524 885.73 524 845.73 563 845.73 563 885.73 603 885.73 603 845.73 564 845.73 564 805.73 484 805.73 484 885.73 524 885.73"/>
<rect x="364" y="570.73" width="80" height="40"/>
<rect x="244" y="610.73" width="40" height="80"/>
</g>
</svg>