<?xml version="1.0" encoding="UTF-8"?>
<svg id="TEXTO" xmlns="http://www.w3.org/2000/svg" viewBox="0 0 1000 1300">
<path d="M59.85,179.25l-.35-38L906.05,.14c22.17-1.81,40.14,14.53,40.15,36.5l.32,142.61H59.85Z" fill="#585858"/>
<g>
<path d="M960,181.25v860.5H99.5V181.25H960m0-40H59.5v940.5H960c22.09,0,40-17.91,40-40V181.25c0-22.09-17.91-40-40-40h0Z"/>
<rect x="186.85" y="268.6" width="685.8" height="685.8" rx="40" ry="40" fill="#e5e7ef"/>
<path d="M960,1300H59.5v-260H1000v220c0,22.09-17.91,40-40,40Z"/>
</g>
<g>
<rect x="0" y="282.08" width="160.75" height="51.96" rx="24.89" ry="24.89" fill="#585858"/>
<rect x="0" y="557.12" width="160.75" height="51.96" rx="24.89" ry="24.89" fill="#585858"/>
<rect x="0" y="832.16" width="160.75" height="51.96" rx="24.89" ry="24.89" fill="#585858"/>
<rect x="0" y="1107.2" width="160.75" height="51.96" rx="24.89" ry="24.89" fill="#585858"/>
</g>
<g>
<rect x="243.43" y="1164.95" width="11.45" height="51.3" fill="#fff"/>
<rect x="243.43" y="1147.85" width="11.45" height="10.5" fill="#fff"/>
<polygon points="272.92 1199.15 317.1 1199.15 317.1 1188.41 284.37 1188.41 284.37 1169.08 311.4 1169.08 311.4 1158.34 284.37 1158.34 284.37 1141.48 317.1 1141.48 317.1 1130.75 272.92 1130.75 272.92 1199.15" fill="#fff"/>
<path d="M362.53,1172.38c-2.45-1.35-5.72-2.54-9.81-3.59-3.99-1.01-6.99-1.87-9-2.57-2.01-.7-3.35-1.39-4.01-2.09-.67-.7-1-1.54-1-2.52,0-1.74,.82-3.09,2.47-4.06,1.65-.97,3.82-1.37,6.51-1.21,2.82,.16,5.07,.87,6.77,2.14,1.69,1.27,2.68,2.99,2.97,5.18l11.69-2.09c-.44-3.07-1.62-5.75-3.52-8.03-1.9-2.28-4.39-4.04-7.48-5.27-3.09-1.24-6.63-1.85-10.62-1.85s-7.63,.64-10.64,1.92c-3.01,1.28-5.35,3.11-7.03,5.49-1.68,2.38-2.52,5.16-2.52,8.36,0,2.57,.55,4.75,1.66,6.55,1.11,1.81,2.93,3.37,5.46,4.68,2.53,1.31,5.95,2.54,10.26,3.68,3.86,1.01,6.73,1.85,8.6,2.52,1.87,.67,3.08,1.35,3.63,2.07,.55,.71,.83,1.66,.83,2.83,0,1.9-.75,3.4-2.26,4.49-1.5,1.09-3.63,1.64-6.39,1.64-3.14,0-5.73-.73-7.79-2.18-2.06-1.46-3.39-3.45-3.99-5.99l-11.69,1.81c.85,5.16,3.26,9.17,7.22,12.02,3.96,2.85,9.1,4.27,15.44,4.27s11.8-1.47,15.56-4.42c3.75-2.95,5.63-7,5.63-12.16,0-2.66-.55-4.92-1.64-6.79-1.09-1.87-2.87-3.47-5.32-4.82Z" fill="#fff"/>
<path d="M394.85,1159.27c1.93-1.41,4.39-2.11,7.36-2.11,2.63,0,4.97,.77,7.03,2.3,2.06,1.54,3.53,3.68,4.42,6.44l11.4-3.09c-1.23-5.07-3.87-9.06-7.91-11.99-4.04-2.93-8.97-4.39-14.8-4.39-5.19,0-9.67,1.16-13.44,3.49-3.77,2.33-6.67,5.53-8.72,9.59-2.04,4.07-3.08,8.73-3.11,13.99,.03,5.16,1.04,9.79,3.02,13.87,1.98,4.08,4.84,7.31,8.57,9.67,3.74,2.36,8.25,3.54,13.54,3.54,5.73,0,10.58-1.4,14.53-4.2,3.96-2.8,6.73-6.82,8.31-12.04l-11.69-2.61c-.89,2.63-2.21,4.64-3.97,6.03-1.76,1.39-4.16,2.09-7.2,2.09-4.31,0-7.55-1.5-9.74-4.51s-3.28-6.95-3.28-11.83c0-3.13,.46-5.94,1.38-8.41,.92-2.47,2.34-4.41,4.27-5.82Z" fill="#fff"/>
<path d="M474.22,1155.97c-1.68-3.39-4.25-5.83-7.72-7.31-3.47-1.49-7.48-2.23-12.04-2.23-6.05,0-10.85,1.31-14.42,3.94-3.56,2.63-5.98,6.11-7.24,10.45l10.45,3.28c.85-2.63,2.36-4.48,4.51-5.56,2.15-1.08,4.39-1.62,6.7-1.62,3.83,0,6.56,.84,8.17,2.52,1.34,1.4,2.11,3.44,2.31,6.13-2.06,.31-4.09,.6-6.04,.88-3.25,.46-6.25,.96-9.03,1.5s-5.19,1.14-7.24,1.8c-2.72,.92-4.94,2.1-6.65,3.54-1.71,1.44-2.98,3.15-3.8,5.13-.82,1.98-1.24,4.2-1.24,6.67,0,2.82,.66,5.4,1.97,7.74,1.31,2.34,3.25,4.22,5.82,5.63,2.56,1.41,5.7,2.11,9.41,2.11,4.62,0,8.48-.86,11.57-2.59,2.38-1.33,4.52-3.25,6.44-5.75v6.91h10.02v-31.49c0-2.22-.1-4.27-.29-6.15s-.74-3.73-1.66-5.53Zm-10.54,26.98c-.38,1.17-1.12,2.42-2.21,3.75-1.09,1.33-2.56,2.46-4.39,3.37-1.84,.92-4.05,1.38-6.65,1.38-1.8,0-3.32-.29-4.54-.85-1.22-.57-2.15-1.34-2.78-2.3-.63-.97-.95-2.08-.95-3.35,0-1.11,.25-2.07,.74-2.9,.49-.82,1.2-1.55,2.11-2.19,.92-.63,2.04-1.19,3.37-1.66,1.36-.44,2.93-.85,4.7-1.21,1.77-.36,3.9-.75,6.36-1.16,1.58-.26,3.37-.55,5.35-.87-.02,.87-.05,1.85-.1,2.98-.08,1.88-.42,3.56-1.02,5.01Z" fill="#fff"/>
<path d="M533.93,1159.39c-.7-2.22-1.77-4.31-3.23-6.27-1.46-1.96-3.42-3.58-5.89-4.84-2.47-1.27-5.6-1.9-9.4-1.9-4.81,0-8.87,1.05-12.16,3.16-1.77,1.13-3.3,2.48-4.61,4.02v-5.71h-10.21v51.3h11.59v-26.36c0-3.13,.35-5.71,1.04-7.72,.7-2.01,1.62-3.59,2.78-4.75,1.16-1.16,2.45-1.97,3.87-2.45,1.43-.48,2.87-.71,4.32-.71,2.72,0,4.88,.59,6.48,1.76,1.6,1.17,2.8,2.67,3.61,4.49,.81,1.82,1.32,3.71,1.54,5.68,.22,1.96,.33,3.75,.33,5.37v24.7h11.59v-28.64c0-1.24-.1-2.84-.31-4.82-.21-1.98-.66-4.08-1.35-6.29Z" fill="#fff"/>
<path d="M583.35,1150.15c-3.72-2.49-8.24-3.73-13.56-3.73-5.04,0-9.47,1.14-13.3,3.42-3.83,2.28-6.82,5.49-8.98,9.62-2.15,4.13-3.23,9-3.23,14.61,0,5.19,1.1,9.79,3.3,13.78,2.2,3.99,5.26,7.11,9.19,9.36,3.93,2.25,8.49,3.37,13.68,3.37s9.46-1.28,13.56-3.85c4.1-2.56,7.13-6.16,9.1-10.78l-11.3-3.42c-1.11,2.38-2.68,4.19-4.73,5.44-2.04,1.25-4.47,1.88-7.29,1.88-4.37,0-7.7-1.43-9.98-4.28-1.79-2.24-2.87-5.2-3.25-8.88h37.12c.44-6.14-.24-11.48-2.04-16.01-1.8-4.53-4.57-8.04-8.29-10.52Zm-13.09,6.29c4.15,0,7.19,1.28,9.12,3.85,1.37,1.82,2.25,4.41,2.67,7.74h-25.21c.52-2.96,1.51-5.38,2.98-7.24,2.28-2.9,5.76-4.35,10.45-4.35Z" fill="#fff"/>
<path d="M643.8,1155.97c-1.68-3.39-4.25-5.83-7.72-7.31-3.47-1.49-7.48-2.23-12.04-2.23-6.05,0-10.85,1.31-14.42,3.94-3.56,2.63-5.98,6.11-7.24,10.45l10.45,3.28c.85-2.63,2.36-4.48,4.51-5.56,2.15-1.08,4.39-1.62,6.7-1.62,3.83,0,6.55,.84,8.17,2.52,1.34,1.4,2.11,3.44,2.31,6.13-2.06,.31-4.09,.6-6.04,.88-3.25,.46-6.25,.96-9.03,1.5-2.77,.54-5.19,1.14-7.24,1.8-2.72,.92-4.94,2.1-6.65,3.54-1.71,1.44-2.98,3.15-3.8,5.13-.82,1.98-1.24,4.2-1.24,6.67,0,2.82,.66,5.4,1.97,7.74,1.31,2.34,3.25,4.22,5.82,5.63,2.57,1.41,5.7,2.11,9.41,2.11,4.62,0,8.48-.86,11.57-2.59,2.38-1.33,4.52-3.25,6.44-5.75v6.91h10.02v-31.49c0-2.22-.09-4.27-.28-6.15-.19-1.88-.75-3.73-1.66-5.53Zm-10.54,26.98c-.38,1.17-1.12,2.42-2.21,3.75-1.09,1.33-2.56,2.46-4.39,3.37-1.84,.92-4.05,1.38-6.65,1.38-1.81,0-3.32-.29-4.54-.85-1.22-.57-2.15-1.34-2.78-2.3-.63-.97-.95-2.08-.95-3.35,0-1.11,.25-2.07,.74-2.9s1.2-1.55,2.11-2.19c.92-.63,2.04-1.19,3.37-1.66,1.36-.44,2.93-.85,4.7-1.21,1.77-.36,3.9-.75,6.37-1.16,1.57-.26,3.37-.55,5.35-.87-.02,.87-.05,1.85-.1,2.98-.08,1.88-.42,3.56-1.02,5.01Z" fill="#fff"/>
<path d="M713.57,1146.56c-3.42,0-6.52,.76-9.31,2.28-2.63,1.43-4.72,3.41-6.32,5.9-1.27-2.37-3.05-4.29-5.34-5.74-2.58-1.63-5.79-2.45-9.62-2.45-3.48,0-6.63,.77-9.43,2.3-2.16,1.18-3.97,2.71-5.44,4.56v-5.58h-10.12v51.3h11.54v-31.59c0-3.2,.88-5.79,2.64-7.79,1.76-1.99,4.09-2.99,7.01-2.99s5.38,1,7.12,2.99c1.74,2,2.61,4.78,2.61,8.36v31.02h11.4v-31.59c0-2.25,.43-4.19,1.28-5.82,.85-1.63,2.01-2.87,3.47-3.71,1.46-.84,3.1-1.26,4.94-1.26,2.98,0,5.34,.99,7.08,2.97,1.74,1.98,2.61,4.73,2.61,8.24v31.16h11.45v-34.06c0-5.54-1.51-10.01-4.54-13.42-3.02-3.4-7.37-5.11-13.04-5.11Z" fill="#fff"/>
<path d="M778.91,1150.15c-3.72-2.49-8.24-3.73-13.56-3.73-5.04,0-9.47,1.14-13.3,3.42-3.83,2.28-6.83,5.49-8.98,9.62-2.15,4.13-3.23,9-3.23,14.61,0,5.19,1.1,9.79,3.3,13.78,2.2,3.99,5.26,7.11,9.19,9.36,3.93,2.25,8.49,3.37,13.68,3.37s9.46-1.28,13.56-3.85c4.1-2.56,7.13-6.16,9.1-10.78l-11.3-3.42c-1.11,2.38-2.68,4.19-4.73,5.44-2.04,1.25-4.47,1.88-7.29,1.88-4.37,0-7.7-1.43-9.98-4.28-1.79-2.24-2.86-5.2-3.25-8.88h37.12c.44-6.14-.24-11.48-2.04-16.01-1.8-4.53-4.57-8.04-8.29-10.52Zm-13.09,6.29c4.15,0,7.19,1.28,9.12,3.85,1.37,1.82,2.25,4.41,2.67,7.74h-25.21c.52-2.96,1.51-5.38,2.98-7.24,2.28-2.9,5.76-4.35,10.45-4.35Z" fill="#fff"/>
<rect x="804.63" y="1188.65" width="11.45" height="10.5" fill="#fff"/>
<rect x="804.63" y="1130.75" width="11.45" height="51.3" fill="#fff"/>
</g>
<g>
<path d="M443.75,355.5h-170v170h170v-170Zm-40,130h-90v-90h90v90Z"/>
<rect x="338.75" y="420.5" width="40" height="40"/>
<path d="M785.75,355.5h-170v170h170v-170Zm-40,130h-90v-90h90v90Z"/>
<rect x="680.75" y="420.5" width="40" height="40"/>
<path d="M443.75,697.5h-170v170h170v-170Zm-40,130h-90v-90h90v90Z"/>
<rect x="338.75" y="762.5" width="40" height="40"/>
<rect x="313.75" y="552.5" width="40" height="40"/>
<polygon points="392.75 632.5 392.75 672.5 432.75 672.5 432.75 632.5 393.75 632.5 393.75 592.5 353.75 592.5 353.75 632.5 392.75 632.5"/>
<rect x="553.75" y="432.5" width="40" height="40"/>
<rect x="473.75" y="395.5" width="40" height="77"/>
<rect x="513.75" y="355.5" width="40" height="40"/>
<polygon points="553.75 472.5 513.75 472.5 513.75 512.5 473.75 512.5 473.75 552.5 553.75 552.5 553.75 472.5"/>
<polygon points="513.75 672.5 513.75 711.5 553.75 711.5 553.75 750.5 633.75 750.5 633.75 710.5 553.75 710.5 553.75 671.5 513.75 671.5 513.75 592.5 473.75 592.5 473.75 672.5 513.75 672.5"/>
<rect x="553.75" y="552.5" width="40" height="80"/>
<path d="M673.75,671.5h112v-80h-40v-39h-73v40h-39v40h40v39Zm0-79h72v39h-72v-39Z"/>
<rect x="745.75" y="710.5" width="40" height="80"/>
<rect x="593.75" y="632.5" width="40" height="40"/>
<rect x="633.75" y="750.5" width="40" height="40"/>
<rect x="673.75" y="710.5" width="40" height="40"/>
<polygon points="713.75 867.5 713.75 830.5 745.75 830.5 745.75 790.5 673.75 790.5 673.75 867.5 713.75 867.5"/>
<rect x="473.75" y="711.5" width="40" height="76"/>
<polygon points="553.75 867.5 553.75 827.5 592.75 827.5 592.75 867.5 632.75 867.5 632.75 827.5 593.75 827.5 593.75 787.5 513.75 787.5 513.75 867.5 553.75 867.5"/>
<rect x="393.75" y="552.5" width="80" height="40"/>
<rect x="273.75" y="592.5" width="40" height="80"/>
</g>
</svg>