<?xml version="1.0" encoding="UTF-8"?>
<svg id="TEXTO" xmlns="http://www.w3.org/2000/svg" viewBox="0 0 1000 1300">
<g>
<rect x="164.97" y="178.79" width="670.06" height="670.06" rx="34.36" ry="34.36" fill="#e5e7ef"/>
<path d="M79.95,1042.01s-76.47-110.1-24.47-235.64c22.79-55.01,53.55-80,53.55-80l-30.13,7.15-5-17.88s59.71-7.55,74.08-5.35c-11.91,26.17-17.47,67.18-17.47,67.18l-16.96-1.73,8.93-36.67s-49.98,47.03-62.55,113.11c-21.17,111.37,25.33,186.45,25.33,186.45l-5.29,3.38Z"/>
</g>
<g>
<path d="M120.28,1112.99c-1.96,5.91-4.07,12.46-6.31,19.65-2.24,7.2-4.52,14.76-6.81,22.68-2.3,7.92-4.58,16.08-6.84,24.46-2.26,8.39-4.39,16.69-6.4,24.91,.43,.81,1.52,1.98,3.27,3.51,1.75,1.53,3.85,3.12,6.31,4.76,2.45,1.65,5.08,3.21,7.89,4.68,2.81,1.47,5.44,2.53,7.91,3.17,1.62-13.48,3.09-25.41,4.42-35.78,1.32-10.38,2.57-19.58,3.76-27.63,1.19-8.04,2.34-15.13,3.46-21.26,1.12-6.13,2.31-11.72,3.58-16.78-1.59-1.52-3.66-2.88-6.21-4.07-2.55-1.19-5.22-1.97-8.02-2.31Z"/>
<path d="M145.66,1083.85c-.73-.52-1.65-1.07-2.77-1.66-1.12-.59-2.36-1.19-3.73-1.81-1.37-.61-2.71-1.16-4.03-1.62-1.32-.47-2.54-.84-3.67-1.11-1.13-.27-2.01-.37-2.62-.28-.37,.05-.97,.89-1.8,2.51-.83,1.62-1.65,3.49-2.47,5.6-.82,2.12-1.5,4.26-2.03,6.43-.53,2.17-.72,3.81-.56,4.91,.05,.37,.88,.9,2.48,1.61,1.6,.71,3.4,1.39,5.4,2.04,2,.65,3.89,1.22,5.68,1.71,1.79,.49,2.93,.7,3.42,.63,.55-.08,1.27-.96,2.15-2.65,.88-1.69,1.76-3.58,2.65-5.68,.88-2.1,1.63-4.08,2.24-5.95,.61-1.87,.88-3.05,.8-3.54-.04-.24-.42-.63-1.15-1.15Z"/>
<path d="M242.75,1037.17c-1.27,3.37-2.8,6.62-4.6,9.75-1.8,3.13-3.73,5.82-5.78,8.05l17.8,11.69c2.2-2.5,4.3-5.51,6.3-9.01,1.99-3.5,3.68-7.18,5.07-11.04,1.38-3.85,2.38-7.76,3-11.73,.62-3.96,.68-7.69,.17-11.18-.29-2.02-1.32-4.2-3.1-6.54-1.77-2.34-3.88-4.6-6.32-6.78-2.44-2.18-5.02-4.14-7.73-5.87-2.72-1.73-5.2-3-7.44-3.8-2.7-.92-7.2-.93-13.5-.03-3.8,.55-7.62,1.72-11.49,3.53-3.87,1.81-7.57,4.07-11.11,6.8-3.54,2.73-6.83,5.84-9.86,9.34-3.03,3.5-5.57,7.24-7.62,11.22-2.05,3.98-3.55,8.13-4.49,12.46-.94,4.32-1.1,8.63-.49,12.91,.36,2.51,.93,4.74,1.71,6.69,.78,1.95,1.7,3.68,2.76,5.18,1.06,1.5,2.22,2.82,3.47,3.95,1.26,1.13,2.51,2.17,3.78,3.11-5.65,3.75-10.84,7.95-15.58,12.6-4.74,4.65-8.73,9.66-11.99,15.03-3.26,5.37-5.61,11.07-7.06,17.09-1.44,6.02-1.71,12.24-.78,18.67l.32,2.2c.34,1.95,1.17,3.99,2.47,6.11,1.31,2.12,2.93,4.2,4.88,6.23,1.95,2.03,4.16,3.95,6.64,5.75s5.12,3.33,7.92,4.58c2.8,1.25,5.7,2.16,8.69,2.73,2.99,.57,5.92,.65,8.8,.23,3.31-.48,6.84-1.77,10.6-3.87,3.76-2.1,7.5-4.64,11.23-7.61,3.73-2.97,7.35-6.23,10.88-9.77,3.52-3.54,6.74-6.98,9.67-10.34,2.92-3.36,5.41-6.46,7.47-9.32,2.06-2.86,3.5-5.06,4.34-6.62-2.6-1.56-5.41-3.3-8.44-5.21-3.03-1.91-6.58-4.07-10.68-6.48-1.15,1.98-2.74,4.42-4.76,7.34-2.02,2.91-4.34,6.01-6.96,9.3-2.62,3.28-5.46,6.58-8.51,9.89-3.05,3.31-6.13,6.35-9.23,9.11-3.1,2.76-6.14,5.07-9.12,6.94-2.98,1.87-5.76,2.98-8.33,3.35-1.96,.28-3.5-.23-4.63-1.54s-1.82-2.91-2.1-4.81c-.77-5.39-.28-11.19,1.48-17.41,1.76-6.22,4.57-12.42,8.43-18.6,3.86-6.18,8.68-12.1,14.45-17.78,5.78-5.67,12.29-10.69,19.54-15.04-2.79-1.16-5.28-2.3-7.47-3.42-2.19-1.12-4.11-2.42-5.76-3.9-1.65-1.48-3-3.25-4.05-5.32-1.05-2.07-1.79-4.6-2.22-7.6-.5-3.49-.34-7.04,.48-10.66,.82-3.62,2.08-7.14,3.78-10.57,1.69-3.43,3.74-6.68,6.14-9.74,2.4-3.06,4.93-5.77,7.59-8.12,2.66-2.35,5.35-4.28,8.07-5.8,2.72-1.52,5.27-2.45,7.66-2.79,2.81-.41,4.87,.1,6.17,1.5,1.29,1.41,2.11,3.24,2.43,5.51,.41,2.82,.32,5.92-.25,9.32-.58,3.4-1.5,6.78-2.76,10.14Z"/>
<path d="M826.65,1041.58c-2.67,3.2-5.5,6.1-8.49,8.72-3,2.62-6.19,4.86-9.58,6.72-3.39,1.86-7.1,3.08-11.14,3.66-2.27,.33-3.86,.21-4.78-.34-.92-.55-1.52-1.78-1.79-3.68-.2-1.41-.32-2.86-.34-4.36,5.04-3.16,9.63-6.24,13.76-9.24,4.13-3,7.62-5.86,10.48-8.58,2.86-2.72,5-5.3,6.43-7.72,1.43-2.42,2-4.68,1.7-6.76-.18-1.29-.88-2.73-2.08-4.34-1.2-1.61-2.68-3.1-4.44-4.47-1.76-1.37-3.65-2.47-5.68-3.31-2.03-.83-3.99-1.11-5.89-.84-2.63,.38-5.45,1.22-8.45,2.53-3,1.31-5.95,3.04-8.86,5.21-2.91,2.17-5.63,4.75-8.17,7.74s-4.7,6.33-6.48,10.02c-1.78,3.69-3.06,7.74-3.83,12.13-.21,1.21-.36,2.44-.46,3.69-.01,.01-.02,.02-.03,.04-1.53,1.75-3.13,3.53-4.81,5.33-1.68,1.8-3.3,3.47-4.86,5.01-1.56,1.54-2.96,2.8-4.19,3.79-1.23,.99-2.19,1.53-2.86,1.63-.37,.05-.58-.1-.63-.47-.1-.67-.04-1.78,.18-3.31,.22-1.53,.52-3.32,.91-5.38,.39-2.06,.85-4.26,1.39-6.62,.54-2.36,1.07-4.71,1.61-7.07,.54-2.36,1.04-4.63,1.5-6.82,.47-2.19,.83-4.09,1.1-5.69,.06-.45,.1-.81,.12-1.1,.02-.28,.02-.52,0-.7-.13-.92-.88-1.9-2.25-2.96-1.37-1.05-2.95-2.04-4.74-2.97-1.79-.93-3.54-1.68-5.24-2.25-1.71-.57-2.96-.79-3.75-.68-.55,.08-1.28,.44-2.19,1.06-.91,.63-2.12,1.84-3.65,3.62-1.52,1.78-3.46,4.29-5.8,7.54-2.35,3.24-5.23,7.52-8.65,12.82,.37-2.18,.77-4.31,1.19-6.4,.42-2.09,.85-4.17,1.31-6.23,.23-.97,.07-1.67-.49-2.09-.64-.53-1.7-1.18-3.18-1.93-1.48-.75-3.04-1.47-4.67-2.14-1.63-.67-3.14-1.22-4.55-1.64-1.41-.42-2.38-.59-2.93-.52-.87,.44-1.82,1.04-2.83,1.81-1.01,.77-2.25,2.04-3.72,3.81-1.46,1.77-3.27,4.22-5.41,7.34-2.14,3.12-4.82,7.25-8.01,12.4,.37-2.18,.78-4.33,1.23-6.46s.9-4.19,1.36-6.19c-2.98-2.01-6.17-3.67-9.58-5-3.41-1.32-6.49-2.41-9.23-3.26-1.08,3.78-2.05,7.69-2.91,11.71-.86,4.03-1.6,7.96-2.24,11.8-.52,3.17-.97,6.2-1.33,9.11-1.11,1.31-2.33,2.72-3.68,4.26-1.5,1.72-3.08,3.47-4.72,5.27-1.65,1.8-3.21,3.43-4.69,4.89-1.48,1.46-2.8,2.68-3.97,3.66-1.17,.98-2.03,1.51-2.58,1.59-.37,.05-.58-.1-.63-.47-.1-.67-.19-1.64-.28-2.91-.09-1.27-.06-2.82,.08-4.65,.14-1.83,.43-3.98,.85-6.45,.43-2.47,1.14-5.24,2.13-8.32-.1-.67-.5-1.6-1.2-2.78-.7-1.18-1.51-2.39-2.44-3.63-.93-1.24-1.9-2.37-2.92-3.38-1.02-1.01-1.9-1.71-2.65-2.1-.13-.04-.22-.03-.28,.04-.05,.07-.07,.14-.07,.2-.88,2.13-2.01,4.26-3.39,6.39-1.38,2.14-2.73,4.05-4.05,5.74-1.52,2.03-3.12,3.95-4.8,5.75-1.89,2.08-3.71,4.08-5.46,5.99-1.76,1.91-3.38,3.58-4.86,5.01-1.48,1.43-2.83,2.59-4.04,3.49-1.22,.89-2.25,1.4-3.11,1.52-.86,.12-1.36-.33-1.51-1.38-.2-1.41,.32-3.84,1.57-7.3,1.25-3.46,3.79-7.72,7.63-12.77,1.63-2.11,3.42-4.27,5.35-6.49,1.67-1.86,3.6-3.88,5.79-6.03,2.19-2.16,4.56-4.17,7.1-6.04l.16-.21c.05-.07,.04-.16-.04-.28-.3-.33-.87-.73-1.72-1.21-.85-.47-1.82-.92-2.92-1.36-1.09-.44-2.18-.84-3.27-1.22-1.08-.37-2.01-.63-2.78-.77-.2-.1-.34-.11-.43-.03-.08,.07-.19,.12-.31,.14-3.17,1.46-6.13,3.23-8.89,5.31-2.76,2.08-5.19,4.09-7.29,6.02-2.48,2.29-4.76,4.68-6.84,7.17-4.05,4.89-7.12,9.54-9.24,13.94-.24,.5-.45,.97-.67,1.46-2.48,3.1-4.99,6.18-7.54,9.23-2.67,3.2-5.5,6.1-8.49,8.72-3,2.62-6.19,4.86-9.58,6.72-3.39,1.86-7.1,3.08-11.14,3.66-2.27,.33-3.86,.21-4.78-.34-.92-.55-1.52-1.78-1.79-3.68-.2-1.41-.32-2.86-.34-4.36,5.04-3.16,9.63-6.24,13.76-9.24,4.13-3,7.62-5.86,10.48-8.58,2.86-2.72,5-5.3,6.43-7.72,1.43-2.42,2-4.68,1.7-6.76-.18-1.29-.88-2.73-2.08-4.34-1.2-1.61-2.68-3.1-4.44-4.47-1.76-1.37-3.65-2.47-5.68-3.31-2.03-.83-3.99-1.11-5.88-.84-2.63,.38-5.45,1.22-8.45,2.53-3,1.31-5.95,3.04-8.86,5.21-2.91,2.17-5.63,4.75-8.17,7.74-2.54,2.99-4.7,6.33-6.48,10.02-1.78,3.69-3.06,7.74-3.83,12.13-.21,1.21-.36,2.44-.46,3.69-.01,.01-.02,.02-.03,.04-1.53,1.75-3.13,3.53-4.81,5.33-1.68,1.8-3.3,3.47-4.86,5.01-1.56,1.54-2.96,2.8-4.19,3.79-1.23,.99-2.19,1.53-2.86,1.63-.37,.05-.58-.1-.63-.47-.1-.67-.04-1.78,.18-3.31,.22-1.53,.52-3.32,.91-5.38,.39-2.06,.85-4.26,1.39-6.62,.54-2.36,1.07-4.71,1.61-7.07,.54-2.36,1.04-4.63,1.5-6.82,.47-2.19,.83-4.09,1.1-5.69,.06-.45,.1-.81,.12-1.1,.02-.28,.02-.52,0-.7-.13-.92-.88-1.9-2.25-2.96-1.37-1.05-2.95-2.04-4.74-2.97-1.79-.93-3.54-1.68-5.24-2.25-1.71-.57-2.96-.79-3.75-.68-.67,.1-1.57,.52-2.68,1.27-1.11,.75-2.51,2.07-4.21,3.93-1.7,1.87-3.74,4.4-6.13,7.58-2.38,3.19-5.19,7.26-8.41,12.22,.43-2.25,.86-4.44,1.31-6.56,.44-2.13,.89-4.22,1.35-6.29-3.04-2-6.26-3.66-9.67-4.98-3.41-1.32-6.49-2.41-9.23-3.26-1.08,3.78-2.04,7.68-2.86,11.71-.83,4.02-1.56,7.96-2.19,11.8-.44,2.65-.83,5.2-1.17,7.67-.31,.36-.63,.75-.98,1.16-1.2,1.42-2.55,2.99-4.06,4.71-1.5,1.72-3.08,3.47-4.72,5.27-1.65,1.8-3.21,3.43-4.68,4.89-1.48,1.46-2.8,2.68-3.97,3.66-1.17,.98-2.03,1.51-2.58,1.59-.37,.05-.58-.1-.63-.47-.1-.67-.19-1.64-.28-2.91-.09-1.27-.06-2.82,.08-4.65,.14-1.83,.43-3.98,.85-6.45,.43-2.47,1.14-5.24,2.13-8.32-.1-.67-.5-1.6-1.2-2.78-.7-1.18-1.51-2.39-2.44-3.63-.93-1.24-1.9-2.37-2.92-3.38-1.02-1.01-1.9-1.71-2.65-2.1-.13-.04-.22-.03-.28,.04-.05,.07-.07,.14-.07,.2-.88,2.13-2.01,4.26-3.39,6.39-1.38,2.14-2.73,4.05-4.05,5.74-1.52,2.03-3.12,3.95-4.8,5.75-1.89,2.08-3.71,4.08-5.46,5.99-1.76,1.91-3.38,3.58-4.86,5.01-1.48,1.43-2.83,2.59-4.04,3.49-1.22,.89-2.25,1.4-3.11,1.52-.86,.12-1.36-.33-1.51-1.38-.2-1.41,.32-3.84,1.57-7.3,1.25-3.46,3.79-7.72,7.63-12.77,1.63-2.11,3.42-4.27,5.35-6.49,1.67-1.86,3.6-3.88,5.79-6.03,2.19-2.16,4.55-4.17,7.1-6.04l.16-.21c.05-.07,.04-.16-.04-.28-.3-.33-.87-.73-1.72-1.21-.85-.47-1.82-.92-2.92-1.36-1.09-.44-2.18-.84-3.27-1.22-1.08-.37-2.01-.63-2.78-.77-.2-.1-.34-.11-.43-.03-.08,.07-.19,.12-.31,.14-3.17,1.46-6.13,3.23-8.89,5.31-2.76,2.08-5.19,4.09-7.29,6.02-2.48,2.29-4.76,4.68-6.84,7.17-4.05,4.89-7.12,9.54-9.24,13.94-.25,.52-.46,1.01-.7,1.52-2.37,3.01-4.91,6.04-7.62,9.1-2.8,3.15-5.8,6.07-9,8.75-3.21,2.68-6.63,4.98-10.25,6.91-3.63,1.93-7.5,3.19-11.6,3.78-1.65,.24-2.92,.15-3.79-.25-.87-.4-1.4-1.28-1.6-2.63-.33-2.26-.38-4.82-.17-7.66,.21-2.84,.63-5.71,1.25-8.61,.61-2.9,1.41-5.75,2.38-8.54,.97-2.79,2.05-5.31,3.23-7.54,1.18-2.23,2.42-4.06,3.71-5.5,1.29-1.44,2.61-2.25,3.96-2.44,.49-.07,.9,.06,1.23,.39,.33,.33,.53,.77,.61,1.32,.16,1.1-.11,2.5-.8,4.19-.69,1.69-1.49,3.4-2.4,5.13-.91,1.72-1.73,3.31-2.46,4.76-.73,1.45-1.04,2.51-.95,3.18,.09,.61,.65,.84,1.69,.69,1.78-.26,3.8-.95,6.07-2.09,2.27-1.14,4.41-2.46,6.41-3.97,2-1.51,3.7-3.06,5.09-4.67,1.39-1.61,2.16-3.01,2.3-4.22-.13-.92-.58-1.93-1.33-3.04-.75-1.11-1.68-2.23-2.78-3.35-1.1-1.12-2.3-2.21-3.61-3.28-1.31-1.06-2.58-2-3.83-2.82-1.24-.82-2.38-1.45-3.41-1.9-1.03-.44-1.82-.63-2.38-.55-3.67,.53-7.2,1.63-10.58,3.3-3.38,1.67-6.49,3.75-9.32,6.21-2.83,2.47-5.38,5.29-7.64,8.46-2.26,3.17-4.11,6.48-5.55,9.94-1.44,3.46-2.44,7.02-3.01,10.7-.14,.91-.25,1.82-.32,2.73-2.1,2.36-4.51,4.91-7.23,7.64-2.73,2.74-5.52,5.25-8.38,7.53,1.3-2.25,2.09-4.69,2.37-7.32,.28-2.63,.27-4.93,0-6.89-.47-3.24-1.08-6.08-1.83-8.5-.76-2.42-1.46-4.71-2.11-6.87-.66-2.16-1.16-4.36-1.52-6.62-.36-2.26-.37-4.85-.04-7.77-.04-.24-.7-.85-2-1.82-1.3-.97-2.77-2.02-4.44-3.16-1.66-1.13-3.32-2.19-4.96-3.18-1.64-.98-2.86-1.63-3.66-1.96-.49,.07-.98,.58-1.47,1.52-.49,.95-.96,2.11-1.42,3.48-.46,1.38-.84,2.89-1.13,4.52-.29,1.64-.47,3.18-.51,4.62-.53,2.83-1.41,5.51-2.63,8.06-1.23,2.55-2.6,4.97-4.11,7.25-1.52,2.28-3.05,4.41-4.61,6.38-1.56,1.97-2.95,3.74-4.16,5.28l5.05,3.87c.96-1.14,2.04-2.43,3.24-3.89,1.2-1.45,2.39-2.94,3.58-4.45,1.19-1.51,2.36-3.04,3.51-4.58,1.15-1.54,2.16-3,3.03-4.37,.63,2.22,1.24,4.52,1.84,6.91,.59,2.38,1.07,4.86,1.44,7.43,.25,1.78,.34,3.48,.27,5.12-.08,1.64-.37,3.11-.86,4.44-.5,1.32-1.2,2.42-2.1,3.3-.9,.88-2.06,1.42-3.47,1.62-2.57,.37-4.45,.36-5.63-.03-1.18-.39-1.96-.56-2.32-.51-.18,.03-.42,.23-.71,.62-.29,.39-.57,.82-.84,1.29-.28,.48-.51,.93-.7,1.36-.19,.43-.27,.71-.25,.83,.38,.88,1.37,1.9,2.97,3.04,1.6,1.15,3.44,2.19,5.51,3.14,2.07,.95,4.24,1.7,6.51,2.25,2.27,.55,4.29,.7,6.06,.44,2.08-.3,4.25-1.05,6.52-2.25,2.26-1.2,4.58-2.72,6.94-4.56,2.36-1.84,4.72-3.9,7.08-6.17,2.36-2.28,4.66-4.64,6.9-7.08,.24-.26,.47-.53,.7-.79,.15,.83,.3,1.54,.47,2.12,.25,.84,.6,1.57,1.06,2.19,1.17,1.64,2.57,3.18,4.18,4.6,1.61,1.42,3.24,2.63,4.88,3.61,1.64,.98,3.22,1.72,4.72,2.23,1.51,.5,2.81,.67,3.92,.51,5.63-.81,10.92-2.37,15.87-4.67,4.95-2.31,9.59-5.13,13.92-8.47,4.23-3.26,8.17-6.94,11.84-11.02-.07,.64-.12,1.24-.14,1.79-.07,2.13-.08,3.38-.02,3.75,.18,1.29,.72,2.52,1.61,3.71,.89,1.18,1.9,2.21,3.02,3.08,1.13,.87,2.24,1.54,3.33,2,1.1,.47,1.95,.66,2.57,.57,.18-.03,.37-.05,.55-.08s.42-.12,.71-.29c2.45-1.23,5.07-2.9,7.85-5.02,2.79-2.12,5.53-4.44,8.23-6.95,2.7-2.51,5.25-5.13,7.64-7.85,2.39-2.72,4.44-5.29,6.15-7.73-.39,2.49-.65,4.58-.79,6.25-.13,1.68-.18,3.09-.14,4.24,.04,1.15,.13,2.08,.26,2.77,.13,.7,.23,1.29,.3,1.78,.19,1.29,.72,2.4,1.6,3.33,.88,.93,1.93,1.71,3.14,2.31,1.21,.61,2.51,1.03,3.89,1.27,1.38,.24,2.62,.28,3.72,.12,1.59-.23,3.38-1,5.38-2.32,2-1.32,4.08-2.95,6.23-4.88,2.16-1.94,4.34-4.11,6.56-6.52,2.21-2.41,4.35-4.83,6.41-7.25,.74-.87,1.44-1.72,2.15-2.56-.02,.17-.03,.36-.05,.53-.24,2.69-.4,4.92-.49,6.68-.09,1.76-.11,2.83-.06,3.19,1.27,1.01,2.68,1.99,4.22,2.95,1.55,.96,3.07,1.82,4.59,2.57,1.51,.75,2.97,1.32,4.37,1.71,1.4,.39,2.62,.51,3.66,.36,.86-.12,1.4-.45,1.64-.99,.24-.53,.48-1.26,.72-2.17,1.94-7.34,4.08-13.76,6.42-19.25,2.33-5.49,4.62-10.23,6.86-14.2,2.24-3.98,4.28-7.27,6.12-9.88,1.84-2.61,3.25-4.7,4.21-6.28l.16-.21c-.71,2.91-1.42,6.09-2.14,9.54-.72,3.45-1.39,6.92-2.02,10.41-.62,3.5-1.18,6.9-1.67,10.22-.49,3.32-.83,6.27-1.02,8.86,.16,1.1,.78,2.17,1.87,3.2,1.09,1.03,2.35,1.93,3.81,2.69,1.45,.76,2.93,1.36,4.43,1.8,1.5,.44,2.71,.59,3.63,.46,1.41-.2,3.08-.94,5.02-2.22,1.94-1.28,3.99-2.89,6.15-4.82,2.16-1.93,4.36-4.1,6.61-6.48,1.78-1.89,3.48-3.76,5.15-5.63,.02,.16,.04,.32,.06,.48,.19,1.35,1.01,2.89,2.44,4.62,1.44,1.73,3.15,3.34,5.15,4.84,2,1.49,4.09,2.71,6.29,3.64,2.2,.93,4.12,1.28,5.77,1.04,3.92-.56,7.87-1.63,11.87-3.21,3.99-1.57,8.09-3.82,12.29-6.74,4.2-2.92,8.53-6.6,12.98-11.05,1.09-1.09,2.2-2.24,3.31-3.45-.12,.89-.2,1.71-.23,2.44-.07,2.13-.08,3.38-.02,3.75,.18,1.29,.72,2.52,1.61,3.71,.89,1.18,1.9,2.21,3.02,3.08,1.13,.87,2.24,1.54,3.33,2,1.1,.47,1.95,.66,2.57,.57l.55-.08c.18-.03,.42-.12,.71-.29,2.45-1.23,5.07-2.9,7.85-5.02,2.79-2.12,5.53-4.44,8.23-6.95,2.7-2.51,5.25-5.13,7.64-7.85,2.39-2.72,4.44-5.29,6.15-7.73-.39,2.49-.65,4.58-.79,6.25-.13,1.68-.18,3.09-.14,4.24,.04,1.15,.13,2.08,.26,2.77,.13,.7,.23,1.29,.3,1.78,.19,1.29,.72,2.4,1.6,3.33,.88,.93,1.93,1.71,3.14,2.31,1.21,.61,2.51,1.03,3.89,1.27,1.38,.24,2.62,.28,3.72,.12,1.59-.23,3.38-1,5.38-2.32,2-1.32,4.08-2.95,6.23-4.88,2.16-1.94,4.34-4.11,6.56-6.52,2.21-2.41,4.35-4.83,6.41-7.25,.32-.38,.62-.74,.93-1.11-.2,2.34-.35,4.32-.43,5.91-.09,1.76-.11,2.83-.06,3.2,1.27,1,2.68,1.99,4.22,2.95,1.54,.96,3.07,1.82,4.59,2.57,1.51,.75,2.97,1.32,4.37,1.71,1.4,.39,2.62,.51,3.66,.36,1.35-.19,2.11-.96,2.29-2.3,1.48-6.21,3.2-11.83,5.17-16.86,1.96-5.03,3.95-9.49,5.95-13.37,2-3.88,3.93-7.22,5.78-10.02s3.39-5.1,4.63-6.9c-.9,4.63-1.66,9.11-2.28,13.45-.63,4.34-1.14,8.26-1.54,11.75-.4,3.5-.68,6.36-.83,8.6-.15,2.24-.19,3.57-.13,4,1.28,1.07,2.61,1.94,3.98,2.61,1.38,.68,2.71,1.22,3.98,1.63,1.28,.41,2.47,.68,3.58,.8,1.11,.12,2.03,.13,2.77,.02,1.41-.2,2.21-.94,2.4-2.22,1.9-7.65,3.96-14.19,6.17-19.63,2.22-5.44,4.37-10.05,6.45-13.82,2.08-3.77,3.99-6.84,5.71-9.21,1.72-2.37,3.09-4.38,4.1-6.03-.71,2.91-1.42,6.08-2.15,9.49-.73,3.42-1.4,6.87-2.02,10.37-.62,3.5-1.16,6.9-1.62,10.22-.46,3.32-.79,6.27-.98,8.86,.16,1.1,.78,2.17,1.87,3.2,1.09,1.03,2.34,1.93,3.76,2.69,1.42,.76,2.88,1.37,4.38,1.81,1.5,.44,2.71,.59,3.63,.46,1.47-.21,3.17-.96,5.11-2.24,1.94-1.28,3.99-2.89,6.15-4.82,2.16-1.93,4.36-4.1,6.61-6.48,1.78-1.89,3.49-3.76,5.15-5.63,.02,.16,.04,.32,.06,.48,.19,1.35,1.01,2.89,2.44,4.62,1.44,1.73,3.15,3.34,5.15,4.84,2,1.49,4.09,2.71,6.29,3.64,2.2,.93,4.12,1.28,5.77,1.04,3.92-.56,7.87-1.63,11.87-3.21,3.99-1.57,8.09-3.82,12.29-6.74,4.2-2.92,8.53-6.6,12.98-11.05,4.45-4.45,9.1-9.84,13.94-16.16l-5.15-3.85c-2.6,3.25-5.23,6.47-7.89,9.66Zm-33.17-7.74c.95-2.98,2-5.64,3.16-8,1.16-2.35,2.38-4.29,3.66-5.82,1.28-1.53,2.53-2.38,3.76-2.56,.67-.1,1.21,.05,1.61,.43,.4,.38,.64,.85,.72,1.4,.27,1.9,.02,3.87-.74,5.92-.77,2.05-1.88,4.1-3.33,6.15-1.45,2.05-3.15,4.06-5.08,6.03-1.94,1.97-3.93,3.85-5.98,5.64,.55-3.14,1.3-6.2,2.24-9.18Zm-243.53,35.03c.95-2.98,2-5.65,3.16-8,1.16-2.35,2.38-4.29,3.66-5.82,1.28-1.53,2.53-2.38,3.76-2.56,.67-.1,1.21,.05,1.61,.42,.4,.38,.64,.85,.72,1.4,.27,1.9,.02,3.87-.74,5.92-.77,2.05-1.88,4.1-3.33,6.15-1.46,2.05-3.15,4.06-5.09,6.03-1.94,1.97-3.93,3.85-5.98,5.64,.55-3.14,1.29-6.2,2.24-9.18Z"/>
<path d="M893.98,929.41c-1.75-1.53-3.84-3.12-6.26-4.77-2.43-1.65-5.04-3.21-7.84-4.68-2.8-1.47-5.47-2.52-8-3.16-1.62,13.48-3.08,25.41-4.37,35.78-1.29,10.37-2.53,19.58-3.71,27.62-1.19,8.04-2.36,15.13-3.5,21.26-1.15,6.13-2.33,11.69-3.55,16.68,1.59,1.52,3.66,2.88,6.21,4.07,2.54,1.2,5.19,2,7.94,2.42,1.96-5.91,4.08-12.46,6.36-19.66,2.28-7.2,4.56-14.76,6.86-22.69,2.29-7.92,4.56-16.06,6.8-24.41,2.23-8.35,4.35-16.67,6.35-24.95-.43-.81-1.52-1.98-3.27-3.51Z"/>
<path d="M868.83,1041.28c-.73-.49-1.65-1.03-2.76-1.62-1.11-.59-2.36-1.21-3.73-1.85-1.38-.65-2.72-1.2-4.04-1.67-1.32-.47-2.54-.84-3.67-1.11-1.13-.27-2.01-.37-2.62-.28-.37,.05-.95,.89-1.75,2.5-.8,1.61-1.61,3.48-2.43,5.6-.82,2.12-1.5,4.26-2.03,6.43-.53,2.17-.72,3.81-.56,4.91,.04,.25,.44,.56,1.22,.95,.77,.39,1.72,.82,2.85,1.28,1.13,.46,2.38,.94,3.77,1.43,1.38,.49,2.69,.91,3.93,1.26,1.24,.35,2.34,.63,3.31,.84,.97,.2,1.6,.29,1.91,.24,.49-.07,1.19-.95,2.1-2.65,.91-1.69,1.8-3.59,2.65-5.68,.85-2.09,1.58-4.07,2.19-5.94,.61-1.87,.87-3.05,.8-3.54-.04-.24-.42-.61-1.14-1.1Z"/>
</g>
<g>
<path d="M414.58,257.82H244.58v170h170v-170Zm-40,130h-90v-90h90v90Z"/>
<rect x="309.58" y="322.82" width="40" height="40"/>
<path d="M756.58,257.82h-170v170h170v-170Zm-40,130h-90v-90h90v90Z"/>
<rect x="651.58" y="322.82" width="40" height="40"/>
<path d="M414.58,599.82H244.58v170h170v-170Zm-40,130h-90v-90h90v90Z"/>
<rect x="309.58" y="664.82" width="40" height="40"/>
<rect x="284.58" y="454.82" width="40" height="40"/>
<polygon points="363.58 534.82 363.58 574.82 403.58 574.82 403.58 534.82 364.58 534.82 364.58 494.82 324.58 494.82 324.58 534.82 363.58 534.82"/>
<rect x="524.58" y="334.82" width="40" height="40"/>
<rect x="444.58" y="297.82" width="40" height="77"/>
<rect x="484.58" y="257.82" width="40" height="40"/>
<polygon points="524.58 374.82 484.58 374.82 484.58 414.82 444.58 414.82 444.58 454.82 524.58 454.82 524.58 374.82"/>
<polygon points="484.58 574.82 484.58 613.82 524.58 613.82 524.58 652.82 604.58 652.82 604.58 612.82 524.58 612.82 524.58 573.82 484.58 573.82 484.58 494.82 444.58 494.82 444.58 574.82 484.58 574.82"/>
<rect x="524.58" y="454.82" width="40" height="80"/>
<path d="M644.58,573.82h112v-80h-40v-39h-73v40h-39v40h40v39Zm0-79h72v39h-72v-39Z"/>
<rect x="716.58" y="612.82" width="40" height="80"/>
<rect x="564.58" y="534.82" width="40" height="40"/>
<rect x="604.58" y="652.82" width="40" height="40"/>
<rect x="644.58" y="612.82" width="40" height="40"/>
<polygon points="684.58 769.82 684.58 732.82 716.58 732.82 716.58 692.82 644.58 692.82 644.58 769.82 684.58 769.82"/>
<rect x="444.58" y="613.82" width="40" height="76"/>
<polygon points="524.58 769.82 524.58 729.82 563.58 729.82 563.58 769.82 603.58 769.82 603.58 729.82 564.58 729.82 564.58 689.82 484.58 689.82 484.58 769.82 524.58 769.82"/>
<rect x="364.58" y="454.82" width="80" height="40"/>
<rect x="244.58" y="494.82" width="40" height="80"/>
</g>
</svg>