<?xml version="1.0" encoding="UTF-8"?>
<svg id="TEXTO" xmlns="http://www.w3.org/2000/svg" viewBox="0 0 1000 1100">
<g>
<rect x="235.57" y="287.8" width="528.73" height="528.73" rx="22.97" ry="22.97" fill="#e5e7ef"/>
<path d="M147.91,719.14c-4.97,0-9-4.03-9-9V220.96c0-16.44,12.3-29.82,27.42-29.82h432.89c4.97,0,9,4.03,9,9s-4.03,9-9,9H166.33c-5.2,0-9.42,5.3-9.42,11.82v489.18c0,4.97-4.03,9-9,9Z"/>
<path d="M833.54,913.19H400.64c-4.97,0-9-4.03-9-9s4.03-9,9-9h432.89c5.2,0,9.42-5.3,9.42-11.82V394.19c0-4.97,4.03-9,9-9s9,4.03,9,9v489.18c0,16.44-12.3,29.82-27.42,29.82Z"/>
<path d="M312.42,871.55h-118.42c-10.27,0-17.61-2.02-21.22-5.84-2.26-2.38-3.23-5.74-2.99-10.25,.52-9.5,1.31-18.38,2.01-26.22,1.46-16.41,2.61-29.37,.73-39.52-2.47-13.3-10.29-21.07-23.23-23.09-11.61-1.81-21.07,2.66-28.12,13.31-5.3,8-8.87,18.68-13.01,31.04-3.08,9.23-6.28,18.77-10.55,28.34-1.22,2.73-4.11,4.31-9.54,7.1-6.77,3.47-16.04,8.23-23.83,19.07-1.38,1.92-2.67,3.95-3.88,6.05H-.07v18H52.19c-4.74,13.12-6.78,24.61-6.91,25.38-.85,4.9,2.43,9.55,7.33,10.4,4.9,.84,9.55-2.43,10.41-7.32,.05-.26,4.73-26.51,15.86-42,5.26-7.31,11.44-10.49,17.43-13.56,6.52-3.34,13.91-7.13,17.76-15.78,4.63-10.38,8.11-20.78,11.18-29.97,8.63-25.81,12.7-33.62,21.27-32.29,5.3,.83,7.25,2.84,8.32,8.6,1.43,7.72,.38,19.6-.96,34.63-.71,7.98-1.51,17.03-2.05,26.83-.52,9.45,2.21,17.61,7.89,23.6,7.2,7.61,18.74,11.46,34.29,11.46h118.42c6.88,0,11.68,5.21,11.68,12.68s-5.94,11.98-11.68,11.98h-71.84c-1.58-.26-3.19-.4-4.84-.4h-65.96c-16.53,0-29.99,13.45-29.99,29.99,0,11.04,6,20.7,14.91,25.91-2.96,4.65-4.69,10.16-4.69,16.07,0,10.3,5.22,19.4,13.15,24.8-3.42,4.87-5.43,10.79-5.43,17.18,0,4.17,.86,8.15,2.41,11.77-64.08-.9-67.31-5.19-81.4-23.94-3.89-5.18-7.4-12.29-10.42-21.13-1.61-4.7-6.72-7.21-11.43-5.61-4.7,1.61-7.21,6.72-5.61,11.43,1.24,3.64,2.58,7.05,4,10.25H-.07v18H65.96c8.95,11.85,16.28,20.43,35.4,24.69,15.68,3.49,39.05,4.37,85.4,4.51,.32,0,.64,.02,.97,.02h48.01c16.53,0,29.99-13.45,29.99-29.99,0-8.16-3.28-15.57-8.6-20.99,5.31-5.41,8.6-12.82,8.6-20.99s-3.28-15.57-8.6-20.99c5.31-5.41,8.6-12.82,8.6-20.99,0-4.11-.83-8.02-2.33-11.59h49.03c16.37,0,29.68-13.45,29.68-29.98,0-17.49-12.76-30.68-29.68-30.68Zm-64.69,114.22c0,6.61-5.38,11.99-11.99,11.99h-55.73c-6.61,0-11.99-5.38-11.99-11.99s5.38-11.99,11.99-11.99h55.73c6.61,0,11.99,5.38,11.99,11.99Zm-11.99,53.96h-31.68c-5.9,0-11.46,0-16.73-.02-6.42-.21-11.59-5.49-11.59-11.97s5.38-11.99,11.99-11.99h48.01c6.61,0,11.99,5.38,11.99,11.99s-5.38,11.99-11.99,11.99Zm11.99-95.93c0,6.61-5.38,11.99-11.99,11.99h-65.96c-6.61,0-11.99-5.38-11.99-11.99s5.38-11.99,11.99-11.99h63.14c.84,.26,1.72,.4,2.64,.4h3.18c5.16,1.34,8.99,6.02,8.99,11.59Z"/>
<path d="M1000.07,71.49h-66.03c-8.95-11.85-16.28-20.43-35.4-24.69-17.52-3.9-44.63-4.53-102.71-4.53h-31.68c-16.53,0-29.99,13.45-29.99,29.99,0,8.16,3.28,15.57,8.59,20.99-5.31,5.41-8.59,12.82-8.59,20.99s3.28,15.57,8.59,20.99c-5.31,5.41-8.59,12.82-8.59,20.99,0,4.11,.83,8.02,2.33,11.59h-49.02c-16.37,0-29.68,13.45-29.68,29.98,0,17.49,12.76,30.68,29.68,30.68h118.42c10.27,0,17.61,2.02,21.22,5.84,2.26,2.38,3.23,5.73,2.99,10.24-.52,9.5-1.31,18.38-2.01,26.23-1.46,16.41-2.61,29.37-.73,39.52,2.47,13.3,10.29,21.07,23.23,23.09,1.68,.26,3.31,.39,4.89,.39,9.39,0,17.19-4.6,23.22-13.71,5.3-8,8.87-18.68,13.01-31.04,3.08-9.23,6.28-18.77,10.55-28.34,1.22-2.73,4.11-4.31,9.54-7.1,6.77-3.47,16.04-8.23,23.83-19.07,1.38-1.92,2.67-3.95,3.88-6.05h60.44v-18h-52.26c4.74-13.12,6.78-24.61,6.91-25.38,.85-4.9-2.43-9.55-7.33-10.4-4.91-.85-9.55,2.43-10.41,7.32-.05,.26-4.73,26.51-15.86,42-5.26,7.31-11.44,10.49-17.43,13.56-6.52,3.34-13.91,7.13-17.76,15.78-4.63,10.38-8.11,20.78-11.18,29.97-8.63,25.81-12.69,33.63-21.27,32.29-5.3-.83-7.25-2.84-8.32-8.6-1.43-7.72-.38-19.6,.96-34.63,.71-7.98,1.52-17.03,2.05-26.83,.52-9.45-2.21-17.61-7.89-23.61-7.2-7.61-18.74-11.46-34.29-11.46h-118.42c-6.88,0-11.68-5.21-11.68-12.68s5.94-11.98,11.68-11.98h71.84c1.58,.26,3.19,.4,4.84,.4,3.77,0,6.99-2.32,8.33-5.6,.54-1.15,.85-2.44,.85-3.8,0-4.97-4.03-9-9-9h-3.18c-5.16-1.34-8.99-6.02-8.99-11.59,0-6.61,5.38-11.99,11.99-11.99,4.97,0,9-4.03,9-9s-4.03-9-9-9c-6.61,0-11.99-5.38-11.99-11.99s5.38-11.99,11.99-11.99c4.97,0,9-4.03,9-9s-4.03-9-9-9c-6.61,0-11.99-5.38-11.99-11.99s5.38-11.99,11.99-11.99h31.68c107.16,0,108.53,1.82,125.31,24.16,3.89,5.18,7.4,12.29,10.42,21.13,1.61,4.7,6.72,7.21,11.43,5.61,4.7-1.61,7.21-6.72,5.61-11.43-1.24-3.64-2.58-7.05-4-10.25h55.37v-18Z"/>
</g>
<g>
<rect x="378.72" y="976.31" width="9.64" height="8.84"/>
<rect x="378.72" y="990.71" width="9.64" height="43.2"/>
<polygon points="403.56 1019.51 440.76 1019.51 440.76 1010.47 413.2 1010.47 413.2 994.19 435.96 994.19 435.96 985.15 413.2 985.15 413.2 970.95 440.76 970.95 440.76 961.91 403.56 961.91 403.56 1019.51"/>
<path d="M479.02,996.97c-2.07-1.13-4.82-2.14-8.26-3.02-3.36-.85-5.89-1.57-7.58-2.16-1.69-.59-2.82-1.17-3.38-1.76s-.84-1.29-.84-2.12c0-1.47,.69-2.61,2.08-3.42,1.39-.81,3.21-1.15,5.48-1.02,2.37,.13,4.27,.73,5.7,1.8s2.26,2.52,2.5,4.36l9.84-1.76c-.37-2.59-1.36-4.84-2.96-6.76-1.6-1.92-3.7-3.4-6.3-4.44-2.6-1.04-5.58-1.56-8.94-1.56s-6.43,.54-8.96,1.62-4.51,2.62-5.92,4.62-2.12,4.35-2.12,7.04c0,2.16,.47,4,1.4,5.52,.93,1.52,2.47,2.83,4.6,3.94s5.01,2.14,8.64,3.1c3.25,.85,5.67,1.56,7.24,2.12,1.57,.56,2.59,1.14,3.06,1.74,.47,.6,.7,1.39,.7,2.38,0,1.6-.63,2.86-1.9,3.78s-3.06,1.38-5.38,1.38c-2.64,0-4.83-.61-6.56-1.84-1.73-1.23-2.85-2.91-3.36-5.04l-9.84,1.52c.72,4.35,2.75,7.72,6.08,10.12,3.33,2.4,7.67,3.6,13,3.6s9.94-1.24,13.1-3.72c3.16-2.48,4.74-5.89,4.74-10.24,0-2.24-.46-4.15-1.38-5.72-.92-1.57-2.41-2.93-4.48-4.06Z"/>
<path d="M506.24,985.93c1.63-1.19,3.69-1.78,6.2-1.78,2.21,0,4.19,.65,5.92,1.94,1.73,1.29,2.97,3.1,3.72,5.42l9.6-2.6c-1.04-4.27-3.26-7.63-6.66-10.1-3.4-2.46-7.55-3.7-12.46-3.7-4.37,0-8.15,.98-11.32,2.94-3.17,1.96-5.62,4.65-7.34,8.08-1.72,3.43-2.59,7.35-2.62,11.78,.03,4.35,.87,8.24,2.54,11.68,1.67,3.44,4.07,6.15,7.22,8.14s6.95,2.98,11.4,2.98c4.83,0,8.91-1.18,12.24-3.54,3.33-2.36,5.67-5.74,7-10.14l-9.84-2.2c-.75,2.21-1.86,3.91-3.34,5.08-1.48,1.17-3.5,1.76-6.06,1.76-3.63,0-6.36-1.27-8.2-3.8s-2.76-5.85-2.76-9.96c0-2.64,.39-5,1.16-7.08s1.97-3.71,3.6-4.9Z"/>
<path d="M573.08,983.15c-1.41-2.85-3.58-4.91-6.5-6.16-2.92-1.25-6.3-1.88-10.14-1.88-5.09,0-9.14,1.11-12.14,3.32s-5.03,5.15-6.1,8.8l8.8,2.76c.72-2.21,1.99-3.77,3.8-4.68,1.81-.91,3.69-1.36,5.64-1.36,3.23,0,5.52,.71,6.88,2.12,1.13,1.18,1.77,2.9,1.95,5.16-1.74,.26-3.44,.51-5.09,.74-2.73,.39-5.27,.81-7.6,1.26-2.33,.46-4.37,.96-6.1,1.52-2.29,.77-4.16,1.77-5.6,2.98-1.44,1.21-2.51,2.65-3.2,4.32-.69,1.67-1.04,3.54-1.04,5.62,0,2.37,.55,4.55,1.66,6.52,1.11,1.97,2.74,3.55,4.9,4.74,2.16,1.19,4.8,1.78,7.92,1.78,3.89,0,7.14-.73,9.74-2.18,2-1.12,3.81-2.74,5.42-4.84v5.82h8.44v-26.52c0-1.87-.08-3.59-.24-5.18-.16-1.59-.63-3.14-1.4-4.66Zm-8.88,22.72c-.32,.99-.94,2.04-1.86,3.16s-2.15,2.07-3.7,2.84c-1.55,.77-3.41,1.16-5.6,1.16-1.52,0-2.79-.24-3.82-.72-1.03-.48-1.81-1.12-2.34-1.94-.53-.81-.8-1.75-.8-2.82,0-.93,.21-1.75,.62-2.44s1.01-1.31,1.78-1.84,1.72-1,2.84-1.4c1.15-.37,2.47-.71,3.96-1.02s3.28-.63,5.36-.98c1.33-.22,2.84-.47,4.5-.73-.02,.73-.04,1.56-.08,2.51-.07,1.59-.35,2.99-.86,4.22Z"/>
<path d="M623.36,986.03c-.59-1.87-1.49-3.63-2.72-5.28-1.23-1.65-2.88-3.01-4.96-4.08s-4.72-1.6-7.92-1.6c-4.05,0-7.47,.89-10.24,2.66-1.49,.95-2.78,2.09-3.88,3.39v-4.81h-8.6v43.2h9.76v-22.2c0-2.64,.29-4.8,.88-6.5,.59-1.69,1.37-3.03,2.34-4,.97-.97,2.06-1.66,3.26-2.06,1.2-.4,2.41-.6,3.64-.6,2.29,0,4.11,.49,5.46,1.48,1.35,.99,2.36,2.25,3.04,3.78,.68,1.53,1.11,3.13,1.3,4.78,.19,1.65,.28,3.16,.28,4.52v20.8h9.76v-24.12c0-1.04-.09-2.39-.26-4.06-.17-1.67-.55-3.43-1.14-5.3Z"/>
<path d="M664.98,978.25c-3.13-2.09-6.94-3.14-11.42-3.14-4.24,0-7.97,.96-11.2,2.88-3.23,1.92-5.75,4.62-7.56,8.1-1.81,3.48-2.72,7.58-2.72,12.3,0,4.38,.93,8.24,2.78,11.6,1.85,3.36,4.43,5.99,7.74,7.88s7.15,2.84,11.52,2.84,7.97-1.08,11.42-3.24c3.45-2.16,6.01-5.19,7.66-9.08l-9.52-2.88c-.93,2-2.26,3.53-3.98,4.58-1.72,1.05-3.77,1.58-6.14,1.58-3.68,0-6.48-1.2-8.4-3.6-1.51-1.88-2.41-4.38-2.74-7.48h31.26c.37-5.17-.2-9.67-1.72-13.48-1.52-3.81-3.85-6.77-6.98-8.86Zm-11.02,5.3c3.49,0,6.05,1.08,7.68,3.24,1.15,1.53,1.9,3.71,2.25,6.52h-21.23c.44-2.5,1.27-4.53,2.51-6.1,1.92-2.44,4.85-3.66,8.8-3.66Z"/>
<path d="M715.88,983.15c-1.41-2.85-3.58-4.91-6.5-6.16-2.92-1.25-6.3-1.88-10.14-1.88-5.09,0-9.14,1.11-12.14,3.32s-5.03,5.15-6.1,8.8l8.8,2.76c.72-2.21,1.99-3.77,3.8-4.68,1.81-.91,3.69-1.36,5.64-1.36,3.23,0,5.52,.71,6.88,2.12,1.13,1.18,1.77,2.9,1.95,5.16-1.74,.26-3.44,.51-5.09,.74-2.73,.39-5.27,.81-7.6,1.26-2.33,.46-4.37,.96-6.1,1.52-2.29,.77-4.16,1.77-5.6,2.98-1.44,1.21-2.51,2.65-3.2,4.32-.69,1.67-1.04,3.54-1.04,5.62,0,2.37,.55,4.55,1.66,6.52,1.11,1.97,2.74,3.55,4.9,4.74,2.16,1.19,4.8,1.78,7.92,1.78,3.89,0,7.14-.73,9.74-2.18,2-1.12,3.81-2.74,5.42-4.84v5.82h8.44v-26.52c0-1.87-.08-3.59-.24-5.18-.16-1.59-.63-3.14-1.4-4.66Zm-8.88,22.72c-.32,.99-.94,2.04-1.86,3.16s-2.15,2.07-3.7,2.84c-1.55,.77-3.41,1.16-5.6,1.16-1.52,0-2.79-.24-3.82-.72-1.03-.48-1.81-1.12-2.34-1.94-.53-.81-.8-1.75-.8-2.82,0-.93,.21-1.75,.62-2.44s1.01-1.31,1.78-1.84,1.72-1,2.84-1.4c1.15-.37,2.47-.71,3.96-1.02s3.28-.63,5.36-.98c1.33-.22,2.84-.47,4.5-.73-.02,.73-.04,1.56-.08,2.51-.07,1.59-.35,2.99-.86,4.22Z"/>
<path d="M774.64,975.23c-2.88,0-5.49,.64-7.84,1.92-2.22,1.21-3.99,2.89-5.34,5-1.07-2-2.54-3.64-4.48-4.86-2.17-1.37-4.87-2.06-8.1-2.06-2.93,0-5.58,.65-7.94,1.94-1.82,1-3.34,2.28-4.58,3.84v-4.7h-8.52v43.2h9.72v-26.6c0-2.69,.74-4.88,2.22-6.56,1.48-1.68,3.45-2.52,5.9-2.52s4.53,.84,6,2.52c1.47,1.68,2.2,4.03,2.2,7.04v26.12h9.6v-26.6c0-1.89,.36-3.53,1.08-4.9,.72-1.37,1.69-2.41,2.92-3.12,1.23-.71,2.61-1.06,4.16-1.06,2.51,0,4.49,.83,5.96,2.5,1.47,1.67,2.2,3.98,2.2,6.94v26.24h9.64v-28.68c0-4.67-1.27-8.43-3.82-11.3s-6.21-4.3-10.98-4.3Z"/>
<path d="M829.65,978.25c-3.13-2.09-6.94-3.14-11.42-3.14-4.24,0-7.97,.96-11.2,2.88-3.23,1.92-5.75,4.62-7.56,8.1-1.81,3.48-2.72,7.58-2.72,12.3,0,4.38,.93,8.24,2.78,11.6,1.85,3.36,4.43,5.99,7.74,7.88s7.15,2.84,11.52,2.84,7.97-1.08,11.42-3.24c3.45-2.16,6.01-5.19,7.66-9.08l-9.52-2.88c-.93,2-2.26,3.53-3.98,4.58-1.72,1.05-3.77,1.58-6.14,1.58-3.68,0-6.48-1.2-8.4-3.6-1.51-1.88-2.41-4.38-2.74-7.48h31.26c.37-5.17-.2-9.67-1.72-13.48-1.52-3.81-3.85-6.77-6.98-8.86Zm-11.02,5.3c3.49,0,6.05,1.08,7.68,3.24,1.15,1.53,1.9,3.71,2.25,6.52h-21.23c.44-2.5,1.27-4.53,2.51-6.1,1.92-2.44,4.85-3.66,8.8-3.66Z"/>
<rect x="851.31" y="961.91" width="9.64" height="43.2"/>
<rect x="851.31" y="1010.67" width="9.64" height="8.84"/>
</g>
<g>
<path d="M432.75,352.17h-132.81v132.81h132.81v-132.81Zm-31.25,101.56h-70.31v-70.31h70.31v70.31Z"/>
<rect x="350.71" y="402.95" width="31.25" height="31.25"/>
<path d="M699.93,352.17h-132.81v132.81h132.81v-132.81Zm-31.25,101.56h-70.31v-70.31h70.31v70.31Z"/>
<rect x="617.9" y="402.95" width="31.25" height="31.25"/>
<path d="M432.75,619.36h-132.81v132.81h132.81v-132.81Zm-31.25,101.56h-70.31v-70.31h70.31v70.31Z"/>
<rect x="350.71" y="670.14" width="31.25" height="31.25"/>
<rect x="331.18" y="506.07" width="31.25" height="31.25"/>
<polygon points="392.9 568.57 392.9 599.82 424.15 599.82 424.15 568.57 393.68 568.57 393.68 537.32 362.43 537.32 362.43 568.57 392.9 568.57"/>
<rect x="518.68" y="412.32" width="31.25" height="31.25"/>
<rect x="456.18" y="383.42" width="31.25" height="60.16"/>
<rect x="487.43" y="352.17" width="31.25" height="31.25"/>
<polygon points="518.68 443.57 487.43 443.57 487.43 474.82 456.18 474.82 456.18 506.07 518.68 506.07 518.68 443.57"/>
<polygon points="487.43 599.82 487.43 630.29 518.68 630.29 518.68 660.76 581.18 660.76 581.18 629.51 518.68 629.51 518.68 599.04 487.43 599.04 487.43 537.32 456.18 537.32 456.18 599.82 487.43 599.82"/>
<rect x="518.68" y="506.07" width="31.25" height="62.5"/>
<path d="M612.43,599.04h87.5v-62.5h-31.25v-30.47h-57.03v31.25h-30.47v31.25h31.25v30.47Zm0-61.72h56.25v30.47h-56.25v-30.47Z"/>
<rect x="668.68" y="629.51" width="31.25" height="62.5"/>
<rect x="549.93" y="568.57" width="31.25" height="31.25"/>
<rect x="581.18" y="660.76" width="31.25" height="31.25"/>
<rect x="612.43" y="629.51" width="31.25" height="31.25"/>
<polygon points="643.68 752.17 643.68 723.26 668.68 723.26 668.68 692.01 612.43 692.01 612.43 752.17 643.68 752.17"/>
<rect x="456.18" y="630.29" width="31.25" height="59.38"/>
<polygon points="518.68 752.17 518.68 720.92 549.15 720.92 549.15 752.17 580.4 752.17 580.4 720.92 549.93 720.92 549.93 689.67 487.43 689.67 487.43 752.17 518.68 752.17"/>
<rect x="393.68" y="506.07" width="62.5" height="31.25"/>
<rect x="299.93" y="537.32" width="31.25" height="62.5"/>
</g>
</svg>