<?xml version="1.0" encoding="UTF-8"?>
<svg id="TEXTO" xmlns="http://www.w3.org/2000/svg" viewBox="0 0 1000 1300">
<g>
<path d="M907.52,289.23h0v815.03H92.48V289.23H907.52m0-40H92.48c-22.09,0-40,17.91-40,40v815.03c0,22.09,17.91,40,40,40H907.52c22.09,0,40-17.91,40-40V289.23c0-22.09-17.91-40-40-40h0Z"/>
<rect x="150.94" y="347.69" width="698.13" height="698.13" rx="40" ry="40" fill="#e5e7ef"/>
<path d="M907.52,1300H92.48c-22.09,0-40-17.91-40-40v-150.64H947.52v150.64c0,22.09-17.91,40-40,40Z"/>
<path d="M1000,252.42v15.24l-209.57-1.74c1.86,12.94,1.16,27.19-6.31,41.09-8.37,15.59-26.66,34.17-66.2,34.17-52.4,0-123.83-34.06-165.37-68.97-7.74,5.33-17.01,8.3-26.65,8.3h-37.53c-9.65,0-18.91-2.97-26.65-8.3-41.53,34.91-112.97,68.97-165.37,68.97-39.54,0-57.83-18.58-66.2-34.17-7.48-13.93-8.18-28.21-6.3-41.18L0,267.66l1-15.24H1000Z" fill="#585858" opacity=".5"/>
<g>
<path d="M315.72,84.4s-230.43-8.32-299.14-1.84c36.1,32.76,68.76,76.64,68.76,76.64L1,252.42s321.01-2.29,370.14-2.65c-8.6-33.28-55.42-165.37-55.42-165.37Z" fill="#585858"/>
<path d="M685.28,84.4s230.43-8.32,299.14-1.84c-36.1,32.76-68.76,76.64-68.76,76.64l84.34,93.22s-321.01-2.29-370.14-2.65c8.6-33.28,55.42-165.37,55.42-165.37Z" fill="#585858"/>
<g>
<path d="M537.66,89.21S641.19,.06,719.42,.86s73.87,49.43,70.55,63.45c-5.88,24.89-36.04,85.94-36.04,119.67s35.52,78.54,16.97,114.69c-37.32,72.75-202.56-15.9-233.24-68.91-30.68-53.01,0-140.55,0-140.55Z"/>
<path d="M580.48,91.21S713.58-4.38,752.1,35.59c42.69,44.29-171.62,55.62-171.62,55.62Z" fill="#585858"/>
</g>
<g>
<path d="M476.59,89.21S373.06,.06,294.84,.86s-73.87,49.43-70.55,63.45c5.88,24.89,36.04,85.94,36.04,119.67s-35.52,78.54-16.97,114.69c37.32,72.75,202.56-15.9,233.24-68.91,30.68-53.01,0-140.55,0-140.55Z"/>
<path d="M433.77,91.21S300.67-4.38,262.15,35.59c-42.69,44.29,171.62,55.62,171.62,55.62Z" fill="#585858"/>
</g>
<rect x="456.36" y="78.65" width="101.53" height="183.99" rx="32" ry="32" fill="#585858"/>
</g>
</g>
<g>
<rect x="228.74" y="1203.28" width="10.84" height="48.6" fill="#fff"/>
<rect x="228.74" y="1187.09" width="10.84" height="9.94" fill="#fff"/>
<polygon points="256.69 1235.69 298.54 1235.69 298.54 1225.52 267.53 1225.52 267.53 1207.2 293.14 1207.2 293.14 1197.03 267.53 1197.03 267.53 1181.06 298.54 1181.06 298.54 1170.89 256.69 1170.89 256.69 1235.69" fill="#fff"/>
<path d="M341.58,1210.33c-2.33-1.27-5.42-2.41-9.29-3.4-3.78-.96-6.62-1.77-8.53-2.43-1.91-.66-3.17-1.32-3.8-1.98-.63-.66-.95-1.46-.95-2.38,0-1.65,.78-2.93,2.34-3.85,1.56-.92,3.61-1.3,6.17-1.15,2.67,.15,4.81,.83,6.41,2.03,1.6,1.2,2.54,2.83,2.81,4.9l11.07-1.98c-.42-2.91-1.53-5.45-3.33-7.61-1.8-2.16-4.16-3.83-7.09-5s-6.28-1.75-10.06-1.75-7.23,.61-10.08,1.82c-2.85,1.22-5.07,2.95-6.66,5.2s-2.38,4.89-2.38,7.92c0,2.43,.52,4.5,1.58,6.21,1.05,1.71,2.77,3.19,5.17,4.43s5.64,2.41,9.72,3.49c3.66,.96,6.38,1.75,8.15,2.38,1.77,.63,2.92,1.28,3.44,1.96,.52,.67,.79,1.57,.79,2.68,0,1.8-.71,3.22-2.14,4.25-1.43,1.04-3.44,1.55-6.05,1.55-2.97,0-5.43-.69-7.38-2.07-1.95-1.38-3.21-3.27-3.78-5.67l-11.07,1.71c.81,4.89,3.09,8.68,6.84,11.38,3.75,2.7,8.62,4.05,14.62,4.05s11.18-1.39,14.74-4.18c3.55-2.79,5.33-6.63,5.33-11.52,0-2.52-.52-4.66-1.55-6.43-1.03-1.77-2.71-3.29-5.04-4.57Z" fill="#fff"/>
<path d="M372.2,1197.91c1.83-1.33,4.16-2,6.98-2,2.49,0,4.71,.73,6.66,2.18,1.95,1.46,3.34,3.49,4.18,6.1l10.8-2.92c-1.17-4.8-3.67-8.59-7.49-11.36-3.83-2.78-8.5-4.16-14.02-4.16-4.92,0-9.17,1.1-12.74,3.31s-6.32,5.24-8.26,9.09c-1.94,3.86-2.92,8.27-2.95,13.25,.03,4.89,.98,9.27,2.86,13.14s4.58,6.92,8.12,9.16c3.54,2.24,7.81,3.35,12.83,3.35,5.43,0,10.02-1.33,13.77-3.98,3.75-2.65,6.38-6.46,7.88-11.41l-11.07-2.47c-.84,2.49-2.09,4.39-3.76,5.71s-3.94,1.98-6.82,1.98c-4.08,0-7.16-1.42-9.23-4.27-2.07-2.85-3.1-6.58-3.1-11.21,0-2.97,.43-5.62,1.3-7.96,.87-2.34,2.22-4.18,4.05-5.51Z" fill="#fff"/>
<path d="M447.39,1194.78c-1.59-3.21-4.03-5.52-7.31-6.93s-7.09-2.12-11.41-2.12c-5.73,0-10.28,1.25-13.66,3.74s-5.66,5.79-6.86,9.9l9.9,3.11c.81-2.49,2.23-4.25,4.28-5.26,2.04-1.02,4.15-1.53,6.34-1.53,3.63,0,6.21,.79,7.74,2.38,1.27,1.32,2,3.26,2.19,5.81-1.95,.29-3.87,.57-5.72,.83-3.08,.44-5.92,.91-8.55,1.42-2.62,.51-4.91,1.08-6.86,1.71-2.58,.87-4.68,1.99-6.3,3.35-1.62,1.37-2.82,2.99-3.6,4.86-.78,1.88-1.17,3.98-1.17,6.32,0,2.67,.62,5.12,1.87,7.33,1.24,2.22,3.08,4,5.51,5.33,2.43,1.33,5.4,2,8.91,2,4.38,0,8.03-.82,10.96-2.45,2.25-1.26,4.28-3.08,6.1-5.45v6.55h9.5v-29.83c0-2.1-.09-4.04-.27-5.83s-.71-3.53-1.58-5.24Zm-9.99,25.56c-.36,1.11-1.06,2.29-2.09,3.55s-2.42,2.33-4.16,3.2-3.84,1.3-6.3,1.3c-1.71,0-3.14-.27-4.3-.81-1.16-.54-2.03-1.27-2.63-2.18-.6-.92-.9-1.97-.9-3.17,0-1.05,.23-1.96,.7-2.75,.46-.78,1.13-1.47,2-2.07,.87-.6,1.94-1.12,3.2-1.58,1.29-.42,2.77-.8,4.46-1.15,1.68-.34,3.69-.71,6.03-1.1,1.49-.25,3.2-.52,5.07-.82-.02,.83-.05,1.76-.09,2.82-.08,1.79-.4,3.37-.97,4.75Z" fill="#fff"/>
<path d="M503.96,1198.02c-.66-2.1-1.68-4.08-3.06-5.94-1.38-1.86-3.24-3.39-5.58-4.59-2.34-1.2-5.31-1.8-8.91-1.8-4.56,0-8.4,1-11.52,2.99-1.68,1.07-3.13,2.35-4.37,3.81v-5.41h-9.67v48.6h10.98v-24.97c0-2.97,.33-5.41,.99-7.31s1.54-3.41,2.63-4.5c1.09-1.09,2.32-1.87,3.67-2.32,1.35-.45,2.71-.67,4.09-.67,2.58,0,4.63,.56,6.14,1.67,1.51,1.11,2.65,2.53,3.42,4.25,.76,1.73,1.25,3.52,1.46,5.38,.21,1.86,.32,3.56,.32,5.08v23.4h10.98v-27.13c0-1.17-.1-2.69-.29-4.57-.2-1.88-.62-3.86-1.28-5.96Z" fill="#fff"/>
<path d="M550.78,1189.27c-3.53-2.35-7.81-3.53-12.85-3.53-4.77,0-8.97,1.08-12.6,3.24s-6.46,5.2-8.5,9.11c-2.04,3.92-3.06,8.53-3.06,13.84,0,4.92,1.04,9.27,3.13,13.05,2.08,3.78,4.99,6.74,8.71,8.87s8.04,3.19,12.96,3.19,8.96-1.21,12.85-3.64,6.76-5.83,8.62-10.21l-10.71-3.24c-1.05,2.25-2.54,3.97-4.48,5.15-1.94,1.19-4.24,1.78-6.91,1.78-4.14,0-7.29-1.35-9.45-4.05-1.69-2.12-2.71-4.93-3.08-8.42h35.16c.42-5.82-.23-10.87-1.94-15.17-1.71-4.29-4.33-7.61-7.85-9.97Zm-12.4,5.96c3.93,0,6.81,1.21,8.64,3.65,1.3,1.72,2.13,4.18,2.53,7.33h-23.88c.5-2.81,1.43-5.1,2.82-6.86,2.16-2.74,5.46-4.12,9.9-4.12Z" fill="#fff"/>
<path d="M608.04,1194.78c-1.59-3.21-4.03-5.52-7.31-6.93s-7.09-2.12-11.41-2.12c-5.73,0-10.28,1.25-13.66,3.74s-5.66,5.79-6.86,9.9l9.9,3.11c.81-2.49,2.23-4.25,4.28-5.26,2.04-1.02,4.15-1.53,6.34-1.53,3.63,0,6.21,.79,7.74,2.38,1.27,1.32,2,3.26,2.19,5.81-1.95,.29-3.87,.57-5.72,.83-3.08,.44-5.92,.91-8.55,1.42-2.62,.51-4.91,1.08-6.86,1.71-2.58,.87-4.68,1.99-6.3,3.35-1.62,1.37-2.82,2.99-3.6,4.86-.78,1.88-1.17,3.98-1.17,6.32,0,2.67,.62,5.12,1.87,7.33,1.24,2.22,3.08,4,5.51,5.33,2.43,1.33,5.4,2,8.91,2,4.38,0,8.03-.82,10.96-2.45,2.25-1.26,4.28-3.08,6.1-5.45v6.55h9.5v-29.83c0-2.1-.09-4.04-.27-5.83s-.71-3.53-1.58-5.24Zm-9.99,25.56c-.36,1.11-1.06,2.29-2.09,3.55s-2.42,2.33-4.16,3.2-3.84,1.3-6.3,1.3c-1.71,0-3.14-.27-4.3-.81-1.16-.54-2.03-1.27-2.63-2.18-.6-.92-.9-1.97-.9-3.17,0-1.05,.23-1.96,.7-2.75,.46-.78,1.13-1.47,2-2.07,.87-.6,1.94-1.12,3.2-1.58,1.29-.42,2.77-.8,4.46-1.15,1.68-.34,3.69-.71,6.03-1.1,1.49-.25,3.2-.52,5.07-.82-.02,.83-.05,1.76-.09,2.82-.08,1.79-.4,3.37-.97,4.75Z" fill="#fff"/>
<path d="M674.15,1185.87c-3.24,0-6.18,.72-8.82,2.16-2.49,1.36-4.47,3.23-5.99,5.59-1.2-2.25-2.89-4.06-5.06-5.43-2.45-1.54-5.48-2.32-9.11-2.32-3.3,0-6.28,.73-8.93,2.18-2.04,1.12-3.76,2.56-5.15,4.32v-5.28h-9.58v48.6h10.93v-29.92c0-3.03,.83-5.49,2.5-7.38,1.67-1.89,3.88-2.83,6.64-2.83s5.1,.94,6.75,2.83c1.65,1.89,2.47,4.53,2.47,7.92v29.38h10.8v-29.92c0-2.13,.41-3.97,1.21-5.51,.81-1.54,1.91-2.71,3.29-3.51s2.94-1.19,4.68-1.19c2.82,0,5.05,.94,6.71,2.81,1.65,1.88,2.47,4.48,2.47,7.81v29.52h10.84v-32.26c0-5.25-1.43-9.49-4.3-12.71-2.87-3.22-6.98-4.84-12.35-4.84Z" fill="#fff"/>
<path d="M736.04,1189.27c-3.53-2.35-7.81-3.53-12.85-3.53-4.77,0-8.97,1.08-12.6,3.24s-6.46,5.2-8.5,9.11c-2.04,3.92-3.06,8.53-3.06,13.84,0,4.92,1.04,9.27,3.13,13.05,2.08,3.78,4.99,6.74,8.71,8.87s8.04,3.19,12.96,3.19,8.96-1.21,12.85-3.64,6.76-5.83,8.62-10.21l-10.71-3.24c-1.05,2.25-2.54,3.97-4.48,5.15-1.94,1.19-4.24,1.78-6.91,1.78-4.14,0-7.29-1.35-9.45-4.05-1.69-2.12-2.71-4.93-3.08-8.42h35.16c.42-5.82-.23-10.87-1.94-15.17-1.71-4.29-4.33-7.61-7.85-9.97Zm-12.4,5.96c3.93,0,6.81,1.21,8.64,3.65,1.3,1.72,2.13,4.18,2.53,7.33h-23.88c.5-2.81,1.43-5.1,2.82-6.86,2.16-2.74,5.46-4.12,9.9-4.12Z" fill="#fff"/>
<rect x="760.41" y="1170.89" width="10.84" height="48.6" fill="#fff"/>
<rect x="760.41" y="1225.74" width="10.84" height="9.95" fill="#fff"/>
</g>
<g>
<path d="M414,440.75H244v170h170v-170Zm-40,130h-90v-90h90v90Z"/>
<rect x="309" y="505.75" width="40" height="40"/>
<path d="M756,440.75h-170v170h170v-170Zm-40,130h-90v-90h90v90Z"/>
<rect x="651" y="505.75" width="40" height="40"/>
<path d="M414,782.75H244v170h170v-170Zm-40,130h-90v-90h90v90Z"/>
<rect x="309" y="847.75" width="40" height="40"/>
<rect x="284" y="637.75" width="40" height="40"/>
<polygon points="363 717.75 363 757.75 403 757.75 403 717.75 364 717.75 364 677.75 324 677.75 324 717.75 363 717.75"/>
<rect x="524" y="517.75" width="40" height="40"/>
<rect x="444" y="480.75" width="40" height="77"/>
<rect x="484" y="440.75" width="40" height="40"/>
<polygon points="524 557.75 484 557.75 484 597.75 444 597.75 444 637.75 524 637.75 524 557.75"/>
<polygon points="484 757.75 484 796.75 524 796.75 524 835.75 604 835.75 604 795.75 524 795.75 524 756.75 484 756.75 484 677.75 444 677.75 444 757.75 484 757.75"/>
<rect x="524" y="637.75" width="40" height="80"/>
<path d="M644,756.75h112v-80h-40v-39h-73v40h-39v40h40v39Zm0-79h72v39h-72v-39Z"/>
<rect x="716" y="795.75" width="40" height="80"/>
<rect x="564" y="717.75" width="40" height="40"/>
<rect x="604" y="835.75" width="40" height="40"/>
<rect x="644" y="795.75" width="40" height="40"/>
<polygon points="684 952.75 684 915.75 716 915.75 716 875.75 644 875.75 644 952.75 684 952.75"/>
<rect x="444" y="796.75" width="40" height="76"/>
<polygon points="524 952.75 524 912.75 563 912.75 563 952.75 603 952.75 603 912.75 564 912.75 564 872.75 484 872.75 484 952.75 524 952.75"/>
<rect x="364" y="637.75" width="80" height="40"/>
<rect x="244" y="677.75" width="40" height="80"/>
</g>
</svg>