<?xml version="1.0" encoding="UTF-8"?>
<svg id="TEXTO" xmlns="http://www.w3.org/2000/svg" viewBox="0 0 1000 1300">
<rect x="110" y="110" width="780" height="780" rx="40" ry="40" fill="#e5e7ef"/>
<g>
<path d="M125.61,1081.49c-2.35-1.54-4.89-2.69-7.61-3.43-2.78,5.57-5.8,11.75-9.04,18.55-3.25,6.8-6.57,13.96-9.97,21.48s-6.82,15.26-10.25,23.24c-3.43,7.98-6.73,15.9-9.88,23.75,.31,.87,1.22,2.18,2.74,3.94s3.37,3.63,5.57,5.61c2.2,1.98,4.58,3.9,7.14,5.75s5.02,3.28,7.38,4.27c3.53-13.11,6.68-24.71,9.46-34.79,2.78-10.08,5.34-19.02,7.65-26.81,2.32-7.79,4.47-14.64,6.45-20.55,1.98-5.91,3.96-11.27,5.94-16.1-1.36-1.73-3.22-3.37-5.57-4.92Z"/>
<path d="M144.77,1050.78c-1.02-.74-2.17-1.51-3.43-2.32-1.27-.8-2.52-1.53-3.76-2.18-1.24-.65-2.4-1.19-3.48-1.62-1.08-.43-1.94-.65-2.55-.65-.37,0-1.08,.74-2.13,2.23-1.05,1.48-2.13,3.22-3.25,5.2-1.11,1.98-2.09,4.01-2.92,6.08-.83,2.07-1.25,3.66-1.25,4.78,0,.37,.74,1.02,2.23,1.95s3.17,1.86,5.06,2.78c1.88,.93,3.68,1.76,5.38,2.5,1.7,.74,2.8,1.11,3.29,1.11,.56,0,1.39-.77,2.5-2.32,1.11-1.54,2.26-3.29,3.43-5.24,1.17-1.95,2.19-3.8,3.06-5.57,.87-1.76,1.3-2.89,1.3-3.39,0-.25-.32-.68-.97-1.3-.65-.62-1.48-1.3-2.51-2.04Z"/>
<path d="M250.02,1020.44c-1.73,3.15-3.71,6.16-5.94,9-2.23,2.85-4.52,5.23-6.87,7.14l15.96,14.1c2.54-2.16,5.04-4.84,7.51-8.02,2.47-3.19,4.67-6.59,6.59-10.21,1.92-3.62,3.46-7.34,4.64-11.18,1.17-3.83,1.76-7.51,1.76-11.04,0-2.04-.71-4.34-2.13-6.91-1.42-2.57-3.19-5.1-5.29-7.61-2.1-2.5-4.38-4.81-6.82-6.91-2.44-2.1-4.72-3.71-6.82-4.82-2.54-1.3-6.99-1.95-13.36-1.95-3.84,0-7.79,.62-11.88,1.86-4.08,1.24-8.07,2.95-11.97,5.15-3.9,2.2-7.59,4.81-11.09,7.84-3.49,3.03-6.54,6.37-9.14,10.02-2.6,3.65-4.67,7.55-6.21,11.69-1.55,4.14-2.32,8.38-2.32,12.71,0,2.54,.25,4.82,.74,6.87,.49,2.04,1.16,3.88,2,5.52,.83,1.64,1.79,3.11,2.88,4.41s2.18,2.5,3.29,3.62c-6.12,2.91-11.86,6.32-17.21,10.25-5.35,3.93-10.02,8.32-14.01,13.17-3.99,4.86-7.13,10.16-9.42,15.91-2.29,5.75-3.43,11.88-3.43,18.37v2.23c.06,1.98,.59,4.11,1.58,6.4,.99,2.29,2.3,4.58,3.94,6.87,1.64,2.29,3.56,4.5,5.75,6.63s4.59,4.02,7.19,5.66c2.6,1.64,5.34,2.95,8.21,3.94,2.88,.99,5.77,1.48,8.67,1.48,3.34,0,7.02-.77,11.04-2.32,4.02-1.55,8.09-3.53,12.2-5.94s8.16-5.12,12.15-8.12c3.99-3,7.67-5.95,11.04-8.86,3.37-2.91,6.28-5.63,8.72-8.16,2.44-2.54,4.19-4.51,5.24-5.94-2.35-1.92-4.89-4.04-7.61-6.35-2.72-2.32-5.94-4.96-9.65-7.93-1.42,1.79-3.34,3.99-5.75,6.59s-5.15,5.33-8.21,8.21c-3.06,2.88-6.34,5.74-9.83,8.58-3.49,2.85-6.97,5.41-10.44,7.7-3.46,2.29-6.8,4.14-10.02,5.57-3.22,1.42-6.12,2.13-8.72,2.13-1.98,0-3.43-.73-4.36-2.18-.93-1.45-1.39-3.14-1.39-5.06,0-5.44,1.31-11.12,3.94-17.02,2.63-5.91,6.29-11.64,10.99-17.21,4.7-5.57,10.31-10.75,16.84-15.54,6.53-4.79,13.68-8.83,21.48-12.11-2.6-1.54-4.9-3.03-6.91-4.45-2.01-1.42-3.73-2.98-5.15-4.68-1.42-1.7-2.5-3.65-3.25-5.84-.74-2.19-1.11-4.81-1.11-7.84,0-3.53,.66-7.02,1.99-10.48,1.33-3.46,3.08-6.77,5.24-9.93,2.16-3.15,4.65-6.08,7.47-8.77,2.81-2.69,5.71-5.01,8.67-6.96s5.9-3.48,8.81-4.59c2.91-1.11,5.57-1.67,7.98-1.67,2.84,0,4.81,.79,5.89,2.37,1.08,1.58,1.62,3.51,1.62,5.8,0,2.85-.53,5.91-1.58,9.18-1.05,3.28-2.44,6.49-4.17,9.65Z"/>
<path d="M827.35,1107.93c-3.09,2.78-6.31,5.26-9.65,7.42-3.34,2.17-6.82,3.93-10.44,5.29-3.62,1.36-7.47,2.04-11.55,2.04-2.29,0-3.85-.34-4.69-1.02-.83-.68-1.25-1.98-1.25-3.9,0-1.42,.09-2.88,.28-4.36,5.44-2.41,10.42-4.81,14.94-7.19,4.51-2.38,8.38-4.72,11.6-7,3.21-2.29,5.71-4.53,7.47-6.73,1.76-2.19,2.64-4.34,2.64-6.45,0-1.3-.48-2.83-1.44-4.59-.96-1.76-2.21-3.45-3.76-5.06-1.55-1.61-3.26-2.97-5.15-4.08-1.89-1.11-3.79-1.67-5.71-1.67-2.66,0-5.57,.43-8.72,1.3-3.15,.87-6.32,2.17-9.51,3.9-3.19,1.73-6.25,3.9-9.19,6.49s-5.55,5.6-7.84,9c-2.29,3.4-4.13,7.22-5.52,11.46-.38,1.16-.71,2.36-.98,3.58-.01,.01-.03,.02-.04,.03-1.76,1.52-3.6,3.05-5.52,4.59-1.92,1.55-3.76,2.97-5.52,4.27-1.76,1.3-3.33,2.35-4.69,3.15-1.36,.8-2.38,1.21-3.06,1.21-.37,0-.56-.19-.56-.56,0-.68,.21-1.76,.65-3.25,.43-1.48,.99-3.21,1.67-5.2,.68-1.98,1.45-4.1,2.32-6.35,.87-2.26,1.73-4.51,2.6-6.77,.87-2.26,1.68-4.44,2.46-6.54,.77-2.1,1.41-3.93,1.9-5.47,.12-.43,.22-.79,.28-1.07,.06-.28,.09-.51,.09-.7,0-.93-.6-2.01-1.81-3.25-1.21-1.24-2.63-2.44-4.27-3.62-1.64-1.17-3.26-2.16-4.87-2.97-1.61-.8-2.81-1.21-3.62-1.21-.56,0-1.33,.25-2.32,.74-.99,.5-2.37,1.52-4.13,3.06-1.76,1.55-4.04,3.76-6.82,6.63s-6.25,6.7-10.39,11.46c.68-2.1,1.38-4.16,2.09-6.17,.71-2.01,1.44-4,2.18-5.98,.37-.93,.31-1.64-.19-2.13-.56-.62-1.52-1.41-2.88-2.37-1.36-.96-2.8-1.89-4.31-2.78-1.52-.9-2.94-1.65-4.27-2.27-1.33-.62-2.27-.93-2.83-.93-.93,.31-1.95,.77-3.06,1.39-1.11,.62-2.52,1.7-4.22,3.25-1.7,1.55-3.83,3.71-6.4,6.49s-5.8,6.49-9.7,11.13c.68-2.1,1.39-4.17,2.13-6.22s1.48-4.02,2.23-5.94c-2.66-2.41-5.58-4.51-8.77-6.31-3.19-1.79-6.08-3.31-8.67-4.55-1.61,3.59-3.12,7.31-4.55,11.18-1.42,3.87-2.72,7.65-3.9,11.36-.97,3.06-1.84,6-2.62,8.83-1.28,1.13-2.69,2.36-4.25,3.69-1.73,1.48-3.54,3-5.43,4.55-1.89,1.55-3.66,2.94-5.33,4.17-1.67,1.24-3.15,2.26-4.45,3.06-1.3,.8-2.23,1.21-2.78,1.21-.37,0-.56-.19-.56-.56,0-.68,.05-1.65,.14-2.92,.09-1.27,.34-2.8,.74-4.59,.4-1.79,.99-3.88,1.76-6.26,.77-2.38,1.87-5.02,3.29-7.93,0-.68-.26-1.65-.79-2.92-.53-1.27-1.16-2.58-1.9-3.94-.74-1.36-1.55-2.61-2.41-3.76-.87-1.14-1.64-1.96-2.32-2.46-.12-.06-.22-.06-.28,0s-.09,.12-.09,.19c-1.18,1.98-2.6,3.93-4.27,5.84-1.67,1.92-3.28,3.62-4.82,5.1-1.79,1.79-3.65,3.46-5.57,5.01-2.17,1.79-4.25,3.51-6.26,5.15-2.01,1.64-3.85,3.06-5.52,4.27s-3.17,2.17-4.5,2.88c-1.33,.71-2.43,1.07-3.29,1.07s-1.3-.52-1.3-1.58c0-1.42,.87-3.76,2.6-7,1.73-3.25,4.85-7.1,9.37-11.55,1.92-1.86,3.99-3.74,6.22-5.66,1.92-1.61,4.11-3.32,6.59-5.15,2.47-1.82,5.1-3.48,7.89-4.96l.19-.19c.06-.06,.06-.15,0-.28-.25-.37-.76-.85-1.53-1.44-.77-.59-1.67-1.17-2.69-1.76-1.02-.59-2.04-1.14-3.06-1.67-1.02-.52-1.9-.91-2.64-1.16-.19-.12-.32-.15-.42-.09-.09,.06-.2,.09-.32,.09-3.34,.99-6.53,2.32-9.55,3.99-3.03,1.67-5.72,3.31-8.07,4.92-2.78,1.92-5.38,3.96-7.79,6.12-4.7,4.27-8.41,8.43-11.13,12.48-.32,.47-.62,.93-.92,1.39-2.88,2.7-5.79,5.38-8.73,8.02-3.09,2.78-6.31,5.26-9.65,7.42-3.34,2.17-6.82,3.93-10.44,5.29-3.62,1.36-7.47,2.04-11.55,2.04-2.29,0-3.85-.34-4.69-1.02-.83-.68-1.25-1.98-1.25-3.9,0-1.42,.09-2.88,.28-4.36,5.44-2.41,10.42-4.81,14.94-7.19,4.51-2.38,8.38-4.72,11.6-7,3.21-2.29,5.71-4.53,7.47-6.73,1.76-2.19,2.64-4.34,2.64-6.45,0-1.3-.48-2.83-1.44-4.59-.96-1.76-2.21-3.45-3.76-5.06-1.55-1.61-3.26-2.97-5.15-4.08-1.89-1.11-3.79-1.67-5.71-1.67-2.66,0-5.57,.43-8.72,1.3-3.15,.87-6.32,2.17-9.51,3.9-3.19,1.73-6.25,3.9-9.19,6.49s-5.55,5.6-7.84,9c-2.29,3.4-4.13,7.22-5.52,11.46-.38,1.16-.71,2.36-.98,3.58-.01,.01-.03,.02-.04,.03-1.76,1.52-3.6,3.05-5.52,4.59-1.92,1.55-3.76,2.97-5.52,4.27-1.76,1.3-3.33,2.35-4.69,3.15-1.36,.8-2.38,1.21-3.06,1.21-.37,0-.56-.19-.56-.56,0-.68,.21-1.76,.65-3.25,.43-1.48,.99-3.21,1.67-5.2,.68-1.98,1.45-4.1,2.32-6.35,.87-2.26,1.73-4.51,2.6-6.77,.87-2.26,1.68-4.44,2.46-6.54,.77-2.1,1.41-3.93,1.9-5.47,.12-.43,.22-.79,.28-1.07,.06-.28,.09-.51,.09-.7,0-.93-.6-2.01-1.81-3.25-1.21-1.24-2.63-2.44-4.27-3.62-1.64-1.17-3.26-2.16-4.87-2.97-1.61-.8-2.81-1.21-3.62-1.21-.68,0-1.62,.29-2.83,.88-1.21,.59-2.78,1.69-4.73,3.29-1.95,1.61-4.33,3.82-7.14,6.63-2.81,2.81-6.17,6.45-10.07,10.9,.74-2.16,1.48-4.27,2.23-6.31s1.48-4.05,2.23-6.03c-2.72-2.41-5.67-4.51-8.86-6.31-3.19-1.79-6.08-3.31-8.67-4.55-1.61,3.59-3.11,7.31-4.5,11.18-1.39,3.87-2.67,7.65-3.85,11.36-.81,2.56-1.56,5.03-2.25,7.43-.35,.32-.73,.65-1.14,1.01-1.39,1.24-2.96,2.6-4.69,4.08-1.73,1.48-3.54,3-5.43,4.55-1.89,1.55-3.66,2.94-5.33,4.17-1.67,1.24-3.15,2.26-4.45,3.06-1.3,.8-2.23,1.21-2.78,1.21-.37,0-.56-.19-.56-.56,0-.68,.05-1.65,.14-2.92,.09-1.27,.34-2.8,.74-4.59,.4-1.79,.99-3.88,1.76-6.26,.77-2.38,1.87-5.02,3.29-7.93,0-.68-.26-1.65-.79-2.92-.53-1.27-1.16-2.58-1.9-3.94-.74-1.36-1.55-2.61-2.41-3.76-.87-1.14-1.64-1.96-2.32-2.46-.12-.06-.22-.06-.28,0s-.09,.12-.09,.19c-1.18,1.98-2.6,3.93-4.27,5.84-1.67,1.92-3.28,3.62-4.82,5.1-1.79,1.79-3.65,3.46-5.57,5.01-2.17,1.79-4.25,3.51-6.26,5.15-2.01,1.64-3.85,3.06-5.52,4.27s-3.17,2.17-4.5,2.88c-1.33,.71-2.43,1.07-3.29,1.07s-1.3-.52-1.3-1.58c0-1.42,.87-3.76,2.6-7,1.73-3.25,4.85-7.1,9.37-11.55,1.92-1.86,3.99-3.74,6.22-5.66,1.92-1.61,4.11-3.32,6.59-5.15,2.47-1.82,5.1-3.48,7.89-4.96l.19-.19c.06-.06,.06-.15,0-.28-.25-.37-.76-.85-1.53-1.44-.77-.59-1.67-1.17-2.69-1.76-1.02-.59-2.04-1.14-3.06-1.67-1.02-.52-1.9-.91-2.64-1.16-.19-.12-.32-.15-.42-.09-.09,.06-.2,.09-.32,.09-3.34,.99-6.53,2.32-9.55,3.99-3.03,1.67-5.72,3.31-8.07,4.92-2.78,1.92-5.38,3.96-7.79,6.12-4.7,4.27-8.41,8.43-11.13,12.48-.33,.49-.65,.97-.95,1.45-2.76,2.63-5.69,5.25-8.79,7.88-3.22,2.72-6.6,5.18-10.16,7.38-3.56,2.2-7.27,3.99-11.13,5.38-3.87,1.39-7.87,2.09-12.02,2.09-1.67,0-2.91-.26-3.71-.79-.8-.52-1.21-1.47-1.21-2.83,0-2.29,.31-4.82,.93-7.61,.62-2.78,1.44-5.57,2.46-8.35,1.02-2.78,2.21-5.49,3.57-8.12,1.36-2.63,2.78-4.96,4.27-7s2.97-3.68,4.45-4.92c1.48-1.24,2.91-1.86,4.27-1.86,.49,0,.88,.19,1.16,.56,.28,.37,.42,.83,.42,1.39,0,1.11-.46,2.46-1.39,4.04s-1.96,3.15-3.11,4.73-2.18,3.03-3.11,4.36c-.93,1.33-1.39,2.33-1.39,3.01,0,.62,.53,.93,1.58,.93,1.79,0,3.9-.4,6.31-1.21,2.41-.8,4.71-1.81,6.91-3.01,2.19-1.21,4.1-2.5,5.71-3.9,1.61-1.39,2.56-2.67,2.88-3.85,0-.93-.29-1.99-.88-3.2s-1.35-2.44-2.27-3.71c-.93-1.27-1.96-2.52-3.11-3.76-1.14-1.24-2.27-2.35-3.39-3.34-1.11-.99-2.15-1.78-3.11-2.37-.96-.59-1.72-.88-2.27-.88-3.71,0-7.36,.59-10.95,1.76-3.59,1.18-6.96,2.78-10.11,4.82s-6.08,4.47-8.77,7.28c-2.69,2.81-4.99,5.83-6.91,9.04-1.92,3.22-3.42,6.6-4.5,10.16-.27,.88-.5,1.77-.71,2.65-2.41,2.04-5.16,4.22-8.25,6.53-3.09,2.32-6.22,4.41-9.37,6.26,1.61-2.04,2.74-4.34,3.39-6.91,.65-2.57,.97-4.84,.97-6.82,0-3.28-.2-6.17-.6-8.67s-.77-4.87-1.11-7.1-.53-4.48-.56-6.77c-.03-2.29,.32-4.85,1.07-7.7,0-.25-.57-.94-1.72-2.09-1.14-1.14-2.46-2.4-3.94-3.76-1.48-1.36-2.97-2.64-4.45-3.85s-2.6-2.03-3.34-2.46c-.5,0-1.05,.43-1.67,1.3-.62,.87-1.25,1.95-1.9,3.25-.65,1.3-1.24,2.74-1.76,4.31s-.91,3.08-1.16,4.5c-.93,2.72-2.18,5.26-3.76,7.61-1.58,2.35-3.28,4.55-5.1,6.59s-3.65,3.93-5.47,5.66c-1.82,1.73-3.45,3.28-4.87,4.64l4.45,4.55c1.11-.99,2.37-2.12,3.76-3.39,1.39-1.27,2.78-2.57,4.17-3.9,1.39-1.33,2.77-2.67,4.13-4.04s2.57-2.66,3.62-3.9c.31,2.29,.59,4.65,.83,7.1,.25,2.44,.37,4.96,.37,7.56,0,1.79-.15,3.5-.46,5.1-.31,1.61-.8,3.03-1.48,4.27-.68,1.24-1.53,2.23-2.55,2.97-1.02,.74-2.24,1.11-3.66,1.11-2.6,0-4.45-.28-5.57-.83s-1.86-.83-2.23-.83c-.19,0-.45,.17-.79,.51-.34,.34-.68,.73-1.02,1.16-.34,.43-.63,.85-.88,1.25-.25,.4-.37,.67-.37,.79,.25,.93,1.08,2.07,2.5,3.43,1.42,1.36,3.09,2.66,5.01,3.9,1.92,1.24,3.96,2.29,6.12,3.15,2.16,.87,4.14,1.3,5.94,1.3,2.1,0,4.36-.43,6.77-1.3,2.41-.87,4.92-2.04,7.51-3.53s5.23-3.18,7.89-5.1c2.66-1.92,5.27-3.93,7.84-6.03,.27-.22,.54-.45,.81-.68,.03,.84,.08,1.56,.17,2.16,.12,.87,.37,1.64,.74,2.32,.93,1.79,2.09,3.51,3.48,5.15,1.39,1.64,2.83,3.06,4.31,4.27s2.94,2.16,4.36,2.88c1.42,.71,2.69,1.07,3.8,1.07,5.69,0,11.15-.79,16.38-2.37s10.22-3.71,14.98-6.4c4.65-2.63,9.08-5.71,13.29-9.22-.16,.62-.3,1.21-.39,1.75-.37,2.1-.56,3.34-.56,3.71,0,1.3,.36,2.6,1.07,3.9s1.56,2.46,2.55,3.48c.99,1.02,1.99,1.84,3.02,2.46,1.02,.62,1.84,.93,2.46,.93h.56c.19,0,.43-.06,.74-.19,2.6-.87,5.43-2.15,8.49-3.85,3.06-1.7,6.11-3.6,9.14-5.71,3.03-2.1,5.92-4.33,8.67-6.68,2.75-2.35,5.15-4.61,7.19-6.77-.74,2.41-1.3,4.44-1.67,6.08-.37,1.64-.62,3.03-.74,4.17-.12,1.15-.17,2.07-.14,2.78,.03,.71,.05,1.31,.05,1.81,0,1.3,.37,2.47,1.11,3.53,.74,1.05,1.67,1.96,2.78,2.74,1.11,.77,2.33,1.38,3.66,1.81,1.33,.43,2.55,.65,3.66,.65,1.61,0,3.49-.51,5.66-1.53,2.16-1.02,4.45-2.34,6.87-3.94,2.41-1.61,4.88-3.45,7.42-5.52,2.54-2.07,4.99-4.16,7.38-6.26,.85-.75,1.68-1.49,2.49-2.22-.04,.17-.08,.34-.12,.51-.62,2.63-1.1,4.81-1.44,6.54-.34,1.73-.51,2.78-.51,3.15,1.11,1.18,2.37,2.35,3.76,3.53,1.39,1.17,2.78,2.24,4.18,3.2,1.39,.96,2.75,1.73,4.08,2.32,1.33,.59,2.52,.88,3.57,.88,.87,0,1.45-.25,1.76-.74,.31-.5,.65-1.18,1.02-2.04,2.97-6.99,6-13.03,9.09-18.14,3.09-5.1,6.03-9.46,8.81-13.08s5.27-6.59,7.47-8.91,3.88-4.19,5.06-5.61l.19-.19c-1.11,2.78-2.27,5.83-3.48,9.14-1.21,3.31-2.37,6.65-3.48,10.02-1.11,3.37-2.15,6.67-3.11,9.88-.96,3.22-1.72,6.09-2.27,8.63,0,1.11,.46,2.26,1.39,3.43,.93,1.18,2.05,2.24,3.38,3.2,1.33,.96,2.71,1.76,4.13,2.41,1.42,.65,2.6,.97,3.53,.97,1.42,0,3.19-.5,5.29-1.48,2.1-.99,4.36-2.29,6.77-3.9,2.41-1.61,4.9-3.43,7.47-5.47,2.03-1.61,3.98-3.23,5.9-4.84,0,.16,0,.32,0,.48,0,1.36,.59,3,1.76,4.92,1.18,1.92,2.64,3.76,4.41,5.52,1.76,1.76,3.66,3.26,5.71,4.5,2.04,1.24,3.9,1.86,5.57,1.86,3.96,0,8.03-.5,12.2-1.48,4.17-.99,8.55-2.63,13.13-4.92,4.58-2.29,9.38-5.32,14.43-9.09,1.24-.93,2.51-1.92,3.79-2.95-.25,.86-.46,1.67-.59,2.4-.37,2.1-.56,3.34-.56,3.71,0,1.3,.36,2.6,1.07,3.9s1.56,2.46,2.55,3.48c.99,1.02,1.99,1.84,3.02,2.46,1.02,.62,1.84,.93,2.46,.93h.56c.19,0,.43-.06,.74-.19,2.6-.87,5.43-2.15,8.49-3.85,3.06-1.7,6.11-3.6,9.14-5.71,3.03-2.1,5.92-4.33,8.67-6.68,2.75-2.35,5.15-4.61,7.19-6.77-.74,2.41-1.3,4.44-1.67,6.08-.37,1.64-.62,3.03-.74,4.17-.12,1.15-.17,2.07-.14,2.78,.03,.71,.05,1.31,.05,1.81,0,1.3,.37,2.47,1.11,3.53,.74,1.05,1.67,1.96,2.78,2.74,1.11,.77,2.33,1.38,3.66,1.81,1.33,.43,2.55,.65,3.66,.65,1.61,0,3.49-.51,5.66-1.53,2.16-1.02,4.45-2.34,6.87-3.94,2.41-1.61,4.88-3.45,7.42-5.52,2.54-2.07,4.99-4.16,7.38-6.26,.36-.32,.72-.64,1.08-.96-.53,2.28-.96,4.22-1.26,5.78-.34,1.73-.51,2.78-.51,3.15,1.11,1.18,2.37,2.35,3.76,3.53,1.39,1.17,2.78,2.24,4.18,3.2,1.39,.96,2.75,1.73,4.08,2.32,1.33,.59,2.52,.88,3.57,.88,1.36,0,2.23-.65,2.6-1.95,2.35-5.94,4.85-11.26,7.51-15.96,2.66-4.7,5.26-8.83,7.79-12.38,2.54-3.56,4.92-6.59,7.14-9.09s4.08-4.56,5.57-6.17c-1.55,4.45-2.94,8.78-4.18,12.99-1.24,4.21-2.3,8.01-3.2,11.41-.9,3.4-1.58,6.2-2.04,8.4-.46,2.2-.7,3.51-.7,3.94,1.11,1.24,2.3,2.29,3.57,3.15,1.27,.87,2.5,1.59,3.71,2.18,1.21,.59,2.35,1.02,3.43,1.3s2,.42,2.74,.42c1.42,0,2.32-.62,2.69-1.86,2.97-7.3,5.94-13.48,8.91-18.55,2.97-5.07,5.75-9.32,8.35-12.76s4.92-6.2,6.96-8.3c2.04-2.1,3.68-3.9,4.92-5.38-1.11,2.78-2.27,5.81-3.48,9.09-1.21,3.28-2.37,6.6-3.48,9.97-1.11,3.37-2.13,6.67-3.06,9.88-.93,3.22-1.67,6.09-2.23,8.63,0,1.11,.46,2.26,1.39,3.43,.93,1.18,2.04,2.24,3.34,3.2,1.3,.96,2.66,1.76,4.08,2.41,1.42,.65,2.6,.97,3.53,.97,1.48,0,3.28-.5,5.38-1.48,2.1-.99,4.36-2.29,6.77-3.9,2.41-1.61,4.9-3.43,7.47-5.47,2.03-1.61,3.98-3.23,5.9-4.84,0,.16,0,.32,0,.48,0,1.36,.59,3,1.76,4.92,1.18,1.92,2.64,3.76,4.41,5.52,1.76,1.76,3.66,3.26,5.71,4.5,2.04,1.24,3.9,1.86,5.57,1.86,3.96,0,8.03-.5,12.2-1.48,4.17-.99,8.55-2.63,13.13-4.92,4.58-2.29,9.38-5.32,14.43-9.09,5.04-3.77,10.4-8.44,16.1-14.01l-4.54-4.55c-3.03,2.85-6.09,5.66-9.19,8.44Zm-31.73-12.38c1.36-2.81,2.78-5.3,4.27-7.47,1.48-2.16,2.97-3.91,4.45-5.24,1.48-1.33,2.84-2,4.08-2,.68,0,1.19,.22,1.53,.65,.34,.43,.51,.93,.51,1.48,0,1.92-.53,3.84-1.58,5.75-1.05,1.92-2.45,3.79-4.18,5.61-1.73,1.82-3.7,3.57-5.89,5.24s-4.44,3.25-6.73,4.73c.99-3.03,2.16-5.95,3.53-8.77Zm-246.04,0c1.36-2.81,2.78-5.3,4.27-7.47,1.48-2.16,2.97-3.91,4.45-5.24,1.48-1.33,2.84-2,4.08-2,.68,0,1.19,.22,1.53,.65,.34,.43,.51,.93,.51,1.48,0,1.92-.53,3.84-1.58,5.75-1.05,1.92-2.45,3.79-4.18,5.61-1.73,1.82-3.7,3.57-5.89,5.24s-4.44,3.25-6.73,4.73c.99-3.03,2.16-5.95,3.53-8.77Z"/>
<path d="M909.97,1006.48c-1.52-1.76-3.36-3.63-5.52-5.61-2.17-1.98-4.53-3.9-7.1-5.75s-5.06-3.28-7.47-4.27c-3.53,13.11-6.66,24.71-9.42,34.79-2.75,10.08-5.29,19.02-7.61,26.81-2.32,7.79-4.48,14.64-6.49,20.55-2.01,5.91-3.97,11.24-5.89,16,1.36,1.73,3.21,3.37,5.57,4.92,2.35,1.55,4.85,2.72,7.51,3.53,2.78-5.57,5.81-11.75,9.09-18.55,3.28-6.8,6.62-13.96,10.02-21.48,3.4-7.51,6.8-15.25,10.21-23.19,3.4-7.95,6.68-15.88,9.83-23.8-.31-.87-1.22-2.18-2.74-3.94Z"/>
<path d="M869.15,1113.63c-.65-.59-1.48-1.25-2.51-2-1.02-.74-2.16-1.53-3.43-2.37s-2.52-1.58-3.76-2.23c-1.24-.65-2.4-1.19-3.48-1.62-1.08-.43-1.93-.65-2.55-.65-.37,0-1.07,.74-2.09,2.23-1.02,1.48-2.09,3.22-3.2,5.2-1.11,1.98-2.09,4.01-2.92,6.08-.84,2.07-1.25,3.66-1.25,4.78,0,.25,.36,.62,1.07,1.11,.71,.5,1.59,1.05,2.64,1.67,1.05,.62,2.23,1.27,3.53,1.95,1.3,.68,2.54,1.28,3.71,1.81,1.17,.52,2.23,.96,3.15,1.3,.93,.34,1.54,.51,1.86,.51,.49,0,1.31-.77,2.46-2.32,1.14-1.55,2.29-3.29,3.43-5.24s2.15-3.8,3.02-5.57c.87-1.76,1.3-2.89,1.3-3.39,0-.25-.33-.66-.97-1.25Z"/>
</g>
<g>
<path d="M414.58,244H244.58v170h170V244Zm-40,130h-90v-90h90v90Z"/>
<rect x="309.58" y="309" width="40" height="40"/>
<path d="M756.58,244h-170v170h170V244Zm-40,130h-90v-90h90v90Z"/>
<rect x="651.58" y="309" width="40" height="40"/>
<path d="M414.58,586H244.58v170h170v-170Zm-40,130h-90v-90h90v90Z"/>
<rect x="309.58" y="651" width="40" height="40"/>
<rect x="284.58" y="441" width="40" height="40"/>
<polygon points="363.58 521 363.58 561 403.58 561 403.58 521 364.58 521 364.58 481 324.58 481 324.58 521 363.58 521"/>
<rect x="524.58" y="321" width="40" height="40"/>
<rect x="444.58" y="284" width="40" height="77"/>
<rect x="484.58" y="244" width="40" height="40"/>
<polygon points="524.58 361 484.58 361 484.58 401 444.58 401 444.58 441 524.58 441 524.58 361"/>
<polygon points="484.58 561 484.58 600 524.58 600 524.58 639 604.58 639 604.58 599 524.58 599 524.58 560 484.58 560 484.58 481 444.58 481 444.58 561 484.58 561"/>
<rect x="524.58" y="441" width="40" height="80"/>
<path d="M644.58,560h112v-80h-40v-39h-73v40h-39v40h40v39Zm0-79h72v39h-72v-39Z"/>
<rect x="716.58" y="599" width="40" height="80"/>
<rect x="564.58" y="521" width="40" height="40"/>
<rect x="604.58" y="639" width="40" height="40"/>
<rect x="644.58" y="599" width="40" height="40"/>
<polygon points="684.58 756 684.58 719 716.58 719 716.58 679 644.58 679 644.58 756 684.58 756"/>
<rect x="444.58" y="600" width="40" height="76"/>
<polygon points="524.58 756 524.58 716 563.58 716 563.58 756 603.58 756 603.58 716 564.58 716 564.58 676 484.58 676 484.58 756 524.58 756"/>
<rect x="364.58" y="441" width="80" height="40"/>
<rect x="244.58" y="481" width="40" height="80"/>
</g>
</svg>