<?xml version="1.0" encoding="UTF-8"?>
<svg id="TEXTO" xmlns="http://www.w3.org/2000/svg" viewBox="0 0 1000 1300">
<g>
<rect x="207.12" y="158.83" width="585.77" height="585.77" rx="22.97" ry="22.97" fill="#e5e7ef"/>
<polygon points="864.31 551.09 980.65 652.92 869.6 740.63 864.31 551.09"/>
<polygon points="135.69 551.09 19.35 652.92 130.4 740.63 135.69 551.09"/>
<path d="M878.8,539.58V116.77c0-24.22-19.63-43.85-43.85-43.85H165.06c-24.22,0-43.85,19.63-43.85,43.85v422.81L1.38,632.35v599.37c0,37.48,30.49,67.97,67.97,67.97H930.65c37.48,0,67.97-30.49,67.97-67.97V632.35l-119.82-92.77Zm83.89,149.97v458.25l-295.94-229.13,295.94-229.13Zm-3.79-42.51l-80.1,62.02v-124.03l80.1,62.02ZM165.06,105.8H834.94c6.04,0,10.96,4.92,10.96,10.96V734.52l-208.51,161.43-94.56-73.21c-25.22-19.53-60.44-19.52-85.66,0l-94.56,73.21-208.51-161.43V116.77c0-6.05,4.92-10.96,10.96-10.96Zm168.2,812.87L37.31,1147.8v-458.25l295.94,229.13Zm-212.05-209.62l-80.1-62.02,80.1-62.02v124.03Zm809.45,554.69H69.35c-17.66,0-32.03-14.37-32.03-32.03v-38.47l441.86-342.09c12.26-9.5,29.4-9.5,41.66,0l441.85,342.09v38.47c0,17.66-14.37,32.03-32.03,32.03Z"/>
</g>
<g>
<rect x="228.74" y="1154.92" width="10.84" height="48.6"/>
<rect x="228.74" y="1138.72" width="10.84" height="9.94"/>
<polygon points="256.69 1187.32 298.54 1187.32 298.54 1177.15 267.53 1177.15 267.53 1158.83 293.14 1158.83 293.14 1148.66 267.53 1148.66 267.53 1132.69 298.54 1132.69 298.54 1122.52 256.69 1122.52 256.69 1187.32"/>
<path d="M341.58,1161.96c-2.33-1.28-5.42-2.41-9.29-3.4-3.78-.96-6.62-1.77-8.53-2.43-1.91-.66-3.17-1.32-3.8-1.98-.63-.66-.95-1.46-.95-2.38,0-1.65,.78-2.93,2.34-3.85,1.56-.92,3.61-1.3,6.17-1.15,2.67,.15,4.81,.83,6.41,2.03,1.6,1.2,2.54,2.83,2.81,4.9l11.07-1.98c-.42-2.91-1.53-5.45-3.33-7.61-1.8-2.16-4.16-3.83-7.09-5s-6.28-1.75-10.06-1.75-7.23,.61-10.08,1.82c-2.85,1.22-5.07,2.95-6.66,5.2s-2.38,4.89-2.38,7.92c0,2.43,.52,4.5,1.58,6.21,1.05,1.71,2.77,3.19,5.17,4.43,2.4,1.24,5.64,2.41,9.72,3.49,3.66,.96,6.38,1.76,8.15,2.38,1.77,.63,2.92,1.28,3.44,1.96,.52,.67,.79,1.57,.79,2.68,0,1.8-.71,3.22-2.14,4.25-1.43,1.04-3.44,1.55-6.05,1.55-2.97,0-5.43-.69-7.38-2.07-1.95-1.38-3.21-3.27-3.78-5.67l-11.07,1.71c.81,4.89,3.09,8.69,6.84,11.38,3.75,2.7,8.62,4.05,14.62,4.05s11.18-1.39,14.74-4.19c3.55-2.79,5.33-6.63,5.33-11.52,0-2.52-.52-4.66-1.55-6.44-1.03-1.77-2.71-3.29-5.04-4.57Z"/>
<path d="M372.2,1149.54c1.83-1.33,4.16-2,6.98-2,2.49,0,4.71,.73,6.66,2.18,1.95,1.46,3.34,3.49,4.18,6.1l10.8-2.92c-1.17-4.8-3.67-8.59-7.49-11.36-3.83-2.78-8.5-4.16-14.02-4.16-4.92,0-9.17,1.1-12.74,3.31s-6.32,5.24-8.26,9.09c-1.94,3.86-2.92,8.27-2.95,13.25,.03,4.89,.98,9.27,2.86,13.14,1.88,3.87,4.58,6.92,8.12,9.16,3.54,2.24,7.81,3.35,12.83,3.35,5.43,0,10.02-1.33,13.77-3.98s6.38-6.46,7.88-11.41l-11.07-2.47c-.84,2.49-2.09,4.39-3.76,5.71s-3.94,1.98-6.82,1.98c-4.08,0-7.16-1.42-9.23-4.28-2.07-2.85-3.1-6.58-3.1-11.21,0-2.97,.43-5.62,1.3-7.96,.87-2.34,2.22-4.18,4.05-5.51Z"/>
<path d="M447.39,1146.41c-1.59-3.21-4.03-5.52-7.31-6.93s-7.09-2.12-11.41-2.12c-5.73,0-10.28,1.25-13.66,3.74s-5.66,5.79-6.86,9.9l9.9,3.11c.81-2.49,2.23-4.25,4.28-5.26,2.04-1.02,4.15-1.53,6.34-1.53,3.63,0,6.21,.79,7.74,2.38,1.27,1.32,2,3.26,2.19,5.81-1.95,.29-3.87,.57-5.72,.83-3.08,.44-5.92,.91-8.55,1.42-2.62,.51-4.91,1.08-6.86,1.71-2.58,.87-4.68,1.99-6.3,3.35-1.62,1.37-2.82,2.99-3.6,4.86s-1.17,3.98-1.17,6.32c0,2.67,.62,5.12,1.87,7.33,1.24,2.22,3.08,4,5.51,5.33,2.43,1.33,5.4,2,8.91,2,4.38,0,8.03-.82,10.96-2.45,2.25-1.26,4.28-3.08,6.1-5.45v6.55h9.5v-29.84c0-2.1-.09-4.04-.27-5.83s-.71-3.53-1.58-5.24Zm-9.99,25.56c-.36,1.11-1.06,2.29-2.09,3.55s-2.42,2.33-4.16,3.2c-1.74,.87-3.84,1.3-6.3,1.3-1.71,0-3.14-.27-4.3-.81-1.16-.54-2.03-1.27-2.63-2.18-.6-.91-.9-1.97-.9-3.17,0-1.05,.23-1.96,.7-2.75,.46-.78,1.13-1.47,2-2.07,.87-.6,1.94-1.12,3.2-1.58,1.29-.42,2.77-.8,4.46-1.15,1.68-.35,3.69-.71,6.03-1.1,1.49-.25,3.2-.52,5.07-.82-.02,.83-.05,1.76-.09,2.82-.08,1.79-.4,3.37-.97,4.75Z"/>
<path d="M503.96,1149.65c-.66-2.1-1.68-4.08-3.06-5.94-1.38-1.86-3.24-3.39-5.58-4.59-2.34-1.2-5.31-1.8-8.91-1.8-4.56,0-8.4,1-11.52,2.99-1.68,1.07-3.13,2.35-4.37,3.81v-5.41h-9.67v48.6h10.98v-24.97c0-2.97,.33-5.41,.99-7.31,.66-1.91,1.54-3.41,2.63-4.5,1.09-1.09,2.32-1.87,3.67-2.32,1.35-.45,2.71-.67,4.09-.67,2.58,0,4.63,.56,6.14,1.67,1.51,1.11,2.65,2.53,3.42,4.25,.76,1.73,1.25,3.52,1.46,5.38,.21,1.86,.32,3.56,.32,5.09v23.4h10.98v-27.13c0-1.17-.1-2.69-.29-4.57-.2-1.88-.62-3.86-1.28-5.96Z"/>
<path d="M550.78,1140.9c-3.53-2.35-7.81-3.53-12.85-3.53-4.77,0-8.97,1.08-12.6,3.24s-6.46,5.2-8.5,9.11c-2.04,3.92-3.06,8.53-3.06,13.84,0,4.92,1.04,9.27,3.13,13.05,2.08,3.78,4.99,6.74,8.71,8.87,3.72,2.13,8.04,3.2,12.96,3.2s8.96-1.21,12.85-3.64,6.76-5.84,8.62-10.21l-10.71-3.24c-1.05,2.25-2.54,3.97-4.48,5.15-1.94,1.19-4.24,1.78-6.91,1.78-4.14,0-7.29-1.35-9.45-4.05-1.69-2.12-2.71-4.93-3.08-8.41h35.16c.42-5.82-.23-10.87-1.94-15.17-1.71-4.29-4.33-7.61-7.85-9.97Zm-12.4,5.96c3.93,0,6.81,1.21,8.64,3.65,1.3,1.72,2.13,4.18,2.53,7.34h-23.89c.5-2.81,1.43-5.1,2.82-6.86,2.16-2.74,5.46-4.12,9.9-4.12Z"/>
<path d="M608.04,1146.41c-1.59-3.21-4.03-5.52-7.31-6.93s-7.09-2.12-11.41-2.12c-5.73,0-10.28,1.25-13.66,3.74s-5.66,5.79-6.86,9.9l9.9,3.11c.81-2.49,2.23-4.25,4.28-5.26,2.04-1.02,4.15-1.53,6.34-1.53,3.63,0,6.21,.79,7.74,2.38,1.27,1.32,2,3.26,2.19,5.81-1.95,.29-3.87,.57-5.72,.83-3.08,.44-5.92,.91-8.55,1.42-2.62,.51-4.91,1.08-6.86,1.71-2.58,.87-4.68,1.99-6.3,3.35-1.62,1.37-2.82,2.99-3.6,4.86s-1.17,3.98-1.17,6.32c0,2.67,.62,5.12,1.87,7.33,1.24,2.22,3.08,4,5.51,5.33,2.43,1.33,5.4,2,8.91,2,4.38,0,8.03-.82,10.96-2.45,2.25-1.26,4.28-3.08,6.1-5.45v6.55h9.5v-29.84c0-2.1-.09-4.04-.27-5.83s-.71-3.53-1.58-5.24Zm-9.99,25.56c-.36,1.11-1.06,2.29-2.09,3.55s-2.42,2.33-4.16,3.2c-1.74,.87-3.84,1.3-6.3,1.3-1.71,0-3.14-.27-4.3-.81-1.16-.54-2.03-1.27-2.63-2.18-.6-.91-.9-1.97-.9-3.17,0-1.05,.23-1.96,.7-2.75,.46-.78,1.13-1.47,2-2.07,.87-.6,1.94-1.12,3.2-1.58,1.29-.42,2.77-.8,4.46-1.15,1.68-.35,3.69-.71,6.03-1.1,1.49-.25,3.2-.52,5.07-.82-.02,.83-.05,1.76-.09,2.82-.08,1.79-.4,3.37-.97,4.75Z"/>
<path d="M674.15,1137.5c-3.24,0-6.18,.72-8.82,2.16-2.49,1.36-4.47,3.23-5.99,5.59-1.2-2.25-2.89-4.06-5.06-5.43-2.45-1.54-5.48-2.32-9.11-2.32-3.3,0-6.28,.73-8.93,2.18-2.04,1.12-3.76,2.56-5.15,4.32v-5.28h-9.58v48.6h10.93v-29.93c0-3.03,.83-5.49,2.5-7.38,1.67-1.89,3.88-2.83,6.64-2.83s5.1,.94,6.75,2.83c1.65,1.89,2.47,4.53,2.47,7.92v29.38h10.8v-29.93c0-2.13,.41-3.97,1.21-5.51,.81-1.54,1.91-2.71,3.29-3.51s2.94-1.19,4.68-1.19c2.82,0,5.05,.94,6.71,2.81,1.65,1.88,2.47,4.48,2.47,7.81v29.52h10.84v-32.27c0-5.25-1.43-9.49-4.3-12.71-2.87-3.22-6.98-4.84-12.35-4.84Z"/>
<path d="M736.04,1140.9c-3.53-2.35-7.81-3.53-12.85-3.53-4.77,0-8.97,1.08-12.6,3.24s-6.46,5.2-8.5,9.11c-2.04,3.92-3.06,8.53-3.06,13.84,0,4.92,1.04,9.27,3.13,13.05,2.08,3.78,4.99,6.74,8.71,8.87,3.72,2.13,8.04,3.2,12.96,3.2s8.96-1.21,12.85-3.64,6.76-5.84,8.62-10.21l-10.71-3.24c-1.05,2.25-2.54,3.97-4.48,5.15-1.94,1.19-4.24,1.78-6.91,1.78-4.14,0-7.29-1.35-9.45-4.05-1.69-2.12-2.71-4.93-3.08-8.41h35.16c.42-5.82-.23-10.87-1.94-15.17-1.71-4.29-4.33-7.61-7.85-9.97Zm-12.4,5.96c3.93,0,6.81,1.21,8.64,3.65,1.3,1.72,2.13,4.18,2.53,7.34h-23.89c.5-2.81,1.43-5.1,2.82-6.86,2.16-2.74,5.46-4.12,9.9-4.12Z"/>
<rect x="760.41" y="1122.52" width="10.84" height="48.6"/>
<rect x="760.41" y="1177.37" width="10.84" height="9.95"/>
</g>
<g>
<path d="M432.81,253.82h-132.81v132.81h132.81V253.82Zm-31.25,101.56h-70.31v-70.31h70.31v70.31Z"/>
<rect x="350.78" y="304.6" width="31.25" height="31.25"/>
<path d="M700,253.82h-132.81v132.81h132.81V253.82Zm-31.25,101.56h-70.31v-70.31h70.31v70.31Z"/>
<rect x="617.97" y="304.6" width="31.25" height="31.25"/>
<path d="M432.81,521.01h-132.81v132.81h132.81v-132.81Zm-31.25,101.56h-70.31v-70.31h70.31v70.31Z"/>
<rect x="350.78" y="571.79" width="31.25" height="31.25"/>
<rect x="331.25" y="407.73" width="31.25" height="31.25"/>
<polygon points="392.97 470.23 392.97 501.48 424.22 501.48 424.22 470.23 393.75 470.23 393.75 438.98 362.5 438.98 362.5 470.23 392.97 470.23"/>
<rect x="518.75" y="313.98" width="31.25" height="31.25"/>
<rect x="456.25" y="285.07" width="31.25" height="60.16"/>
<rect x="487.5" y="253.82" width="31.25" height="31.25"/>
<polygon points="518.75 345.23 487.5 345.23 487.5 376.48 456.25 376.48 456.25 407.73 518.75 407.73 518.75 345.23"/>
<polygon points="487.5 501.48 487.5 531.94 518.75 531.94 518.75 562.41 581.25 562.41 581.25 531.16 518.75 531.16 518.75 500.69 487.5 500.69 487.5 438.98 456.25 438.98 456.25 501.48 487.5 501.48"/>
<rect x="518.75" y="407.73" width="31.25" height="62.5"/>
<path d="M612.5,500.69h87.5v-62.5h-31.25v-30.47h-57.03v31.25h-30.47v31.25h31.25v30.47Zm0-61.72h56.25v30.47h-56.25v-30.47Z"/>
<rect x="668.75" y="531.16" width="31.25" height="62.5"/>
<rect x="550" y="470.23" width="31.25" height="31.25"/>
<rect x="581.25" y="562.41" width="31.25" height="31.25"/>
<rect x="612.5" y="531.16" width="31.25" height="31.25"/>
<polygon points="643.75 653.82 643.75 624.91 668.75 624.91 668.75 593.66 612.5 593.66 612.5 653.82 643.75 653.82"/>
<rect x="456.25" y="531.94" width="31.25" height="59.38"/>
<polygon points="518.75 653.82 518.75 622.57 549.22 622.57 549.22 653.82 580.47 653.82 580.47 622.57 550 622.57 550 591.32 487.5 591.32 487.5 653.82 518.75 653.82"/>
<rect x="393.75" y="407.73" width="62.5" height="31.25"/>
<rect x="300" y="438.98" width="31.25" height="62.5"/>
</g>
</svg>