<?xml version="1.0" encoding="UTF-8"?>
<svg id="TEXTO" xmlns="http://www.w3.org/2000/svg" viewBox="0 0 1000 1300">
<g>
<g>
<rect x="138.09" y="276.19" width="723.82" height="723.82" rx="34.48" ry="34.48" fill="#e5e7ef"/>
<path d="M968.07,240.07c0-38.68-31.36-70.04-70.04-70.04H101.97c-38.68,0-70.04,31.36-70.04,70.04L0,1229.1c0,38.68,31.36,70.04,70.04,70.04H929.96c38.68,0,70.04-31.36,70.04-70.04l-31.93-989.03Zm-894.64,0c0-15.74,12.8-28.54,28.54-28.54H898.03c15.74,0,28.54,12.8,28.54,28.54v824.59H73.43V240.07Z"/>
</g>
<g>
<polygon points="352.81 .85 273.07 79.83 273.07 247.82 352.81 247.82 352.81 .85"/>
<polygon points="647.19 .85 726.93 79.83 726.93 247.82 647.19 247.82 647.19 .85"/>
<rect x="460.13" y="-106.46" width="79.75" height="294.37" transform="translate(459.27 540.73) rotate(-90)" fill="#585858"/>
</g>
</g>
<g>
<rect x="198.61" y="1165.25" width="12.05" height="11.05" fill="#fff"/>
<rect x="198.61" y="1183.25" width="12.05" height="54" fill="#fff"/>
<polygon points="229.66 1219.25 276.16 1219.25 276.16 1207.95 241.71 1207.95 241.71 1187.6 270.16 1187.6 270.16 1176.3 241.71 1176.3 241.71 1158.55 276.16 1158.55 276.16 1147.25 229.66 1147.25 229.66 1219.25" fill="#fff"/>
<path d="M323.98,1191.08c-2.58-1.42-6.03-2.67-10.33-3.78-4.2-1.07-7.36-1.97-9.47-2.7-2.12-.73-3.53-1.47-4.23-2.2s-1.05-1.62-1.05-2.65c0-1.83,.87-3.26,2.6-4.28,1.73-1.02,4.02-1.44,6.85-1.27,2.97,.17,5.34,.92,7.12,2.25,1.78,1.33,2.83,3.15,3.12,5.45l12.3-2.2c-.47-3.23-1.7-6.05-3.7-8.45s-4.62-4.25-7.88-5.55-6.97-1.95-11.17-1.95-8.03,.67-11.2,2.03c-3.17,1.35-5.63,3.27-7.4,5.77-1.77,2.5-2.65,5.43-2.65,8.8,0,2.7,.58,5,1.75,6.9,1.17,1.9,3.08,3.54,5.75,4.92,2.67,1.38,6.27,2.67,10.8,3.88,4.07,1.07,7.08,1.95,9.05,2.65s3.24,1.42,3.83,2.17,.88,1.74,.88,2.97c0,2-.79,3.58-2.38,4.73-1.58,1.15-3.83,1.72-6.72,1.72-3.3,0-6.03-.77-8.2-2.3-2.17-1.53-3.57-3.63-4.2-6.3l-12.3,1.9c.9,5.43,3.43,9.65,7.6,12.65s9.58,4.5,16.25,4.5,12.43-1.55,16.38-4.65c3.95-3.1,5.93-7.37,5.93-12.8,0-2.8-.58-5.18-1.73-7.15-1.15-1.97-3.02-3.66-5.6-5.08Z" fill="#fff"/>
<path d="M358.01,1177.28c2.03-1.48,4.62-2.23,7.75-2.23,2.77,0,5.23,.81,7.4,2.42,2.17,1.62,3.72,3.88,4.65,6.78l12-3.25c-1.3-5.33-4.08-9.54-8.33-12.62-4.25-3.08-9.44-4.62-15.58-4.62-5.47,0-10.18,1.22-14.15,3.67-3.97,2.45-7.03,5.82-9.17,10.1-2.15,4.28-3.24,9.19-3.28,14.72,.03,5.43,1.09,10.3,3.17,14.6,2.08,4.3,5.09,7.69,9.03,10.18,3.93,2.48,8.68,3.72,14.25,3.72,6.03,0,11.13-1.47,15.3-4.42,4.17-2.95,7.08-7.17,8.75-12.67l-12.3-2.75c-.93,2.77-2.33,4.88-4.17,6.35-1.85,1.47-4.38,2.2-7.58,2.2-4.53,0-7.95-1.58-10.25-4.75s-3.45-7.32-3.45-12.45c0-3.3,.48-6.25,1.45-8.85,.97-2.6,2.47-4.64,4.5-6.12Z" fill="#fff"/>
<path d="M441.55,1173.8c-1.77-3.57-4.47-6.13-8.12-7.7-3.65-1.57-7.88-2.35-12.67-2.35-6.37,0-11.42,1.38-15.17,4.15s-6.29,6.43-7.62,11l11,3.45c.9-2.77,2.48-4.72,4.75-5.85,2.27-1.13,4.62-1.7,7.05-1.7,4.03,0,6.9,.88,8.6,2.65,1.41,1.47,2.22,3.63,2.43,6.45-2.17,.32-4.3,.63-6.36,.92-3.42,.48-6.58,1.01-9.5,1.58s-5.46,1.2-7.62,1.9c-2.87,.97-5.2,2.21-7,3.73s-3.13,3.32-4,5.4c-.87,2.08-1.3,4.42-1.3,7.03,0,2.97,.69,5.68,2.08,8.15,1.38,2.47,3.42,4.44,6.12,5.93,2.7,1.48,6,2.22,9.9,2.22,4.87,0,8.93-.91,12.18-2.72,2.5-1.4,4.76-3.42,6.77-6.05v7.28h10.55v-33.15c0-2.33-.1-4.49-.3-6.47-.2-1.98-.78-3.92-1.75-5.83Zm-11.1,28.4c-.4,1.23-1.17,2.55-2.33,3.95-1.15,1.4-2.69,2.58-4.62,3.55-1.93,.97-4.27,1.45-7,1.45-1.9,0-3.49-.3-4.78-.9s-2.26-1.41-2.92-2.42-1-2.19-1-3.53c0-1.17,.26-2.18,.78-3.05,.52-.87,1.26-1.63,2.22-2.3s2.15-1.25,3.55-1.75c1.43-.47,3.08-.89,4.95-1.28,1.87-.38,4.1-.79,6.7-1.22,1.66-.28,3.55-.58,5.63-.91-.02,.92-.05,1.95-.1,3.14-.08,1.98-.44,3.74-1.08,5.28Z" fill="#fff"/>
<path d="M504.4,1177.4c-.73-2.33-1.87-4.53-3.4-6.6-1.53-2.07-3.6-3.77-6.2-5.1-2.6-1.33-5.9-2-9.9-2-5.07,0-9.33,1.11-12.8,3.33-1.86,1.19-3.47,2.61-4.85,4.24v-6.01h-10.75v54h12.2v-27.75c0-3.3,.37-6.01,1.1-8.12,.73-2.12,1.71-3.78,2.92-5s2.58-2.08,4.08-2.58,3.02-.75,4.55-.75c2.87,0,5.14,.62,6.83,1.85,1.68,1.23,2.95,2.81,3.8,4.72,.85,1.92,1.39,3.91,1.62,5.97,.23,2.07,.35,3.95,.35,5.65v26h12.2v-30.15c0-1.3-.11-2.99-.33-5.07s-.69-4.29-1.42-6.62Z" fill="#fff"/>
<path d="M556.43,1167.68c-3.92-2.62-8.67-3.92-14.28-3.92-5.3,0-9.97,1.2-14,3.6-4.03,2.4-7.18,5.78-9.45,10.12-2.27,4.35-3.4,9.48-3.4,15.38,0,5.47,1.16,10.3,3.47,14.5,2.32,4.2,5.54,7.48,9.68,9.85,4.13,2.37,8.93,3.55,14.4,3.55s9.96-1.35,14.28-4.05c4.32-2.7,7.51-6.48,9.58-11.35l-11.9-3.6c-1.17,2.5-2.83,4.41-4.97,5.72-2.15,1.32-4.71,1.98-7.68,1.98-4.6,0-8.1-1.5-10.5-4.5-1.88-2.35-3.02-5.48-3.42-9.35h39.07c.47-6.47-.25-12.08-2.15-16.85-1.9-4.77-4.81-8.46-8.72-11.08Zm-13.78,6.62c4.37,0,7.57,1.35,9.6,4.05,1.44,1.91,2.37,4.64,2.81,8.15h-26.54c.55-3.12,1.59-5.67,3.13-7.62,2.4-3.05,6.07-4.58,11-4.58Z" fill="#fff"/>
<path d="M620.05,1173.8c-1.77-3.57-4.47-6.13-8.12-7.7-3.65-1.57-7.88-2.35-12.67-2.35-6.37,0-11.42,1.38-15.17,4.15s-6.29,6.43-7.62,11l11,3.45c.9-2.77,2.48-4.72,4.75-5.85,2.27-1.13,4.62-1.7,7.05-1.7,4.03,0,6.9,.88,8.6,2.65,1.41,1.47,2.22,3.63,2.43,6.45-2.17,.32-4.3,.63-6.36,.92-3.42,.48-6.58,1.01-9.5,1.58s-5.46,1.2-7.62,1.9c-2.87,.97-5.2,2.21-7,3.73s-3.13,3.32-4,5.4c-.87,2.08-1.3,4.42-1.3,7.03,0,2.97,.69,5.68,2.08,8.15,1.38,2.47,3.42,4.44,6.12,5.93,2.7,1.48,6,2.22,9.9,2.22,4.87,0,8.93-.91,12.18-2.72,2.5-1.4,4.76-3.42,6.77-6.05v7.28h10.55v-33.15c0-2.33-.1-4.49-.3-6.47-.2-1.98-.78-3.92-1.75-5.83Zm-11.1,28.4c-.4,1.23-1.17,2.55-2.33,3.95-1.15,1.4-2.69,2.58-4.62,3.55-1.93,.97-4.27,1.45-7,1.45-1.9,0-3.49-.3-4.78-.9s-2.26-1.41-2.92-2.42-1-2.19-1-3.53c0-1.17,.26-2.18,.78-3.05,.52-.87,1.26-1.63,2.22-2.3s2.15-1.25,3.55-1.75c1.43-.47,3.08-.89,4.95-1.28,1.87-.38,4.1-.79,6.7-1.22,1.66-.28,3.55-.58,5.63-.91-.02,.92-.05,1.95-.1,3.14-.08,1.98-.44,3.74-1.08,5.28Z" fill="#fff"/>
<path d="M693.5,1163.9c-3.6,0-6.87,.8-9.8,2.4-2.76,1.51-4.98,3.58-6.66,6.2-1.33-2.49-3.2-4.5-5.61-6.02-2.72-1.72-6.09-2.57-10.12-2.57-3.67,0-6.98,.81-9.92,2.42-2.27,1.24-4.18,2.84-5.73,4.79v-5.86h-10.65v54h12.15v-33.25c0-3.37,.92-6.1,2.78-8.2,1.85-2.1,4.31-3.15,7.38-3.15s5.67,1.05,7.5,3.15c1.83,2.1,2.75,5.03,2.75,8.8v32.65h12v-33.25c0-2.37,.45-4.41,1.35-6.12,.9-1.72,2.12-3.02,3.65-3.9,1.53-.88,3.27-1.32,5.2-1.32,3.13,0,5.62,1.04,7.45,3.12s2.75,4.97,2.75,8.67v32.8h12.05v-35.85c0-5.83-1.59-10.54-4.78-14.12-3.18-3.58-7.76-5.38-13.72-5.38Z" fill="#fff"/>
<path d="M762.27,1167.68c-3.92-2.62-8.67-3.92-14.28-3.92-5.3,0-9.97,1.2-14,3.6-4.03,2.4-7.18,5.78-9.45,10.12-2.27,4.35-3.4,9.48-3.4,15.38,0,5.47,1.16,10.3,3.47,14.5,2.32,4.2,5.54,7.48,9.68,9.85,4.13,2.37,8.93,3.55,14.4,3.55s9.96-1.35,14.28-4.05c4.32-2.7,7.51-6.48,9.58-11.35l-11.9-3.6c-1.17,2.5-2.83,4.41-4.97,5.72-2.15,1.32-4.71,1.98-7.68,1.98-4.6,0-8.1-1.5-10.5-4.5-1.88-2.35-3.02-5.48-3.42-9.35h39.07c.47-6.47-.25-12.08-2.15-16.85-1.9-4.77-4.81-8.46-8.72-11.08Zm-13.78,6.62c4.37,0,7.57,1.35,9.6,4.05,1.44,1.91,2.37,4.64,2.81,8.15h-26.54c.55-3.12,1.59-5.67,3.13-7.62,2.4-3.05,6.07-4.58,11-4.58Z" fill="#fff"/>
<rect x="789.35" y="1147.25" width="12.05" height="54" fill="#fff"/>
<rect x="789.35" y="1208.2" width="12.05" height="11.05" fill="#fff"/>
</g>
<g>
<path d="M418,382H248v170h170v-170Zm-40,130h-90v-90h90v90Z"/>
<rect x="313" y="447" width="40" height="40"/>
<path d="M760,382h-170v170h170v-170Zm-40,130h-90v-90h90v90Z"/>
<rect x="655" y="447" width="40" height="40"/>
<path d="M418,724H248v170h170v-170Zm-40,130h-90v-90h90v90Z"/>
<rect x="313" y="789" width="40" height="40"/>
<rect x="288" y="579" width="40" height="40"/>
<polygon points="367 659 367 699 407 699 407 659 368 659 368 619 328 619 328 659 367 659"/>
<rect x="528" y="459" width="40" height="40"/>
<rect x="448" y="422" width="40" height="77"/>
<rect x="488" y="382" width="40" height="40"/>
<polygon points="528 499 488 499 488 539 448 539 448 579 528 579 528 499"/>
<polygon points="488 699 488 738 528 738 528 777 608 777 608 737 528 737 528 698 488 698 488 619 448 619 448 699 488 699"/>
<rect x="528" y="579" width="40" height="80"/>
<path d="M648,698h112v-80h-40v-39h-73v40h-39v40h40v39Zm0-79h72v39h-72v-39Z"/>
<rect x="720" y="737" width="40" height="80"/>
<rect x="568" y="659" width="40" height="40"/>
<rect x="608" y="777" width="40" height="40"/>
<rect x="648" y="737" width="40" height="40"/>
<polygon points="688 894 688 857 720 857 720 817 648 817 648 894 688 894"/>
<rect x="448" y="738" width="40" height="76"/>
<polygon points="528 894 528 854 567 854 567 894 607 894 607 854 568 854 568 814 488 814 488 894 528 894"/>
<rect x="368" y="579" width="80" height="40"/>
<rect x="248" y="619" width="40" height="80"/>
</g>
</svg>