<?xml version="1.0" encoding="UTF-8"?>
<svg id="TEXTO" xmlns="http://www.w3.org/2000/svg" viewBox="0 0 1000 1300">
<g>
<path d="M845.5,483.42v-151.2H469.88c-.07,.14-.13,.28-.21,.42-6.44,11.55-14.36,21.2-24.61,29.58h370.44v121.1l30,.1Z"/>
<polygon points="815.52 1065.96 815.52 918.86 845.52 918.76 845.52 1065.96 815.52 1065.96"/>
<path d="M185.85,1021.88V362.22h110.12c-5.01-6.58-10.1-13.12-14.47-20.14-2.05-3.29-3.92-6.56-5.63-9.86h-120.02V1021.88h30Z"/>
<rect x="234.05" y="410.43" width="533.24" height="533.24" rx="27.03" ry="27.03" fill="#e5e7ef"/>
<path d="M793.9,1193.76H207.45c-28.5,0-51.6-23.1-51.6-51.6v-146.59H845.5v146.59c0,28.5-23.1,51.6-51.6,51.6Z"/>
</g>
<g>
<path d="M112.42,789.58c-29.16,0-70.21-26.14-70.21-84.26,0-39.83,21.83-82.36,39.38-116.53,6.76-13.18,13.16-25.63,16.82-35.23,3.91-10.23-.88-28.58-6.42-49.83-9.01-34.54-21.35-81.86-9.78-140.39,10.1-51.08,36.67-89.2,78.98-113.27,32.21-18.33,64.63-23.15,79.65-25.19,.51-.56,1.04-1.15,1.6-1.77,12.59-13.89,42.09-46.42,81.51-75.64,50.34-37.32,99.13-56.24,145.02-56.24,48.39,0,94.67,15.41,133.85,44.56,29.64,22.05,44.91,44.25,45.55,45.19,4.66,6.85,2.89,16.18-3.96,20.84-6.85,4.66-16.18,2.88-20.84-3.96-.11-.16-13.64-19.6-39.56-38.67-34.24-25.19-72.94-37.96-115.04-37.96-62.15,0-130.89,41.06-204.3,122.03-2.73,3.01-4.53,5-5.88,6.35-2.26,2.26-5.17,3.73-8.33,4.22-1.12,.17-2.53,.36-4.18,.59-76.33,10.29-121.63,48.9-134.65,114.75-10.24,51.79,.64,93.49,9.38,127,7.12,27.31,12.75,48.89,5.42,68.1-4.26,11.14-11.01,24.3-18.16,38.23-16.07,31.3-36.06,70.25-36.06,102.83,0,41,27.09,54.26,40.21,54.26,19.69,0,34.06-11.33,42.7-33.67,2.99-7.73,11.67-11.57,19.4-8.58,7.73,2.99,11.57,11.67,8.58,19.4-7.2,18.63-17.93,32.66-31.89,41.68-11.3,7.31-24.71,11.17-38.79,11.17Z"/>
<path d="M368.57,407.74c-31.09,0-59.37-12.62-81.79-36.51-16.56-17.64-24.19-35.46-24.51-36.21-3.22-7.63,.35-16.43,7.98-19.65,7.63-3.23,16.43,.35,19.65,7.98,.04,.09,6.23,14.27,19.39,28.03,16.72,17.49,36.66,26.35,59.27,26.35,56.2,0,78.15-38.06,78.37-38.44,2.65-4.74,7.66-7.67,13.09-7.67h340.49c6.13-20.2,6.29-41.46,.39-62.06-8.1-28.3-26.74-51.75-52.47-66.04-25.74-14.28-55.5-17.69-83.8-9.59-17.64,5.05-33.84,14.46-46.83,27.23-5.91,5.81-15.41,5.72-21.21-.19-5.81-5.91-5.72-15.41,.19-21.21,16.55-16.26,37.17-28.25,59.6-34.67,36-10.31,73.87-5.97,106.61,12.2,32.75,18.17,56.45,48.01,66.76,84.01,8.67,30.31,7.04,61.75-4.72,90.93-2.29,5.67-7.79,9.39-13.91,9.39H467.9c-11.4,14.9-42.1,46.11-99.33,46.11Z"/>
</g>
<path d="M340.45,250.11c-2.2,0-4.4-.8-6.13-2.41-3.64-3.39-3.84-9.08-.46-12.72,33.35-35.84,84.99-78.24,141.54-76.76,16.58,.44,32.86,3.54,48.4,9.22,4.67,1.71,7.07,6.88,5.36,11.54-1.71,4.67-6.87,7.07-11.54,5.36-13.7-5.01-28.07-7.75-42.69-8.13-49.83-1.35-97.07,37.9-127.89,71.02-1.77,1.91-4.18,2.87-6.59,2.87Z"/>
<path d="M925.1,948.81h-94.01v-30h94.01c24.57,0,44.56-19.99,44.56-44.56v-346.3c0-24.57-19.99-44.56-44.56-44.56h-94.01v-30h94.01c41.11,0,74.56,33.45,74.56,74.56v346.3c0,41.12-33.45,74.56-74.56,74.56Z"/>
<path d="M905.92,868.06h-89.83v-333.93h89.83c14.36,0,26.04,11.68,26.04,26.04v281.85c0,14.36-11.68,26.04-26.04,26.04Zm-59.83-30h55.87v-273.93h-55.87v273.93Z"/>
<g>
<rect x="229.42" y="1088.57" width="10.84" height="48.6" fill="#fff"/>
<rect x="229.42" y="1072.37" width="10.84" height="9.94" fill="#fff"/>
<polygon points="257.36 1120.97 299.21 1120.97 299.21 1110.8 268.21 1110.8 268.21 1092.48 293.81 1092.48 293.81 1082.31 268.21 1082.31 268.21 1066.34 299.21 1066.34 299.21 1056.17 257.36 1056.17 257.36 1120.97" fill="#fff"/>
<path d="M342.25,1095.61c-2.33-1.27-5.42-2.41-9.29-3.4-3.78-.96-6.62-1.77-8.53-2.43-1.91-.66-3.17-1.32-3.8-1.98-.63-.66-.95-1.46-.95-2.38,0-1.65,.78-2.93,2.34-3.85,1.56-.92,3.61-1.3,6.17-1.15,2.67,.15,4.81,.83,6.41,2.03,1.6,1.2,2.54,2.83,2.81,4.9l11.07-1.98c-.42-2.91-1.53-5.45-3.33-7.61-1.8-2.16-4.16-3.83-7.09-5s-6.28-1.75-10.06-1.75-7.23,.61-10.08,1.82c-2.85,1.22-5.07,2.95-6.66,5.2s-2.38,4.89-2.38,7.92c0,2.43,.52,4.5,1.58,6.21,1.05,1.71,2.77,3.19,5.17,4.43s5.64,2.41,9.72,3.49c3.66,.96,6.38,1.75,8.15,2.38,1.77,.63,2.92,1.28,3.44,1.96,.52,.67,.79,1.57,.79,2.68,0,1.8-.71,3.22-2.14,4.25-1.43,1.04-3.44,1.55-6.05,1.55-2.97,0-5.43-.69-7.38-2.07-1.95-1.38-3.21-3.27-3.78-5.67l-11.07,1.71c.81,4.89,3.09,8.68,6.84,11.38,3.75,2.7,8.62,4.05,14.62,4.05s11.18-1.39,14.74-4.18c3.55-2.79,5.33-6.63,5.33-11.52,0-2.52-.52-4.66-1.55-6.43-1.03-1.77-2.71-3.29-5.04-4.57Z" fill="#fff"/>
<path d="M372.88,1083.19c1.83-1.33,4.16-2,6.98-2,2.49,0,4.71,.73,6.66,2.18,1.95,1.46,3.34,3.49,4.18,6.1l10.8-2.92c-1.17-4.8-3.67-8.59-7.49-11.36-3.83-2.78-8.5-4.16-14.02-4.16-4.92,0-9.17,1.1-12.74,3.31s-6.32,5.24-8.26,9.09c-1.94,3.86-2.92,8.27-2.95,13.25,.03,4.89,.98,9.27,2.86,13.14s4.58,6.92,8.12,9.16c3.54,2.24,7.81,3.35,12.83,3.35,5.43,0,10.02-1.33,13.77-3.98,3.75-2.65,6.38-6.46,7.88-11.41l-11.07-2.47c-.84,2.49-2.09,4.39-3.76,5.71s-3.94,1.98-6.82,1.98c-4.08,0-7.16-1.42-9.23-4.27-2.07-2.85-3.1-6.58-3.1-11.21,0-2.97,.43-5.62,1.3-7.96,.87-2.34,2.22-4.18,4.05-5.51Z" fill="#fff"/>
<path d="M448.07,1080.06c-1.59-3.21-4.03-5.52-7.31-6.93s-7.09-2.12-11.41-2.12c-5.73,0-10.28,1.25-13.66,3.74s-5.66,5.79-6.86,9.9l9.9,3.11c.81-2.49,2.23-4.25,4.28-5.26,2.04-1.02,4.15-1.53,6.34-1.53,3.63,0,6.21,.79,7.74,2.38,1.27,1.32,2,3.26,2.19,5.81-1.95,.29-3.87,.57-5.72,.83-3.08,.44-5.92,.91-8.55,1.42-2.62,.51-4.91,1.08-6.86,1.71-2.58,.87-4.68,1.99-6.3,3.35-1.62,1.37-2.82,2.99-3.6,4.86-.78,1.88-1.17,3.98-1.17,6.32,0,2.67,.62,5.12,1.87,7.33,1.24,2.22,3.08,4,5.51,5.33,2.43,1.33,5.4,2,8.91,2,4.38,0,8.03-.82,10.96-2.45,2.25-1.26,4.28-3.08,6.1-5.45v6.55h9.5v-29.83c0-2.1-.09-4.04-.27-5.83s-.71-3.53-1.58-5.24Zm-9.99,25.56c-.36,1.11-1.06,2.29-2.09,3.55s-2.42,2.33-4.16,3.2-3.84,1.3-6.3,1.3c-1.71,0-3.14-.27-4.3-.81-1.16-.54-2.03-1.27-2.63-2.18-.6-.92-.9-1.97-.9-3.17,0-1.05,.23-1.96,.7-2.75,.46-.78,1.13-1.47,2-2.07,.87-.6,1.94-1.12,3.2-1.58,1.29-.42,2.77-.8,4.46-1.15,1.68-.34,3.69-.71,6.03-1.1,1.49-.25,3.2-.52,5.07-.82-.02,.83-.05,1.76-.09,2.82-.08,1.79-.4,3.37-.97,4.75Z" fill="#fff"/>
<path d="M504.63,1083.3c-.66-2.1-1.68-4.08-3.06-5.94-1.38-1.86-3.24-3.39-5.58-4.59-2.34-1.2-5.31-1.8-8.91-1.8-4.56,0-8.4,1-11.52,2.99-1.68,1.07-3.13,2.35-4.37,3.81v-5.41h-9.67v48.6h10.98v-24.97c0-2.97,.33-5.41,.99-7.31s1.54-3.41,2.63-4.5c1.09-1.09,2.32-1.87,3.67-2.32,1.35-.45,2.71-.67,4.09-.67,2.58,0,4.63,.56,6.14,1.67,1.51,1.11,2.65,2.53,3.42,4.25,.76,1.73,1.25,3.52,1.46,5.38,.21,1.86,.32,3.56,.32,5.08v23.4h10.98v-27.13c0-1.17-.1-2.69-.29-4.57-.2-1.88-.62-3.86-1.28-5.96Z" fill="#fff"/>
<path d="M551.46,1074.55c-3.53-2.35-7.81-3.53-12.85-3.53-4.77,0-8.97,1.08-12.6,3.24s-6.46,5.2-8.5,9.11c-2.04,3.92-3.06,8.53-3.06,13.84,0,4.92,1.04,9.27,3.13,13.05,2.08,3.78,4.99,6.74,8.71,8.87s8.04,3.19,12.96,3.19,8.96-1.21,12.85-3.64,6.76-5.83,8.62-10.21l-10.71-3.24c-1.05,2.25-2.54,3.97-4.48,5.15-1.94,1.19-4.24,1.78-6.91,1.78-4.14,0-7.29-1.35-9.45-4.05-1.69-2.12-2.71-4.93-3.08-8.42h35.16c.42-5.82-.23-10.87-1.94-15.17-1.71-4.29-4.33-7.61-7.85-9.97Zm-12.4,5.96c3.93,0,6.81,1.21,8.64,3.65,1.3,1.72,2.13,4.18,2.53,7.33h-23.89c.5-2.81,1.43-5.1,2.82-6.86,2.16-2.74,5.46-4.12,9.9-4.12Z" fill="#fff"/>
<path d="M608.72,1080.06c-1.59-3.21-4.03-5.52-7.31-6.93s-7.09-2.12-11.41-2.12c-5.73,0-10.28,1.25-13.66,3.74s-5.66,5.79-6.86,9.9l9.9,3.11c.81-2.49,2.23-4.25,4.28-5.26,2.04-1.02,4.15-1.53,6.34-1.53,3.63,0,6.21,.79,7.74,2.38,1.27,1.32,2,3.26,2.19,5.81-1.95,.29-3.87,.57-5.72,.83-3.08,.44-5.92,.91-8.55,1.42-2.62,.51-4.91,1.08-6.86,1.71-2.58,.87-4.68,1.99-6.3,3.35-1.62,1.37-2.82,2.99-3.6,4.86-.78,1.88-1.17,3.98-1.17,6.32,0,2.67,.62,5.12,1.87,7.33,1.24,2.22,3.08,4,5.51,5.33,2.43,1.33,5.4,2,8.91,2,4.38,0,8.03-.82,10.96-2.45,2.25-1.26,4.28-3.08,6.1-5.45v6.55h9.5v-29.83c0-2.1-.09-4.04-.27-5.83s-.71-3.53-1.58-5.24Zm-9.99,25.56c-.36,1.11-1.06,2.29-2.09,3.55s-2.42,2.33-4.16,3.2-3.84,1.3-6.3,1.3c-1.71,0-3.14-.27-4.3-.81-1.16-.54-2.03-1.27-2.63-2.18-.6-.92-.9-1.97-.9-3.17,0-1.05,.23-1.96,.7-2.75,.46-.78,1.13-1.47,2-2.07,.87-.6,1.94-1.12,3.2-1.58,1.29-.42,2.77-.8,4.46-1.15,1.68-.34,3.69-.71,6.03-1.1,1.49-.25,3.2-.52,5.07-.82-.02,.83-.05,1.76-.09,2.82-.08,1.79-.4,3.37-.97,4.75Z" fill="#fff"/>
<path d="M674.82,1071.15c-3.24,0-6.18,.72-8.82,2.16-2.49,1.36-4.47,3.23-5.99,5.59-1.2-2.25-2.89-4.06-5.06-5.43-2.45-1.54-5.48-2.32-9.11-2.32-3.3,0-6.28,.73-8.93,2.18-2.04,1.12-3.76,2.56-5.15,4.32v-5.28h-9.58v48.6h10.93v-29.92c0-3.03,.83-5.49,2.5-7.38,1.67-1.89,3.88-2.83,6.64-2.83s5.1,.94,6.75,2.83c1.65,1.89,2.47,4.53,2.47,7.92v29.38h10.8v-29.92c0-2.13,.41-3.97,1.21-5.51,.81-1.54,1.91-2.71,3.29-3.51s2.94-1.19,4.68-1.19c2.82,0,5.05,.94,6.71,2.81,1.65,1.88,2.47,4.48,2.47,7.81v29.52h10.84v-32.26c0-5.25-1.43-9.49-4.3-12.71-2.87-3.22-6.98-4.84-12.35-4.84Z" fill="#fff"/>
<path d="M736.72,1074.55c-3.53-2.35-7.81-3.53-12.85-3.53-4.77,0-8.97,1.08-12.6,3.24s-6.46,5.2-8.5,9.11c-2.04,3.92-3.06,8.53-3.06,13.84,0,4.92,1.04,9.27,3.13,13.05,2.08,3.78,4.99,6.74,8.71,8.87s8.04,3.19,12.96,3.19,8.96-1.21,12.85-3.64,6.76-5.83,8.62-10.21l-10.71-3.24c-1.05,2.25-2.54,3.97-4.48,5.15-1.94,1.19-4.24,1.78-6.91,1.78-4.14,0-7.29-1.35-9.45-4.05-1.69-2.12-2.71-4.93-3.08-8.42h35.16c.42-5.82-.23-10.87-1.94-15.17-1.71-4.29-4.33-7.61-7.85-9.97Zm-12.4,5.96c3.93,0,6.81,1.21,8.64,3.65,1.3,1.72,2.13,4.18,2.53,7.33h-23.89c.5-2.81,1.43-5.1,2.82-6.86,2.16-2.74,5.46-4.12,9.9-4.12Z" fill="#fff"/>
<rect x="761.08" y="1056.17" width="10.84" height="48.6" fill="#fff"/>
<rect x="761.08" y="1111.02" width="10.84" height="9.95" fill="#fff"/>
</g>
<g>
<path d="M435.94,474.33h-132.81v132.81h132.81v-132.81Zm-31.25,101.56h-70.31v-70.31h70.31v70.31Z"/>
<rect x="353.91" y="525.11" width="31.25" height="31.25"/>
<path d="M703.13,474.33h-132.81v132.81h132.81v-132.81Zm-31.25,101.56h-70.31v-70.31h70.31v70.31Z"/>
<rect x="621.1" y="525.11" width="31.25" height="31.25"/>
<path d="M435.94,741.52h-132.81v132.81h132.81v-132.81Zm-31.25,101.56h-70.31v-70.31h70.31v70.31Z"/>
<rect x="353.91" y="792.3" width="31.25" height="31.25"/>
<rect x="334.38" y="628.24" width="31.25" height="31.25"/>
<polygon points="396.1 690.74 396.1 721.99 427.35 721.99 427.35 690.74 396.88 690.74 396.88 659.49 365.63 659.49 365.63 690.74 396.1 690.74"/>
<rect x="521.88" y="534.49" width="31.25" height="31.25"/>
<rect x="459.38" y="505.58" width="31.25" height="60.16"/>
<rect x="490.63" y="474.33" width="31.25" height="31.25"/>
<polygon points="521.88 565.74 490.63 565.74 490.63 596.99 459.38 596.99 459.38 628.24 521.88 628.24 521.88 565.74"/>
<polygon points="490.63 721.99 490.63 752.46 521.88 752.46 521.88 782.93 584.38 782.93 584.38 751.68 521.88 751.68 521.88 721.21 490.63 721.21 490.63 659.49 459.38 659.49 459.38 721.99 490.63 721.99"/>
<rect x="521.88" y="628.24" width="31.25" height="62.5"/>
<path d="M615.63,721.21h87.5v-62.5h-31.25v-30.47h-57.03v31.25h-30.47v31.25h31.25v30.47Zm0-61.72h56.25v30.47h-56.25v-30.47Z"/>
<rect x="671.88" y="751.68" width="31.25" height="62.5"/>
<rect x="553.13" y="690.74" width="31.25" height="31.25"/>
<rect x="584.38" y="782.93" width="31.25" height="31.25"/>
<rect x="615.63" y="751.68" width="31.25" height="31.25"/>
<polygon points="646.88 874.33 646.88 845.43 671.88 845.43 671.88 814.18 615.63 814.18 615.63 874.33 646.88 874.33"/>
<rect x="459.38" y="752.46" width="31.25" height="59.38"/>
<polygon points="521.88 874.33 521.88 843.08 552.35 843.08 552.35 874.33 583.6 874.33 583.6 843.08 553.13 843.08 553.13 811.83 490.63 811.83 490.63 874.33 521.88 874.33"/>
<rect x="396.88" y="628.24" width="62.5" height="31.25"/>
<rect x="303.13" y="659.49" width="31.25" height="62.5"/>
</g>
</svg>