<?xml version="1.0" encoding="UTF-8"?>
<svg id="TEXTO" xmlns="http://www.w3.org/2000/svg" viewBox="0 0 1000 1300">
<g>
<g>
<path d="M747.71,174.5l54.27-40H479.4c1.7,3.78,.6,8.36-2.87,10.92l-39.45,29.08h310.63Z"/>
<path d="M778.05,174.5h81.95v223.42l40-29.48V174.5c0-22.09-17.91-40-40-40h-27.68l-54.27,40Z"/>
<path d="M140,282.07v-107.57H406.74l54.27-40h-62.01l-49.49,36.48c-1.61,1.18-3.48,1.76-5.33,1.76-2.76,0-5.49-1.27-7.25-3.66-2.95-4-2.1-9.64,1.91-12.58l29.83-21.99H198.71l-17.76,13.09c-1.61,1.18-3.48,1.76-5.33,1.76-2.76,0-5.49-1.27-7.25-3.66-2.53-3.44-2.25-8.07,.41-11.18h-28.77c-22.09,0-40,17.91-40,40v137.06l40-29.48Z"/>
<path d="M887.36,1066.27c-1.61,1.18-3.48,1.76-5.33,1.76-2.76,0-5.49-1.27-7.25-3.66-2.95-4-2.1-9.64,1.91-12.58l23.32-17.19v-140.09h0v-107.32l-17.25,12.71c-1.61,1.18-3.48,1.76-5.33,1.76-2.76,0-5.49-1.27-7.25-3.66-2.95-4-2.1-9.64,1.91-12.58l27.92-20.58v-47.87l-10.96,8.08c-1.61,1.18-3.48,1.76-5.33,1.76-2.76,0-5.49-1.27-7.25-3.66-2.95-4-2.1-9.64,1.91-12.58l21.64-15.95v-233.17l-1.7,1.26c-1.61,1.18-3.48,1.76-5.33,1.76-2.76,0-5.49-1.27-7.25-3.66-2.95-4-2.1-9.64,1.91-12.58l12.38-9.13v-48.27l-40,29.48v474.22H140V304.43l-40,29.48v45.25l18.32-13.57c3.99-2.96,9.63-2.12,12.59,1.87,2.96,3.99,2.12,9.63-1.87,12.59l-29.03,21.51v237.09l22.15-16.33c4-2.95,9.63-2.1,12.58,1.91,2.95,4,2.1,9.64-1.91,12.58l-32.83,24.2v40.92l12.46-9.19c4-2.95,9.63-2.1,12.58,1.91,2.95,4,2.1,9.64-1.91,12.58l-23.14,17.06v248.49l11.04-8.14c4-2.95,9.64-2.1,12.58,1.91s2.1,9.64-1.91,12.58l-21.72,16.01v131.34c0,22.09,17.91,40,40,40h20.43l43.17-31.82c4-2.95,9.64-2.1,12.58,1.91s2.1,9.64-1.91,12.58l-23.51,17.33H498.35l26.37-19.44c4-2.95,9.63-2.1,12.58,1.91,2.95,4,2.1,9.64-1.91,12.58l-6.71,4.95h273.1l38.99-28.74c4-2.95,9.64-2.1,12.58,1.91s2.1,9.64-1.91,12.58l-19.33,14.25h27.87c22.09,0,40-17.91,40-40v-69.54l-12.64,9.32Z"/>
</g>
<rect x="188" y="222.5" width="624" height="624" rx="40" ry="40" fill="#e5e7ef"/>
<g>
<path d="M45.62,358.14c-2.76,0-5.49-1.27-7.25-3.66-2.95-4-2.1-9.64,1.91-12.58l108.69-80.11c4-2.95,9.63-2.1,12.58,1.91,2.95,4,2.1,9.64-1.91,12.58l-108.69,80.11c-1.61,1.18-3.48,1.76-5.33,1.76Z"/>
<path d="M16.49,706.72c-2.76,0-5.49-1.27-7.25-3.66-2.95-4-2.1-9.64,1.91-12.58l108.69-80.11c4-2.95,9.64-2.1,12.58,1.91s2.1,9.64-1.91,12.58l-108.69,80.11c-1.61,1.18-3.48,1.76-5.33,1.76Z"/>
<path d="M97.94,1219.07c-2.76,0-5.49-1.27-7.25-3.66-2.95-4-2.1-9.64,1.91-12.58l108.69-80.11c4-2.95,9.63-2.1,12.58,1.91,2.95,4,2.1,9.64-1.91,12.58l-108.69,80.11c-1.61,1.18-3.48,1.76-5.33,1.76Z"/>
<path d="M875.11,789.68c-2.76,0-5.49-1.27-7.25-3.66-2.95-4-2.1-9.64,1.91-12.58l108.69-80.11c4-2.95,9.64-2.1,12.58,1.91s2.1,9.64-1.91,12.58l-108.69,80.11c-1.61,1.18-3.48,1.76-5.33,1.76Z"/>
<path d="M419.06,1231.45c-2.76,0-5.49-1.27-7.25-3.66-2.95-4-2.1-9.64,1.91-12.58l108.69-80.11c4-2.95,9.64-2.1,12.58,1.91s2.1,9.64-1.91,12.58l-108.69,80.11c-1.61,1.18-3.48,1.76-5.33,1.76Z"/>
<path d="M831.84,425.18c-2.76,0-5.49-1.27-7.25-3.66-2.95-4-2.1-9.64,1.91-12.58l99.11-73.05c4-2.95,9.63-2.1,12.58,1.91,2.95,4,2.1,9.64-1.91,12.58l-99.11,73.05c-1.61,1.18-3.48,1.76-5.33,1.76Z"/>
<path d="M890.65,452.47c-2.76,0-5.49-1.27-7.25-3.66-2.95-4-2.1-9.64,1.91-12.58l74.04-54.57c4-2.95,9.63-2.1,12.58,1.91,2.95,4,2.1,9.64-1.91,12.58l-74.04,54.57c-1.61,1.18-3.48,1.76-5.33,1.76Z"/>
<path d="M72.96,728.38c-2.76,0-5.49-1.27-7.25-3.66-2.95-4-2.1-9.64,1.91-12.58l42.53-31.35c4-2.95,9.64-2.1,12.58,1.91,2.95,4,2.1,9.64-1.91,12.58l-42.53,31.35c-1.61,1.18-3.48,1.76-5.33,1.76Z"/>
<path d="M45.9,1206.31c-2.76,0-5.49-1.27-7.25-3.66-2.95-4-2.1-9.64,1.91-12.58l42.53-31.35c4-2.95,9.63-2.1,12.58,1.91,2.95,4,2.1,9.64-1.91,12.58l-42.53,31.35c-1.61,1.18-3.48,1.76-5.33,1.76Z"/>
<path d="M341.86,160.76c-2.76,0-5.49-1.27-7.25-3.66-2.95-4-2.1-9.64,1.91-12.58l108.69-80.11c4-2.95,9.64-2.1,12.58,1.91,2.95,4,2.1,9.64-1.91,12.58l-108.69,80.11c-1.61,1.18-3.48,1.76-5.33,1.76Z"/>
<path d="M83.39,398c-2.75,0-5.47-1.26-7.24-3.64-2.96-3.99-2.12-9.63,1.88-12.59l37.98-28.14c3.99-2.96,9.63-2.12,12.59,1.88,2.96,3.99,2.12,9.63-1.88,12.59l-37.98,28.14c-1.61,1.19-3.49,1.77-5.35,1.77Z"/>
<path d="M758.34,1205.04c-2.76,0-5.49-1.27-7.25-3.66-2.95-4-2.1-9.64,1.91-12.58l85.48-63c4-2.95,9.63-2.1,12.58,1.91,2.95,4,2.1,9.64-1.91,12.58l-85.48,63c-1.61,1.18-3.48,1.76-5.33,1.76Z"/>
<path d="M407.03,180.79c-2.76,0-5.49-1.27-7.25-3.66-2.95-4-2.1-9.64,1.91-12.58l61.85-45.59c4-2.95,9.64-2.1,12.58,1.91,2.95,4,2.1,9.64-1.91,12.58l-61.85,45.59c-1.61,1.18-3.48,1.76-5.33,1.76Z"/>
<path d="M767.87,97.2c-2.76,0-5.49-1.27-7.25-3.66-2.95-4-2.1-9.64,1.91-12.58l61.85-45.59c4-2.95,9.64-2.1,12.58,1.91s2.1,9.64-1.91,12.58l-61.85,45.59c-1.61,1.18-3.48,1.76-5.33,1.76Z"/>
<path d="M173.3,137.37c-2.76,0-5.49-1.27-7.25-3.66-2.95-4-2.1-9.64,1.91-12.58l61.85-45.59c4-2.95,9.63-2.1,12.58,1.91,2.95,4,2.1,9.64-1.91,12.58l-61.85,45.59c-1.61,1.18-3.48,1.76-5.33,1.76Z"/>
<path d="M879.71,1056.06c-2.76,0-5.49-1.27-7.25-3.66-2.95-4-2.1-9.64,1.91-12.58l94.79-69.87c4-2.95,9.63-2.1,12.58,1.91,2.95,4,2.1,9.64-1.91,12.58l-94.79,69.87c-1.61,1.18-3.48,1.76-5.33,1.76Z"/>
<path d="M739.72,186.9c-2.76,0-5.49-1.27-7.25-3.66-2.95-4-2.1-9.64,1.91-12.58l90-66.33c4-2.95,9.64-2.1,12.58,1.91s2.1,9.64-1.91,12.58l-90,66.33c-1.61,1.18-3.48,1.76-5.33,1.76Z"/>
<path d="M520.45,97.2c-2.76,0-5.49-1.27-7.25-3.66-2.95-4-2.1-9.64,1.91-12.58l20.89-15.4c4-2.95,9.64-2.1,12.58,1.91,2.95,4,2.1,9.64-1.91,12.58l-20.89,15.4c-1.61,1.18-3.48,1.76-5.33,1.76Z"/>
<path d="M881.4,714.82c-2.76,0-5.49-1.27-7.25-3.66-2.95-4-2.1-9.64,1.91-12.58l42.44-31.28c4-2.95,9.63-2.1,12.58,1.91,2.95,4,2.1,9.64-1.91,12.58l-42.44,31.28c-1.61,1.18-3.48,1.76-5.33,1.76Z"/>
<path d="M71.63,1000.22c-2.76,0-5.49-1.27-7.25-3.66-2.95-4-2.1-9.64,1.91-12.58l42.44-31.28c4-2.95,9.64-2.1,12.58,1.91s2.1,9.64-1.91,12.58l-42.44,31.28c-1.61,1.18-3.48,1.76-5.33,1.76Z"/>
<path d="M516.74,1227.53c-2.76,0-5.49-1.27-7.25-3.66-2.95-4-2.1-9.64,1.91-12.58l20.89-15.4c4-2.95,9.63-2.1,12.58,1.91,2.95,4,2.1,9.64-1.91,12.58l-20.89,15.4c-1.61,1.18-3.48,1.76-5.33,1.76Z"/>
</g>
</g>
<g>
<rect x="228.74" y="1025.41" width="10.84" height="48.6" fill="#fff"/>
<rect x="228.74" y="1009.21" width="10.84" height="9.94" fill="#fff"/>
<polygon points="256.69 1057.81 298.54 1057.81 298.54 1047.64 267.53 1047.64 267.53 1029.32 293.14 1029.32 293.14 1019.15 267.53 1019.15 267.53 1003.18 298.54 1003.18 298.54 993.01 256.69 993.01 256.69 1057.81" fill="#fff"/>
<path d="M341.58,1032.45c-2.33-1.27-5.42-2.41-9.29-3.4-3.78-.96-6.62-1.77-8.53-2.43-1.91-.66-3.17-1.32-3.8-1.98-.63-.66-.95-1.46-.95-2.38,0-1.65,.78-2.93,2.34-3.85,1.56-.92,3.61-1.3,6.17-1.15,2.67,.15,4.81,.83,6.41,2.03,1.6,1.2,2.54,2.83,2.81,4.9l11.07-1.98c-.42-2.91-1.53-5.45-3.33-7.61-1.8-2.16-4.16-3.83-7.09-5s-6.28-1.75-10.06-1.75-7.23,.61-10.08,1.82c-2.85,1.22-5.07,2.95-6.66,5.2s-2.38,4.89-2.38,7.92c0,2.43,.52,4.5,1.58,6.21,1.05,1.71,2.77,3.19,5.17,4.43s5.64,2.41,9.72,3.49c3.66,.96,6.38,1.75,8.15,2.38,1.77,.63,2.92,1.28,3.44,1.96,.52,.67,.79,1.57,.79,2.68,0,1.8-.71,3.22-2.14,4.25-1.43,1.04-3.44,1.55-6.05,1.55-2.97,0-5.43-.69-7.38-2.07-1.95-1.38-3.21-3.27-3.78-5.67l-11.07,1.71c.81,4.89,3.09,8.68,6.84,11.38,3.75,2.7,8.62,4.05,14.62,4.05s11.18-1.39,14.74-4.18c3.55-2.79,5.33-6.63,5.33-11.52,0-2.52-.52-4.66-1.55-6.43-1.03-1.77-2.71-3.29-5.04-4.57Z" fill="#fff"/>
<path d="M372.2,1020.03c1.83-1.33,4.16-2,6.98-2,2.49,0,4.71,.73,6.66,2.18,1.95,1.46,3.34,3.49,4.18,6.1l10.8-2.92c-1.17-4.8-3.67-8.59-7.49-11.36-3.83-2.78-8.5-4.16-14.02-4.16-4.92,0-9.17,1.1-12.74,3.31s-6.32,5.24-8.26,9.09c-1.94,3.86-2.92,8.27-2.95,13.25,.03,4.89,.98,9.27,2.86,13.14s4.58,6.92,8.12,9.16c3.54,2.24,7.81,3.35,12.83,3.35,5.43,0,10.02-1.33,13.77-3.98,3.75-2.65,6.38-6.46,7.88-11.41l-11.07-2.47c-.84,2.49-2.09,4.39-3.76,5.71s-3.94,1.98-6.82,1.98c-4.08,0-7.16-1.42-9.23-4.27-2.07-2.85-3.1-6.58-3.1-11.21,0-2.97,.43-5.62,1.3-7.96,.87-2.34,2.22-4.18,4.05-5.51Z" fill="#fff"/>
<path d="M447.39,1016.9c-1.59-3.21-4.03-5.52-7.31-6.93s-7.09-2.12-11.41-2.12c-5.73,0-10.28,1.25-13.66,3.74s-5.66,5.79-6.86,9.9l9.9,3.11c.81-2.49,2.23-4.25,4.28-5.26,2.04-1.02,4.15-1.53,6.34-1.53,3.63,0,6.21,.79,7.74,2.38,1.27,1.32,2,3.26,2.19,5.81-1.95,.29-3.87,.57-5.72,.83-3.08,.44-5.92,.91-8.55,1.42-2.62,.51-4.91,1.08-6.86,1.71-2.58,.87-4.68,1.99-6.3,3.35-1.62,1.37-2.82,2.99-3.6,4.86-.78,1.88-1.17,3.98-1.17,6.32,0,2.67,.62,5.12,1.87,7.33,1.24,2.22,3.08,4,5.51,5.33,2.43,1.33,5.4,2,8.91,2,4.38,0,8.03-.82,10.96-2.45,2.25-1.26,4.28-3.08,6.1-5.45v6.55h9.5v-29.83c0-2.1-.09-4.04-.27-5.83s-.71-3.53-1.58-5.24Zm-9.99,25.56c-.36,1.11-1.06,2.29-2.09,3.55s-2.42,2.33-4.16,3.2-3.84,1.3-6.3,1.3c-1.71,0-3.14-.27-4.3-.81-1.16-.54-2.03-1.27-2.63-2.18-.6-.92-.9-1.97-.9-3.17,0-1.05,.23-1.96,.7-2.75,.46-.78,1.13-1.47,2-2.07,.87-.6,1.94-1.12,3.2-1.58,1.29-.42,2.77-.8,4.46-1.15,1.68-.34,3.69-.71,6.03-1.1,1.49-.25,3.2-.52,5.07-.82-.02,.83-.05,1.76-.09,2.82-.08,1.79-.4,3.37-.97,4.75Z" fill="#fff"/>
<path d="M503.96,1020.14c-.66-2.1-1.68-4.08-3.06-5.94-1.38-1.86-3.24-3.39-5.58-4.59-2.34-1.2-5.31-1.8-8.91-1.8-4.56,0-8.4,1-11.52,2.99-1.68,1.07-3.13,2.35-4.37,3.81v-5.41h-9.67v48.6h10.98v-24.97c0-2.97,.33-5.41,.99-7.31s1.54-3.41,2.63-4.5c1.09-1.09,2.32-1.87,3.67-2.32,1.35-.45,2.71-.67,4.09-.67,2.58,0,4.63,.56,6.14,1.67,1.51,1.11,2.65,2.53,3.42,4.25,.76,1.73,1.25,3.52,1.46,5.38,.21,1.86,.32,3.56,.32,5.08v23.4h10.98v-27.13c0-1.17-.1-2.69-.29-4.57-.2-1.88-.62-3.86-1.28-5.96Z" fill="#fff"/>
<path d="M550.78,1011.39c-3.53-2.35-7.81-3.53-12.85-3.53-4.77,0-8.97,1.08-12.6,3.24s-6.46,5.2-8.5,9.11c-2.04,3.92-3.06,8.53-3.06,13.84,0,4.92,1.04,9.27,3.13,13.05,2.08,3.78,4.99,6.74,8.71,8.87s8.04,3.19,12.96,3.19,8.96-1.21,12.85-3.64,6.76-5.83,8.62-10.21l-10.71-3.24c-1.05,2.25-2.54,3.97-4.48,5.15-1.94,1.19-4.24,1.78-6.91,1.78-4.14,0-7.29-1.35-9.45-4.05-1.69-2.12-2.71-4.93-3.08-8.42h35.16c.42-5.82-.23-10.87-1.94-15.17-1.71-4.29-4.33-7.61-7.85-9.97Zm-12.4,5.96c3.93,0,6.81,1.21,8.64,3.65,1.3,1.72,2.13,4.18,2.53,7.33h-23.88c.5-2.81,1.43-5.1,2.82-6.86,2.16-2.74,5.46-4.12,9.9-4.12Z" fill="#fff"/>
<path d="M608.04,1016.9c-1.59-3.21-4.03-5.52-7.31-6.93s-7.09-2.12-11.41-2.12c-5.73,0-10.28,1.25-13.66,3.74s-5.66,5.79-6.86,9.9l9.9,3.11c.81-2.49,2.23-4.25,4.28-5.26,2.04-1.02,4.15-1.53,6.34-1.53,3.63,0,6.21,.79,7.74,2.38,1.27,1.32,2,3.26,2.19,5.81-1.95,.29-3.87,.57-5.72,.83-3.08,.44-5.92,.91-8.55,1.42-2.62,.51-4.91,1.08-6.86,1.71-2.58,.87-4.68,1.99-6.3,3.35-1.62,1.37-2.82,2.99-3.6,4.86-.78,1.88-1.17,3.98-1.17,6.32,0,2.67,.62,5.12,1.87,7.33,1.24,2.22,3.08,4,5.51,5.33,2.43,1.33,5.4,2,8.91,2,4.38,0,8.03-.82,10.96-2.45,2.25-1.26,4.28-3.08,6.1-5.45v6.55h9.5v-29.83c0-2.1-.09-4.04-.27-5.83s-.71-3.53-1.58-5.24Zm-9.99,25.56c-.36,1.11-1.06,2.29-2.09,3.55s-2.42,2.33-4.16,3.2-3.84,1.3-6.3,1.3c-1.71,0-3.14-.27-4.3-.81-1.16-.54-2.03-1.27-2.63-2.18-.6-.92-.9-1.97-.9-3.17,0-1.05,.23-1.96,.7-2.75,.46-.78,1.13-1.47,2-2.07,.87-.6,1.94-1.12,3.2-1.58,1.29-.42,2.77-.8,4.46-1.15,1.68-.34,3.69-.71,6.03-1.1,1.49-.25,3.2-.52,5.07-.82-.02,.83-.05,1.76-.09,2.82-.08,1.79-.4,3.37-.97,4.75Z" fill="#fff"/>
<path d="M674.15,1007.99c-3.24,0-6.18,.72-8.82,2.16-2.49,1.36-4.47,3.23-5.99,5.59-1.2-2.25-2.89-4.06-5.06-5.43-2.45-1.54-5.48-2.32-9.11-2.32-3.3,0-6.28,.73-8.93,2.18-2.04,1.12-3.76,2.56-5.15,4.32v-5.28h-9.58v48.6h10.93v-29.92c0-3.03,.83-5.49,2.5-7.38,1.67-1.89,3.88-2.83,6.64-2.83s5.1,.94,6.75,2.83c1.65,1.89,2.47,4.53,2.47,7.92v29.38h10.8v-29.92c0-2.13,.41-3.97,1.21-5.51,.81-1.54,1.91-2.71,3.29-3.51s2.94-1.19,4.68-1.19c2.82,0,5.05,.94,6.71,2.81,1.65,1.88,2.47,4.48,2.47,7.81v29.52h10.84v-32.26c0-5.25-1.43-9.49-4.3-12.71-2.87-3.22-6.98-4.84-12.35-4.84Z" fill="#fff"/>
<path d="M736.04,1011.39c-3.53-2.35-7.81-3.53-12.85-3.53-4.77,0-8.97,1.08-12.6,3.24s-6.46,5.2-8.5,9.11c-2.04,3.92-3.06,8.53-3.06,13.84,0,4.92,1.04,9.27,3.13,13.05,2.08,3.78,4.99,6.74,8.71,8.87s8.04,3.19,12.96,3.19,8.96-1.21,12.85-3.64,6.76-5.83,8.62-10.21l-10.71-3.24c-1.05,2.25-2.54,3.97-4.48,5.15-1.94,1.19-4.24,1.78-6.91,1.78-4.14,0-7.29-1.35-9.45-4.05-1.69-2.12-2.71-4.93-3.08-8.42h35.16c.42-5.82-.23-10.87-1.94-15.17-1.71-4.29-4.33-7.61-7.85-9.97Zm-12.4,5.96c3.93,0,6.81,1.21,8.64,3.65,1.3,1.72,2.13,4.18,2.53,7.33h-23.88c.5-2.81,1.43-5.1,2.82-6.86,2.16-2.74,5.46-4.12,9.9-4.12Z" fill="#fff"/>
<rect x="760.41" y="993.01" width="10.84" height="48.6" fill="#fff"/>
<rect x="760.41" y="1047.86" width="10.84" height="9.95" fill="#fff"/>
</g>
<g>
<path d="M432.81,334.5h-132.81v132.81h132.81v-132.81Zm-31.25,101.56h-70.31v-70.31h70.31v70.31Z"/>
<rect x="350.78" y="385.28" width="31.25" height="31.25"/>
<path d="M700,334.5h-132.81v132.81h132.81v-132.81Zm-31.25,101.56h-70.31v-70.31h70.31v70.31Z"/>
<rect x="617.97" y="385.28" width="31.25" height="31.25"/>
<path d="M432.81,601.69h-132.81v132.81h132.81v-132.81Zm-31.25,101.56h-70.31v-70.31h70.31v70.31Z"/>
<rect x="350.78" y="652.47" width="31.25" height="31.25"/>
<rect x="331.25" y="488.41" width="31.25" height="31.25"/>
<polygon points="392.97 550.91 392.97 582.16 424.22 582.16 424.22 550.91 393.75 550.91 393.75 519.66 362.5 519.66 362.5 550.91 392.97 550.91"/>
<rect x="518.75" y="394.66" width="31.25" height="31.25"/>
<rect x="456.25" y="365.75" width="31.25" height="60.16"/>
<rect x="487.5" y="334.5" width="31.25" height="31.25"/>
<polygon points="518.75 425.91 487.5 425.91 487.5 457.16 456.25 457.16 456.25 488.41 518.75 488.41 518.75 425.91"/>
<polygon points="487.5 582.16 487.5 612.62 518.75 612.62 518.75 643.09 581.25 643.09 581.25 611.84 518.75 611.84 518.75 581.38 487.5 581.38 487.5 519.66 456.25 519.66 456.25 582.16 487.5 582.16"/>
<rect x="518.75" y="488.41" width="31.25" height="62.5"/>
<path d="M612.5,581.38h87.5v-62.5h-31.25v-30.47h-57.03v31.25h-30.47v31.25h31.25v30.47Zm0-61.72h56.25v30.47h-56.25v-30.47Z"/>
<rect x="668.75" y="611.84" width="31.25" height="62.5"/>
<rect x="550" y="550.91" width="31.25" height="31.25"/>
<rect x="581.25" y="643.09" width="31.25" height="31.25"/>
<rect x="612.5" y="611.84" width="31.25" height="31.25"/>
<polygon points="643.75 734.5 643.75 705.59 668.75 705.59 668.75 674.34 612.5 674.34 612.5 734.5 643.75 734.5"/>
<rect x="456.25" y="612.62" width="31.25" height="59.38"/>
<polygon points="518.75 734.5 518.75 703.25 549.22 703.25 549.22 734.5 580.47 734.5 580.47 703.25 550 703.25 550 672 487.5 672 487.5 734.5 518.75 734.5"/>
<rect x="393.75" y="488.41" width="62.5" height="31.25"/>
<rect x="300" y="519.66" width="31.25" height="62.5"/>
</g>
</svg>