<?xml version="1.0" encoding="UTF-8"?>
<svg id="TEXTO" xmlns="http://www.w3.org/2000/svg" viewBox="0 0 1000 1300">
<ellipse cx="500" cy="77.66" rx="84.18" ry="77.66" fill="#585858"/>
<ellipse cx="500" cy="355.25" rx="431.82" ry="289.59"/>
<ellipse cx="500" cy="462.67" rx="449.3" ry="227.62"/>
<g>
<path d="M979.16,1103.64c0-31.96,0-88.8,0-88.8l-957.45-9.33s-.88,58.47-.88,98.13c0,108.45,214.53,196.36,479.16,196.36s479.16-87.92,479.16-196.36Z"/>
<ellipse cx="500" cy="966.52" rx="500" ry="253.31" fill="#585858"/>
<ellipse cx="500" cy="940.02" rx="449.3" ry="227.62"/>
</g>
<g>
<path d="M847.48,955.96H152.52V301c0-22.09,17.91-40,40-40H807.48c22.09,0,40,17.91,40,40V955.96Z" fill="#fff"/>
<path d="M820.75,277.73c5.51,0,10,4.49,10,10V939.23H169.25V287.73c0-5.51,4.49-10,10-10H820.75m0-30H179.25c-22.09,0-40,17.91-40,40V969.23H860.75V287.73c0-22.09-17.91-40-40-40h0Z"/>
<rect x="221.07" y="329.55" width="557.86" height="557.86" rx="20.95" ry="20.95" fill="#e5e7ef"/>
</g>
<path d="M500,182.86C223.86,182.86,0,296.27,0,436.17,0,504.25,53.01,566.04,139.25,611.56v-13.19c-55.63-37.89-88.55-84.85-88.55-135.7,0-125.71,201.16-227.62,449.3-227.62s449.3,101.91,449.3,227.62c0,50.85-32.92,97.81-88.55,135.7v13.19c86.24-45.51,139.25-107.31,139.25-175.39,0-139.9-223.86-253.31-500-253.31Z" fill="#585858"/>
<g>
<rect x="228.75" y="1007.95" width="10.84" height="9.94" fill="#fff"/>
<rect x="228.75" y="1024.15" width="10.84" height="48.6" fill="#fff"/>
<polygon points="256.69 1056.55 298.54 1056.55 298.54 1046.38 267.54 1046.38 267.54 1028.06 293.14 1028.06 293.14 1017.89 267.54 1017.89 267.54 1001.92 298.54 1001.92 298.54 991.75 256.69 991.75 256.69 1056.55" fill="#fff"/>
<path d="M341.58,1031.19c-2.33-1.27-5.42-2.41-9.29-3.4-3.78-.96-6.62-1.77-8.53-2.43s-3.17-1.32-3.8-1.98c-.63-.66-.94-1.46-.94-2.38,0-1.65,.78-2.93,2.34-3.85,1.56-.92,3.61-1.3,6.17-1.15,2.67,.15,4.81,.83,6.41,2.03,1.6,1.2,2.54,2.83,2.81,4.9l11.07-1.98c-.42-2.91-1.53-5.45-3.33-7.61s-4.16-3.83-7.09-5c-2.92-1.17-6.28-1.75-10.06-1.75s-7.23,.61-10.08,1.82c-2.85,1.22-5.07,2.95-6.66,5.2-1.59,2.25-2.39,4.89-2.39,7.92,0,2.43,.53,4.5,1.58,6.21s2.77,3.19,5.17,4.43,5.64,2.41,9.72,3.49c3.66,.96,6.37,1.75,8.14,2.38,1.77,.63,2.92,1.28,3.44,1.96,.52,.67,.79,1.57,.79,2.68,0,1.8-.71,3.22-2.14,4.25-1.43,1.04-3.44,1.55-6.05,1.55-2.97,0-5.43-.69-7.38-2.07s-3.21-3.27-3.78-5.67l-11.07,1.71c.81,4.89,3.09,8.68,6.84,11.38,3.75,2.7,8.62,4.05,14.62,4.05s11.18-1.39,14.74-4.18,5.33-6.63,5.33-11.52c0-2.52-.52-4.66-1.55-6.43-1.04-1.77-2.72-3.29-5.04-4.57Z" fill="#fff"/>
<path d="M372.2,1018.77c1.83-1.33,4.16-2,6.97-2,2.49,0,4.71,.73,6.66,2.18,1.95,1.46,3.34,3.49,4.19,6.1l10.8-2.92c-1.17-4.8-3.67-8.59-7.49-11.36-3.83-2.78-8.5-4.16-14.02-4.16-4.92,0-9.17,1.1-12.74,3.31s-6.32,5.24-8.26,9.09c-1.93,3.86-2.92,8.27-2.95,13.25,.03,4.89,.98,9.27,2.86,13.14s4.58,6.92,8.12,9.16c3.54,2.24,7.81,3.35,12.82,3.35,5.43,0,10.02-1.33,13.77-3.98,3.75-2.65,6.37-6.46,7.88-11.41l-11.07-2.47c-.84,2.49-2.09,4.39-3.76,5.71s-3.94,1.98-6.82,1.98c-4.08,0-7.15-1.42-9.22-4.27-2.07-2.85-3.1-6.58-3.1-11.21,0-2.97,.43-5.62,1.3-7.96,.87-2.34,2.22-4.18,4.05-5.51Z" fill="#fff"/>
<path d="M447.4,1015.64c-1.59-3.21-4.03-5.52-7.31-6.93-3.29-1.41-7.09-2.12-11.41-2.12-5.73,0-10.28,1.25-13.66,3.74s-5.66,5.79-6.86,9.9l9.9,3.11c.81-2.49,2.24-4.25,4.28-5.26s4.15-1.53,6.34-1.53c3.63,0,6.21,.79,7.74,2.38,1.27,1.32,2,3.26,2.19,5.81-1.95,.29-3.87,.57-5.72,.83-3.08,.44-5.93,.91-8.55,1.42-2.63,.51-4.91,1.08-6.86,1.71-2.58,.87-4.68,1.99-6.3,3.35-1.62,1.37-2.82,2.99-3.6,4.86-.78,1.88-1.17,3.98-1.17,6.32,0,2.67,.62,5.12,1.87,7.33,1.24,2.22,3.08,4,5.51,5.33,2.43,1.33,5.4,2,8.91,2,4.38,0,8.03-.82,10.96-2.45,2.25-1.26,4.28-3.08,6.1-5.45v6.55h9.5v-29.83c0-2.1-.09-4.04-.27-5.83-.18-1.79-.71-3.53-1.57-5.24Zm-9.99,25.56c-.36,1.11-1.06,2.29-2.09,3.55s-2.42,2.33-4.16,3.2c-1.74,.87-3.84,1.3-6.3,1.3-1.71,0-3.14-.27-4.3-.81-1.16-.54-2.03-1.27-2.63-2.18-.6-.92-.9-1.97-.9-3.17,0-1.05,.23-1.96,.7-2.75,.46-.78,1.13-1.47,2-2.07,.87-.6,1.94-1.12,3.2-1.58,1.29-.42,2.77-.8,4.46-1.15,1.68-.34,3.69-.71,6.03-1.1,1.49-.25,3.19-.52,5.06-.82-.02,.83-.05,1.76-.09,2.82-.08,1.79-.4,3.37-.97,4.75Z" fill="#fff"/>
<path d="M503.96,1018.88c-.66-2.1-1.68-4.08-3.06-5.94-1.38-1.86-3.24-3.39-5.58-4.59-2.34-1.2-5.31-1.8-8.91-1.8-4.56,0-8.4,1-11.52,2.99-1.68,1.07-3.13,2.35-4.37,3.81v-5.41h-9.67v48.6h10.98v-24.97c0-2.97,.33-5.41,.99-7.31,.66-1.91,1.54-3.41,2.63-4.5,1.09-1.09,2.32-1.87,3.67-2.32,1.35-.45,2.71-.67,4.09-.67,2.58,0,4.63,.56,6.14,1.67,1.51,1.11,2.66,2.53,3.42,4.25,.76,1.73,1.25,3.52,1.46,5.38,.21,1.86,.31,3.56,.31,5.08v23.4h10.98v-27.13c0-1.17-.1-2.69-.29-4.57s-.62-3.86-1.28-5.96Z" fill="#fff"/>
<path d="M550.78,1010.13c-3.53-2.35-7.81-3.53-12.85-3.53-4.77,0-8.97,1.08-12.6,3.24s-6.46,5.2-8.5,9.11-3.06,8.53-3.06,13.84c0,4.92,1.04,9.27,3.13,13.05s4.99,6.74,8.71,8.87c3.72,2.13,8.04,3.19,12.96,3.19s8.96-1.21,12.85-3.64,6.76-5.83,8.62-10.21l-10.71-3.24c-1.05,2.25-2.54,3.97-4.48,5.15-1.94,1.19-4.24,1.78-6.91,1.78-4.14,0-7.29-1.35-9.45-4.05-1.69-2.12-2.71-4.93-3.08-8.42h35.17c.42-5.82-.23-10.87-1.94-15.17-1.71-4.29-4.33-7.61-7.85-9.97Zm-12.4,5.96c3.93,0,6.81,1.21,8.64,3.65,1.3,1.72,2.13,4.18,2.53,7.33h-23.89c.5-2.81,1.43-5.1,2.82-6.86,2.16-2.74,5.46-4.12,9.9-4.12Z" fill="#fff"/>
<path d="M608.05,1015.64c-1.59-3.21-4.03-5.52-7.31-6.93s-7.09-2.12-11.41-2.12c-5.73,0-10.28,1.25-13.66,3.74s-5.66,5.79-6.86,9.9l9.9,3.11c.81-2.49,2.23-4.25,4.28-5.26,2.04-1.02,4.15-1.53,6.34-1.53,3.63,0,6.21,.79,7.74,2.38,1.27,1.32,2,3.26,2.19,5.81-1.95,.29-3.87,.57-5.72,.83-3.08,.44-5.92,.91-8.55,1.42-2.62,.51-4.91,1.08-6.86,1.71-2.58,.87-4.68,1.99-6.3,3.35-1.62,1.37-2.82,2.99-3.6,4.86-.78,1.88-1.17,3.98-1.17,6.32,0,2.67,.62,5.12,1.87,7.33,1.24,2.22,3.08,4,5.51,5.33,2.43,1.33,5.4,2,8.91,2,4.38,0,8.03-.82,10.96-2.45,2.25-1.26,4.28-3.08,6.1-5.45v6.55h9.5v-29.83c0-2.1-.09-4.04-.27-5.83s-.71-3.53-1.58-5.24Zm-9.99,25.56c-.36,1.11-1.06,2.29-2.09,3.55s-2.42,2.33-4.16,3.2-3.84,1.3-6.3,1.3c-1.71,0-3.14-.27-4.3-.81-1.16-.54-2.03-1.27-2.63-2.18-.6-.92-.9-1.97-.9-3.17,0-1.05,.23-1.96,.7-2.75,.46-.78,1.13-1.47,2-2.07,.87-.6,1.94-1.12,3.2-1.58,1.29-.42,2.77-.8,4.46-1.15,1.68-.34,3.69-.71,6.03-1.1,1.49-.25,3.2-.52,5.07-.82-.02,.83-.05,1.76-.09,2.82-.08,1.79-.4,3.37-.97,4.75Z" fill="#fff"/>
<path d="M674.15,1006.73c-3.24,0-6.18,.72-8.82,2.16-2.49,1.36-4.47,3.23-5.99,5.59-1.2-2.25-2.89-4.06-5.06-5.43-2.45-1.54-5.48-2.32-9.11-2.32-3.3,0-6.28,.73-8.93,2.18-2.04,1.12-3.76,2.56-5.15,4.32v-5.28h-9.58v48.6h10.93v-29.92c0-3.03,.83-5.49,2.5-7.38,1.67-1.89,3.88-2.83,6.64-2.83s5.1,.94,6.75,2.83c1.65,1.89,2.47,4.53,2.47,7.92v29.38h10.8v-29.92c0-2.13,.41-3.97,1.21-5.51,.81-1.54,1.91-2.71,3.29-3.51s2.94-1.19,4.68-1.19c2.82,0,5.05,.94,6.71,2.81,1.65,1.88,2.47,4.48,2.47,7.81v29.52h10.84v-32.26c0-5.25-1.43-9.49-4.3-12.71-2.87-3.22-6.98-4.84-12.35-4.84Z" fill="#fff"/>
<path d="M736.05,1010.13c-3.53-2.35-7.81-3.53-12.85-3.53-4.77,0-8.97,1.08-12.6,3.24s-6.46,5.2-8.5,9.11c-2.04,3.92-3.06,8.53-3.06,13.84,0,4.92,1.04,9.27,3.13,13.05,2.08,3.78,4.99,6.74,8.71,8.87s8.04,3.19,12.96,3.19,8.96-1.21,12.85-3.64,6.76-5.83,8.62-10.21l-10.71-3.24c-1.05,2.25-2.54,3.97-4.48,5.15-1.94,1.19-4.24,1.78-6.91,1.78-4.14,0-7.29-1.35-9.45-4.05-1.69-2.12-2.71-4.93-3.08-8.42h35.16c.42-5.82-.23-10.87-1.94-15.17-1.71-4.29-4.33-7.61-7.85-9.97Zm-12.4,5.96c3.93,0,6.81,1.21,8.64,3.65,1.3,1.72,2.13,4.18,2.53,7.33h-23.89c.5-2.81,1.43-5.1,2.82-6.86,2.16-2.74,5.46-4.12,9.9-4.12Z" fill="#fff"/>
<rect x="760.41" y="1046.6" width="10.84" height="9.95" fill="#fff"/>
<rect x="760.41" y="991.75" width="10.84" height="48.6" fill="#fff"/>
</g>
<g>
<path d="M432.81,408.48h-132.81v132.81h132.81v-132.81Zm-31.25,101.56h-70.31v-70.31h70.31v70.31Z"/>
<rect x="350.78" y="459.26" width="31.25" height="31.25"/>
<path d="M700,408.48h-132.81v132.81h132.81v-132.81Zm-31.25,101.56h-70.31v-70.31h70.31v70.31Z"/>
<rect x="617.97" y="459.26" width="31.25" height="31.25"/>
<path d="M432.81,675.67h-132.81v132.81h132.81v-132.81Zm-31.25,101.56h-70.31v-70.31h70.31v70.31Z"/>
<rect x="350.78" y="726.45" width="31.25" height="31.25"/>
<rect x="331.25" y="562.39" width="31.25" height="31.25"/>
<polygon points="392.97 624.89 392.97 656.14 424.22 656.14 424.22 624.89 393.75 624.89 393.75 593.64 362.5 593.64 362.5 624.89 392.97 624.89"/>
<rect x="518.75" y="468.64" width="31.25" height="31.25"/>
<rect x="456.25" y="439.73" width="31.25" height="60.16"/>
<rect x="487.5" y="408.48" width="31.25" height="31.25"/>
<polygon points="518.75 499.89 487.5 499.89 487.5 531.14 456.25 531.14 456.25 562.39 518.75 562.39 518.75 499.89"/>
<polygon points="487.5 656.14 487.5 686.61 518.75 686.61 518.75 717.08 581.25 717.08 581.25 685.83 518.75 685.83 518.75 655.36 487.5 655.36 487.5 593.64 456.25 593.64 456.25 656.14 487.5 656.14"/>
<rect x="518.75" y="562.39" width="31.25" height="62.5"/>
<path d="M612.5,655.36h87.5v-62.5h-31.25v-30.47h-57.03v31.25h-30.47v31.25h31.25v30.47Zm0-61.72h56.25v30.47h-56.25v-30.47Z"/>
<rect x="668.75" y="685.83" width="31.25" height="62.5"/>
<rect x="550" y="624.89" width="31.25" height="31.25"/>
<rect x="581.25" y="717.08" width="31.25" height="31.25"/>
<rect x="612.5" y="685.83" width="31.25" height="31.25"/>
<polygon points="643.75 808.48 643.75 779.58 668.75 779.58 668.75 748.33 612.5 748.33 612.5 808.48 643.75 808.48"/>
<rect x="456.25" y="686.61" width="31.25" height="59.38"/>
<polygon points="518.75 808.48 518.75 777.23 549.22 777.23 549.22 808.48 580.47 808.48 580.47 777.23 550 777.23 550 745.98 487.5 745.98 487.5 808.48 518.75 808.48"/>
<rect x="393.75" y="562.39" width="62.5" height="31.25"/>
<rect x="300" y="593.64" width="31.25" height="62.5"/>
</g>
</svg>