<?xml version="1.0" encoding="UTF-8"?>
<svg id="TEXTO" xmlns="http://www.w3.org/2000/svg" viewBox="0 0 1000 990">
<g>
<g>
<path d="M419.69,351.56v-78.1H108.79c-13.8,0-26.37,8.67-31.27,21.56l-20.88,54.9H27.7c-15.27,0-27.7,12.43-27.7,27.7v39.07c0,15.27,12.43,27.7,27.7,27.7h13.76l38.62,545.62H423.62l-38.62-545.62h25.3c15.27,0,27.7-12.43,27.7-27.7v-39.07c0-11.98-7.64-22.2-18.31-26.06ZM96.85,972L59.55,445H367l37.3,527H96.85Zm-2.51-670.58c2.27-5.96,8.07-9.96,14.45-9.96H401.69v58.46H75.9l18.44-48.5Zm325.66,115.26c0,5.35-4.35,9.7-9.7,9.7H27.7c-5.35,0-9.7-4.35-9.7-9.7v-39.07c0-5.35,4.35-9.7,9.7-9.7H410.3c5.35,0,9.7,4.35,9.7,9.7v39.07Z"/>
<polygon points="428.73 810.69 414.41 609.31 34.28 609.31 48.61 810.69 428.73 810.69"/>
</g>
<path d="M930.91,88.81c-1.02-17.33-14.96-30.89-31.88-30.99-76.95-.47-276.25-1.7-295.43-1.81h0s-.26,0-.75,0c-.48,0-.75,0-.75,0h0c-19.18,.13-218.47,1.36-295.43,1.82-16.92,.1-30.86,13.65-31.88,30.99l-51.03,866.22c-1.12,18.96,13.57,34.97,32.08,34.97H949.86c18.51,0,33.2-16.01,32.08-34.97l-51.03-866.22Z" fill="#585858" opacity=".5"/>
<path d="M948.91,88.81c-1.02-17.33-14.96-30.89-31.88-30.99-76.95-.47-276.25-1.7-295.43-1.81h0s-.26,0-.75,0c-.48,0-.75,0-.75,0h0c-19.18,.13-218.47,1.36-295.43,1.82-16.92,.1-30.86,13.65-31.88,30.99l-51.03,866.22c-1.12,18.96,13.57,34.97,32.08,34.97H967.86c18.51,0,33.2-16.01,32.08-34.97l-51.03-866.22Z"/>
<path d="M288.32,164.84c2.84,.75,5.81,1.16,8.88,1.16H946.21c2.47,0,4.87-.26,7.2-.76l-4.5-76.43c-1.02-17.33-14.96-30.89-31.88-30.99-76.95-.47-276.25-1.7-295.43-1.81h0s-.26,0-.75,0c-.48,0-.75,0-.75,0h0c-19.18,.13-218.47,1.36-295.43,1.82-16.92,.1-30.86,13.65-31.88,30.99l-4.48,76.03Z" fill="#585858"/>
<path d="M954.56,137H287.15c-15.79,0-28.59-13.14-28.59-29.34l7.12-95.83c.5-6.67,5.92-11.82,12.44-11.82H963.59c6.52,0,11.94,5.15,12.44,11.82l7.12,95.83c0,16.2-12.8,29.34-28.59,29.34Z"/>
<rect x="349.53" y="244.52" width="544.47" height="544.47" rx="20.95" ry="20.95" fill="#e5e7ef"/>
</g>
<g>
<rect x="350.51" y="868.15" width="10.85" height="9.94" fill="#fff"/>
<rect x="350.51" y="884.35" width="10.85" height="48.6" fill="#fff"/>
<polygon points="378.46 916.75 420.31 916.75 420.31 906.58 389.3 906.58 389.3 888.27 414.91 888.27 414.91 878.1 389.3 878.1 389.3 862.12 420.31 862.12 420.31 851.95 378.46 851.95 378.46 916.75" fill="#fff"/>
<path d="M463.35,891.4c-2.33-1.27-5.42-2.41-9.29-3.4-3.78-.96-6.62-1.77-8.53-2.43s-3.17-1.32-3.8-1.98c-.63-.66-.94-1.46-.94-2.38,0-1.65,.78-2.93,2.34-3.85s3.61-1.3,6.17-1.15c2.67,.15,4.81,.83,6.41,2.03s2.54,2.83,2.81,4.9l11.07-1.98c-.42-2.91-1.53-5.45-3.33-7.61-1.8-2.16-4.16-3.83-7.09-5-2.92-1.17-6.28-1.75-10.06-1.75s-7.23,.61-10.08,1.82c-2.85,1.22-5.07,2.95-6.66,5.2s-2.38,4.89-2.38,7.92c0,2.43,.52,4.5,1.57,6.21,1.05,1.71,2.78,3.19,5.18,4.43,2.4,1.25,5.64,2.41,9.72,3.49,3.66,.96,6.37,1.75,8.15,2.38,1.77,.63,2.92,1.28,3.44,1.96,.53,.67,.79,1.57,.79,2.68,0,1.8-.71,3.22-2.14,4.25-1.43,1.04-3.44,1.55-6.05,1.55-2.97,0-5.43-.69-7.38-2.07-1.95-1.38-3.21-3.27-3.78-5.67l-11.07,1.71c.81,4.89,3.09,8.68,6.84,11.38,3.75,2.7,8.62,4.05,14.62,4.05s11.18-1.39,14.74-4.18,5.33-6.63,5.33-11.52c0-2.52-.52-4.66-1.55-6.43-1.04-1.77-2.72-3.29-5.04-4.57Z" fill="#fff"/>
<path d="M493.97,878.98c1.83-1.33,4.16-2,6.97-2,2.49,0,4.71,.73,6.66,2.18,1.95,1.46,3.35,3.49,4.19,6.1l10.8-2.92c-1.17-4.8-3.67-8.59-7.49-11.36-3.83-2.78-8.5-4.16-14.02-4.16-4.92,0-9.17,1.1-12.74,3.31s-6.32,5.24-8.26,9.09c-1.93,3.86-2.92,8.27-2.95,13.25,.03,4.89,.98,9.27,2.86,13.14s4.58,6.92,8.12,9.16c3.54,2.24,7.81,3.35,12.82,3.35,5.43,0,10.02-1.33,13.77-3.98,3.75-2.65,6.37-6.46,7.88-11.41l-11.07-2.47c-.84,2.49-2.09,4.39-3.76,5.71s-3.94,1.98-6.82,1.98c-4.08,0-7.15-1.42-9.22-4.27-2.07-2.85-3.1-6.58-3.1-11.21,0-2.97,.43-5.62,1.3-7.96,.87-2.34,2.22-4.18,4.05-5.51Z" fill="#fff"/>
<path d="M569.16,875.85c-1.59-3.21-4.03-5.52-7.31-6.93-3.29-1.41-7.09-2.12-11.41-2.12-5.73,0-10.28,1.25-13.66,3.74s-5.66,5.79-6.86,9.9l9.9,3.11c.81-2.49,2.24-4.25,4.28-5.26s4.15-1.53,6.35-1.53c3.63,0,6.21,.79,7.74,2.38,1.27,1.32,2,3.26,2.19,5.81-1.95,.29-3.87,.57-5.72,.83-3.08,.44-5.93,.91-8.55,1.42-2.63,.51-4.91,1.08-6.86,1.71-2.58,.87-4.68,1.99-6.3,3.35-1.62,1.37-2.82,2.99-3.6,4.86-.78,1.88-1.17,3.98-1.17,6.32,0,2.67,.62,5.12,1.87,7.33,1.24,2.22,3.08,4,5.51,5.33,2.43,1.33,5.4,2,8.91,2,4.38,0,8.03-.82,10.96-2.45,2.25-1.26,4.28-3.08,6.1-5.45v6.55h9.5v-29.83c0-2.1-.09-4.04-.27-5.83s-.71-3.53-1.58-5.24Zm-9.99,25.56c-.36,1.11-1.06,2.29-2.09,3.55s-2.42,2.33-4.16,3.2c-1.74,.87-3.84,1.3-6.3,1.3-1.71,0-3.14-.27-4.3-.81-1.16-.54-2.03-1.27-2.63-2.18s-.9-1.97-.9-3.17c0-1.05,.23-1.96,.7-2.75,.46-.78,1.13-1.47,2-2.07,.87-.6,1.93-1.12,3.2-1.58,1.29-.42,2.77-.8,4.45-1.15s3.69-.71,6.03-1.1c1.49-.25,3.19-.52,5.06-.82-.02,.83-.05,1.76-.09,2.82-.08,1.79-.4,3.37-.97,4.75Z" fill="#fff"/>
<path d="M625.73,879.09c-.66-2.1-1.68-4.08-3.06-5.94-1.38-1.86-3.24-3.39-5.58-4.59-2.34-1.2-5.31-1.8-8.91-1.8-4.56,0-8.4,1-11.52,2.99-1.68,1.07-3.13,2.35-4.37,3.81v-5.41h-9.67v48.6h10.98v-24.97c0-2.97,.33-5.41,.99-7.31s1.54-3.41,2.63-4.5,2.32-1.87,3.67-2.32c1.35-.45,2.71-.67,4.1-.67,2.58,0,4.63,.56,6.14,1.67,1.51,1.11,2.65,2.53,3.42,4.25,.76,1.73,1.25,3.52,1.46,5.38,.21,1.86,.32,3.56,.32,5.08v23.4h10.98v-27.13c0-1.17-.1-2.69-.29-4.57-.2-1.88-.62-3.86-1.28-5.96Z" fill="#fff"/>
<path d="M672.55,870.34c-3.53-2.35-7.81-3.53-12.85-3.53-4.77,0-8.97,1.08-12.6,3.24s-6.46,5.2-8.5,9.11c-2.04,3.92-3.06,8.53-3.06,13.84,0,4.92,1.04,9.27,3.13,13.05,2.08,3.78,4.99,6.74,8.71,8.87s8.04,3.19,12.96,3.19,8.96-1.21,12.85-3.64,6.76-5.83,8.62-10.21l-10.71-3.24c-1.05,2.25-2.54,3.97-4.48,5.15-1.94,1.19-4.24,1.78-6.91,1.78-4.14,0-7.29-1.35-9.45-4.05-1.69-2.12-2.71-4.93-3.08-8.42h35.16c.42-5.82-.23-10.87-1.94-15.17-1.71-4.29-4.33-7.61-7.85-9.97Zm-12.4,5.96c3.93,0,6.81,1.21,8.64,3.65,1.3,1.72,2.13,4.18,2.53,7.33h-23.89c.5-2.81,1.43-5.1,2.82-6.86,2.16-2.74,5.46-4.12,9.9-4.12Z" fill="#fff"/>
<path d="M729.81,875.85c-1.59-3.21-4.03-5.52-7.31-6.93s-7.09-2.12-11.41-2.12c-5.73,0-10.28,1.25-13.66,3.74s-5.66,5.79-6.86,9.9l9.9,3.11c.81-2.49,2.23-4.25,4.28-5.26,2.04-1.02,4.15-1.53,6.34-1.53,3.63,0,6.21,.79,7.74,2.38,1.27,1.32,2,3.26,2.19,5.81-1.95,.29-3.87,.57-5.72,.83-3.08,.44-5.92,.91-8.55,1.42-2.62,.51-4.91,1.08-6.86,1.71-2.58,.87-4.68,1.99-6.3,3.35-1.62,1.37-2.82,2.99-3.6,4.86-.78,1.88-1.17,3.98-1.17,6.32,0,2.67,.62,5.12,1.87,7.33,1.24,2.22,3.08,4,5.51,5.33,2.43,1.33,5.4,2,8.91,2,4.38,0,8.03-.82,10.96-2.45,2.25-1.26,4.28-3.08,6.1-5.45v6.55h9.5v-29.83c0-2.1-.09-4.04-.27-5.83s-.71-3.53-1.58-5.24Zm-9.99,25.56c-.36,1.11-1.06,2.29-2.09,3.55s-2.42,2.33-4.16,3.2-3.84,1.3-6.3,1.3c-1.71,0-3.14-.27-4.3-.81-1.16-.54-2.03-1.27-2.63-2.18-.6-.92-.9-1.97-.9-3.17,0-1.05,.23-1.96,.7-2.75,.46-.78,1.13-1.47,2-2.07,.87-.6,1.94-1.12,3.2-1.58,1.29-.42,2.77-.8,4.46-1.15,1.68-.34,3.69-.71,6.03-1.1,1.49-.25,3.2-.52,5.07-.82-.02,.83-.05,1.76-.09,2.82-.08,1.79-.4,3.37-.97,4.75Z" fill="#fff"/>
<path d="M795.92,866.94c-3.24,0-6.18,.72-8.82,2.16-2.49,1.36-4.47,3.23-5.99,5.59-1.2-2.25-2.89-4.06-5.06-5.43-2.45-1.54-5.48-2.32-9.11-2.32-3.3,0-6.28,.73-8.93,2.18-2.04,1.12-3.76,2.56-5.15,4.32v-5.28h-9.58v48.6h10.93v-29.92c0-3.03,.83-5.49,2.5-7.38,1.67-1.89,3.88-2.83,6.64-2.83s5.1,.94,6.75,2.83c1.65,1.89,2.47,4.53,2.47,7.92v29.38h10.8v-29.92c0-2.13,.41-3.97,1.21-5.51,.81-1.54,1.91-2.71,3.29-3.51s2.94-1.19,4.68-1.19c2.82,0,5.05,.94,6.71,2.81,1.65,1.88,2.47,4.48,2.47,7.81v29.52h10.84v-32.26c0-5.25-1.43-9.49-4.3-12.71-2.87-3.22-6.98-4.84-12.35-4.84Z" fill="#fff"/>
<path d="M857.81,870.34c-3.53-2.35-7.81-3.53-12.85-3.53-4.77,0-8.97,1.08-12.6,3.24s-6.46,5.2-8.5,9.11c-2.04,3.92-3.06,8.53-3.06,13.84,0,4.92,1.04,9.27,3.13,13.05,2.08,3.78,4.99,6.74,8.71,8.87s8.04,3.19,12.96,3.19,8.96-1.21,12.85-3.64,6.76-5.83,8.62-10.21l-10.71-3.24c-1.05,2.25-2.54,3.97-4.48,5.15-1.94,1.19-4.24,1.78-6.91,1.78-4.14,0-7.29-1.35-9.45-4.05-1.69-2.12-2.71-4.93-3.08-8.42h35.16c.42-5.82-.23-10.87-1.94-15.17-1.71-4.29-4.33-7.61-7.85-9.97Zm-12.4,5.96c3.93,0,6.81,1.21,8.64,3.65,1.3,1.72,2.13,4.18,2.53,7.33h-23.89c.5-2.81,1.43-5.1,2.82-6.86,2.16-2.74,5.46-4.12,9.9-4.12Z" fill="#fff"/>
<rect x="882.18" y="851.95" width="10.84" height="48.6" fill="#fff"/>
<rect x="882.18" y="906.81" width="10.84" height="9.95" fill="#fff"/>
</g>
<g>
<path d="M553.67,323h-132.81v132.81h132.81v-132.81Zm-31.25,101.56h-70.31v-70.31h70.31v70.31Z"/>
<rect x="471.64" y="373.78" width="31.25" height="31.25"/>
<path d="M820.86,323h-132.81v132.81h132.81v-132.81Zm-31.25,101.56h-70.31v-70.31h70.31v70.31Z"/>
<rect x="738.82" y="373.78" width="31.25" height="31.25"/>
<path d="M553.67,590.19h-132.81v132.81h132.81v-132.81Zm-31.25,101.56h-70.31v-70.31h70.31v70.31Z"/>
<rect x="471.64" y="640.97" width="31.25" height="31.25"/>
<rect x="452.11" y="476.91" width="31.25" height="31.25"/>
<polygon points="513.82 539.41 513.82 570.66 545.07 570.66 545.07 539.41 514.61 539.41 514.61 508.16 483.36 508.16 483.36 539.41 513.82 539.41"/>
<rect x="639.61" y="383.16" width="31.25" height="31.25"/>
<rect x="577.11" y="354.25" width="31.25" height="60.16"/>
<rect x="608.36" y="323" width="31.25" height="31.25"/>
<polygon points="639.61 414.41 608.36 414.41 608.36 445.66 577.11 445.66 577.11 476.91 639.61 476.91 639.61 414.41"/>
<polygon points="608.36 570.66 608.36 601.12 639.61 601.12 639.61 631.59 702.11 631.59 702.11 600.34 639.61 600.34 639.61 569.88 608.36 569.88 608.36 508.16 577.11 508.16 577.11 570.66 608.36 570.66"/>
<rect x="639.61" y="476.91" width="31.25" height="62.5"/>
<path d="M733.36,569.88h87.5v-62.5h-31.25v-30.47h-57.03v31.25h-30.47v31.25h31.25v30.47Zm0-61.72h56.25v30.47h-56.25v-30.47Z"/>
<rect x="789.61" y="600.34" width="31.25" height="62.5"/>
<rect x="670.86" y="539.41" width="31.25" height="31.25"/>
<rect x="702.11" y="631.59" width="31.25" height="31.25"/>
<rect x="733.36" y="600.34" width="31.25" height="31.25"/>
<polygon points="764.61 723 764.61 694.09 789.61 694.09 789.61 662.84 733.36 662.84 733.36 723 764.61 723"/>
<rect x="577.11" y="601.12" width="31.25" height="59.38"/>
<polygon points="639.61 723 639.61 691.75 670.07 691.75 670.07 723 701.32 723 701.32 691.75 670.86 691.75 670.86 660.5 608.36 660.5 608.36 723 639.61 723"/>
<rect x="514.61" y="476.91" width="62.5" height="31.25"/>
<rect x="420.86" y="508.16" width="31.25" height="62.5"/>
</g>
</svg>