<?xml version="1.0" encoding="UTF-8"?>
<svg id="TEXTO" xmlns="http://www.w3.org/2000/svg" viewBox="0 0 1000 990">
<g>
<g>
<g>
<path d="M846.16,749.44c-66.41,0-120.25,53.84-120.25,120.25s53.84,120.25,120.25,120.25,120.25-53.84,120.25-120.25-53.84-120.25-120.25-120.25Zm0,197.14c-42.46,0-76.88-34.42-76.88-76.88s34.42-76.88,76.88-76.88,76.88,34.42,76.88,76.88-34.42,76.88-76.88,76.88Z" fill="#585858"/>
<circle cx="846.16" cy="869.69" r="38.5" transform="translate(-367.13 853.05) rotate(-45)" fill="#585858"/>
</g>
<g>
<path d="M338.81,749.44c-66.41,0-120.25,53.84-120.25,120.25s53.84,120.25,120.25,120.25,120.25-53.84,120.25-120.25-53.84-120.25-120.25-120.25Zm0,197.14c-42.46,0-76.88-34.42-76.88-76.88s34.42-76.88,76.88-76.88,76.88,34.42,76.88,76.88-34.42,76.88-76.88,76.88Z" fill="#585858"/>
<circle cx="338.81" cy="869.69" r="38.5" transform="translate(-515.73 494.3) rotate(-45)" fill="#585858"/>
</g>
<path d="M1000,835.9s0-.05,0-.08c0-84.96-68.88-153.84-153.84-153.84s-153.84,68.88-153.84,153.84c0,.03,0,.05,0,.08h307.68Z"/>
<path d="M871.73,683.59l-103.67-218.7,12.65-2.85-20.27-89.98c-2.93-13.02-15.86-21.19-28.88-18.26l-104.75,23.6,18.91,83.92c3.69,16.37,19.95,26.65,36.31,22.96h0l35.33,213.86c2.78,16.84-2.73,33.98-14.79,46.05l-44.73,44.73c-9.93,9.93-23.39,15.5-37.42,15.5h-73.36v-133.99h31.4c6.81,0,12.33-5.52,12.33-12.33v-47.49c0-6.81-5.52-12.33-12.33-12.33H273.07c-6.81,0-12.33,5.52-12.33,12.33v27.58c-76.64,30.92-130.74,106-130.74,193.72,0,5.35,.2,10.66,.6,15.91,.93,12.33,11.14,21.88,23.5,21.88h495.04c13.3,0,26.11-5.01,35.89-14.03l186.01-171.62-.12-.16,.8-.31Z" fill="#585858"/>
<rect x="560.55" y="378.91" width="124.42" height="35.57" rx="15.53" ry="15.53" transform="translate(-71.96 146.59) rotate(-12.7)"/>
<path d="M837.95,388.77c0-5.84-4.74-10.57-10.57-10.54-8.38,.03-18.86,.25-20.93,.25-29.72,0-53.82,24.1-53.82,53.82s24.1,53.82,53.82,53.82c2.07,0,12.55,.22,20.93,.25,5.84,.02,10.57-4.71,10.57-10.54v-87.06Z"/>
<path d="M498.38,869.69s0-.06,0-.09c0-88.13-71.44-159.57-159.57-159.57s-159.57,71.44-159.57,159.57c0,.03,0,.06,0,.09H498.38Z"/>
</g>
<g>
<path d="M494.6,22.06c9.93,0,18,8.07,18,18v472.6H22V40.06c0-9.93,8.07-18,18-18H494.6M494.6,.06H40C17.91,.06,0,17.97,0,40.06v494.6H534.6V40.06C534.6,17.97,516.69,.06,494.6,.06h0Z"/>
<rect x="60.62" y="60.68" width="413.35" height="413.35" rx="20.95" ry="20.95" fill="#e5e7ef"/>
<path d="M494.6,647.9H40c-22.09,0-40-17.91-40-40v-93.63H534.6v93.63c0,22.09-17.91,40-40,40Z"/>
</g>
</g>
<g>
<rect x="56.32" y="574.03" width="8.44" height="37.8" fill="#fff"/>
<rect x="56.32" y="561.43" width="8.44" height="7.73" fill="#fff"/>
<polygon points="78.06 599.23 110.61 599.23 110.61 591.32 86.49 591.32 86.49 577.08 106.41 577.08 106.41 569.17 86.49 569.17 86.49 556.74 110.61 556.74 110.61 548.83 78.06 548.83 78.06 599.23" fill="#fff"/>
<path d="M144.09,579.51c-1.81-.99-4.22-1.87-7.23-2.64-2.94-.75-5.15-1.38-6.63-1.89-1.48-.51-2.47-1.03-2.96-1.54-.49-.51-.74-1.13-.74-1.86,0-1.28,.61-2.28,1.82-2.99,1.21-.71,2.81-1.01,4.79-.89,2.08,.12,3.74,.64,4.99,1.58,1.25,.93,1.98,2.21,2.19,3.82l8.61-1.54c-.33-2.26-1.19-4.24-2.59-5.92-1.4-1.68-3.24-2.98-5.51-3.89-2.28-.91-4.88-1.36-7.82-1.36s-5.62,.47-7.84,1.42c-2.22,.95-3.94,2.29-5.18,4.04s-1.85,3.8-1.85,6.16c0,1.89,.41,3.5,1.23,4.83,.82,1.33,2.16,2.48,4.02,3.45,1.87,.97,4.39,1.87,7.56,2.71,2.85,.75,4.96,1.37,6.33,1.86,1.38,.49,2.27,1,2.68,1.52,.41,.52,.61,1.22,.61,2.08,0,1.4-.55,2.5-1.66,3.31-1.11,.8-2.68,1.21-4.71,1.21-2.31,0-4.22-.54-5.74-1.61-1.52-1.07-2.5-2.54-2.94-4.41l-8.61,1.33c.63,3.8,2.4,6.75,5.32,8.86,2.92,2.1,6.71,3.15,11.38,3.15s8.7-1.08,11.46-3.25,4.15-5.16,4.15-8.96c0-1.96-.4-3.63-1.21-5s-2.11-2.56-3.92-3.55Z" fill="#fff"/>
<path d="M167.9,569.85c1.42-1.04,3.23-1.56,5.42-1.56,1.94,0,3.66,.57,5.18,1.7,1.52,1.13,2.6,2.71,3.25,4.74l8.4-2.28c-.91-3.73-2.85-6.68-5.83-8.84-2.97-2.16-6.61-3.24-10.9-3.24-3.83,0-7.13,.86-9.9,2.57-2.78,1.71-4.92,4.07-6.42,7.07-1.5,3-2.27,6.43-2.29,10.31,.02,3.8,.76,7.21,2.22,10.22,1.46,3.01,3.56,5.38,6.32,7.12,2.75,1.74,6.08,2.61,9.98,2.61,4.22,0,7.79-1.03,10.71-3.1,2.92-2.06,4.96-5.02,6.12-8.87l-8.61-1.92c-.65,1.94-1.63,3.42-2.92,4.44-1.3,1.03-3.06,1.54-5.3,1.54-3.17,0-5.56-1.11-7.17-3.32-1.61-2.22-2.42-5.12-2.42-8.72,0-2.31,.34-4.38,1.02-6.19,.68-1.82,1.73-3.25,3.15-4.29Z" fill="#fff"/>
<path d="M226.39,567.42c-1.24-2.5-3.13-4.29-5.69-5.39s-5.51-1.64-8.87-1.64c-4.46,0-8,.97-10.62,2.9-2.62,1.94-4.4,4.5-5.34,7.7l7.7,2.42c.63-1.94,1.74-3.3,3.32-4.09,1.59-.79,3.23-1.19,4.94-1.19,2.82,0,4.83,.62,6.02,1.86,.99,1.03,1.55,2.54,1.7,4.52-1.52,.22-3.01,.44-4.45,.65-2.39,.34-4.61,.71-6.65,1.1-2.04,.4-3.82,.84-5.34,1.33-2.01,.68-3.64,1.55-4.9,2.61-1.26,1.06-2.19,2.32-2.8,3.78-.61,1.46-.91,3.1-.91,4.92,0,2.08,.48,3.98,1.45,5.71,.97,1.73,2.4,3.11,4.29,4.15s4.2,1.56,6.93,1.56c3.41,0,6.25-.64,8.52-1.91,1.75-.98,3.33-2.39,4.74-4.24v5.09h7.39v-23.21c0-1.63-.07-3.14-.21-4.53-.14-1.39-.55-2.75-1.23-4.08Zm-7.77,19.88c-.28,.86-.82,1.78-1.63,2.76-.81,.98-1.88,1.81-3.24,2.49-1.35,.68-2.99,1.01-4.9,1.01-1.33,0-2.44-.21-3.34-.63-.9-.42-1.58-.99-2.05-1.7s-.7-1.53-.7-2.47c0-.82,.18-1.53,.54-2.13,.36-.61,.88-1.14,1.56-1.61,.68-.47,1.5-.88,2.48-1.22,1-.33,2.16-.62,3.46-.89,1.31-.27,2.87-.55,4.69-.86,1.16-.19,2.48-.41,3.94-.64-.01,.64-.04,1.37-.07,2.2-.06,1.39-.31,2.62-.75,3.69Z" fill="#fff"/>
<path d="M270.38,569.94c-.51-1.63-1.31-3.17-2.38-4.62-1.07-1.45-2.52-2.64-4.34-3.57-1.82-.93-4.13-1.4-6.93-1.4-3.55,0-6.53,.78-8.96,2.33-1.31,.84-2.43,1.84-3.4,2.98v-4.23h-7.52v37.8h8.54v-19.42c0-2.31,.26-4.21,.77-5.69,.51-1.48,1.2-2.65,2.05-3.5,.85-.85,1.8-1.45,2.85-1.8s2.11-.53,3.19-.53c2.01,0,3.6,.43,4.78,1.3s2.06,1.97,2.66,3.31c.59,1.34,.97,2.74,1.14,4.18,.16,1.45,.25,2.77,.25,3.96v18.2h8.54v-21.11c0-.91-.08-2.09-.23-3.55-.15-1.46-.48-3-1-4.64Z" fill="#fff"/>
<path d="M306.8,563.13c-2.74-1.83-6.07-2.75-9.99-2.75-3.71,0-6.98,.84-9.8,2.52s-5.03,4.04-6.61,7.09c-1.59,3.04-2.38,6.63-2.38,10.76,0,3.83,.81,7.21,2.43,10.15,1.62,2.94,3.88,5.24,6.77,6.9,2.89,1.66,6.25,2.48,10.08,2.48s6.97-.94,9.99-2.83c3.02-1.89,5.26-4.54,6.7-7.95l-8.33-2.52c-.82,1.75-1.98,3.09-3.48,4.01-1.5,.92-3.3,1.38-5.37,1.38-3.22,0-5.67-1.05-7.35-3.15-1.32-1.65-2.11-3.83-2.4-6.54h27.35c.33-4.53-.18-8.46-1.51-11.79-1.33-3.34-3.37-5.92-6.11-7.75Zm-9.64,4.64c3.06,0,5.3,.95,6.72,2.83,1.01,1.34,1.66,3.25,1.96,5.71h-18.58c.39-2.18,1.11-3.97,2.19-5.34,1.68-2.13,4.25-3.2,7.7-3.2Z" fill="#fff"/>
<path d="M351.33,567.42c-1.24-2.5-3.13-4.29-5.69-5.39s-5.51-1.64-8.87-1.64c-4.46,0-8,.97-10.62,2.9-2.62,1.94-4.4,4.5-5.34,7.7l7.7,2.42c.63-1.94,1.74-3.3,3.32-4.09,1.59-.79,3.23-1.19,4.94-1.19,2.82,0,4.83,.62,6.02,1.86,.99,1.03,1.55,2.54,1.7,4.52-1.52,.22-3.01,.44-4.45,.65-2.39,.34-4.61,.71-6.65,1.1-2.04,.4-3.82,.84-5.34,1.33-2.01,.68-3.64,1.55-4.9,2.61-1.26,1.06-2.19,2.32-2.8,3.78-.61,1.46-.91,3.1-.91,4.92,0,2.08,.48,3.98,1.45,5.71,.97,1.73,2.4,3.11,4.29,4.15s4.2,1.56,6.93,1.56c3.41,0,6.25-.64,8.52-1.91,1.75-.98,3.33-2.39,4.74-4.24v5.09h7.39v-23.21c0-1.63-.07-3.14-.21-4.53-.14-1.39-.55-2.75-1.23-4.08Zm-7.77,19.88c-.28,.86-.82,1.78-1.63,2.76-.81,.98-1.88,1.81-3.24,2.49-1.35,.68-2.99,1.01-4.9,1.01-1.33,0-2.44-.21-3.34-.63-.9-.42-1.58-.99-2.05-1.7s-.7-1.53-.7-2.47c0-.82,.18-1.53,.54-2.13,.36-.61,.88-1.14,1.56-1.61,.68-.47,1.5-.88,2.48-1.22,1-.33,2.16-.62,3.46-.89,1.31-.27,2.87-.55,4.69-.86,1.16-.19,2.48-.41,3.94-.64-.01,.64-.04,1.37-.07,2.2-.06,1.39-.31,2.62-.75,3.69Z" fill="#fff"/>
<path d="M402.75,560.49c-2.52,0-4.81,.56-6.86,1.68-1.94,1.06-3.49,2.53-4.68,4.37-.93-1.75-2.23-3.18-3.92-4.25-1.9-1.2-4.26-1.8-7.09-1.8-2.57,0-4.88,.57-6.95,1.7-1.59,.87-2.92,1.99-4.01,3.36v-4.11h-7.46v37.8h8.5v-23.28c0-2.36,.65-4.27,1.94-5.74,1.29-1.47,3.02-2.21,5.16-2.21s3.97,.73,5.25,2.21c1.28,1.47,1.93,3.52,1.93,6.16v22.86h8.4v-23.28c0-1.66,.31-3.08,.94-4.29,.63-1.2,1.48-2.11,2.56-2.73,1.07-.62,2.29-.93,3.64-.93,2.19,0,3.93,.73,5.22,2.19,1.28,1.46,1.92,3.48,1.92,6.07v22.96h8.44v-25.09c0-4.08-1.11-7.38-3.34-9.89-2.23-2.51-5.43-3.76-9.61-3.76Z" fill="#fff"/>
<path d="M450.89,563.13c-2.74-1.83-6.07-2.75-9.99-2.75-3.71,0-6.98,.84-9.8,2.52s-5.03,4.04-6.61,7.09c-1.59,3.04-2.38,6.63-2.38,10.76,0,3.83,.81,7.21,2.43,10.15,1.62,2.94,3.88,5.24,6.77,6.9,2.89,1.66,6.25,2.48,10.08,2.48s6.97-.94,9.99-2.83c3.02-1.89,5.26-4.54,6.7-7.95l-8.33-2.52c-.82,1.75-1.98,3.09-3.48,4.01-1.5,.92-3.3,1.38-5.37,1.38-3.22,0-5.67-1.05-7.35-3.15-1.32-1.65-2.11-3.83-2.4-6.54h27.35c.33-4.53-.18-8.46-1.51-11.79-1.33-3.34-3.37-5.92-6.11-7.75Zm-9.64,4.64c3.06,0,5.3,.95,6.72,2.83,1.01,1.34,1.66,3.25,1.96,5.71h-18.58c.39-2.18,1.11-3.97,2.19-5.34,1.68-2.13,4.25-3.2,7.7-3.2Z" fill="#fff"/>
<rect x="469.84" y="548.83" width="8.44" height="37.8" fill="#fff"/>
<rect x="469.84" y="591.5" width="8.44" height="7.74" fill="#fff"/>
</g>
<g>
<path d="M216.91,116.38H117.3v99.61h99.61V116.38Zm-23.44,76.17h-52.73v-52.73h52.73v52.73Z"/>
<rect x="155.39" y="154.46" width="23.44" height="23.44"/>
<path d="M417.3,116.38h-99.61v99.61h99.61V116.38Zm-23.44,76.17h-52.73v-52.73h52.73v52.73Z"/>
<rect x="355.78" y="154.46" width="23.44" height="23.44"/>
<path d="M216.91,316.77H117.3v99.61h99.61v-99.61Zm-23.44,76.17h-52.73v-52.73h52.73v52.73Z"/>
<rect x="155.39" y="354.85" width="23.44" height="23.44"/>
<rect x="140.74" y="231.81" width="23.44" height="23.44"/>
<polygon points="187.03 278.68 187.03 302.12 210.46 302.12 210.46 278.68 187.61 278.68 187.61 255.24 164.18 255.24 164.18 278.68 187.03 278.68"/>
<rect x="281.36" y="161.49" width="23.44" height="23.44"/>
<rect x="234.49" y="139.81" width="23.44" height="45.12"/>
<rect x="257.93" y="116.38" width="23.44" height="23.44"/>
<polygon points="281.36 184.93 257.93 184.93 257.93 208.37 234.49 208.37 234.49 231.81 281.36 231.81 281.36 184.93"/>
<polygon points="257.93 302.12 257.93 324.97 281.36 324.97 281.36 347.82 328.24 347.82 328.24 324.38 281.36 324.38 281.36 301.53 257.93 301.53 257.93 255.24 234.49 255.24 234.49 302.12 257.93 302.12"/>
<rect x="281.36" y="231.81" width="23.44" height="46.88"/>
<path d="M351.68,301.53h65.62v-46.88h-23.44v-22.85h-42.77v23.44h-22.85v23.44h23.44v22.85Zm0-46.29h42.19v22.85h-42.19v-22.85Z"/>
<rect x="393.86" y="324.38" width="23.44" height="46.88"/>
<rect x="304.8" y="278.68" width="23.44" height="23.44"/>
<rect x="328.24" y="347.82" width="23.44" height="23.44"/>
<rect x="351.68" y="324.38" width="23.44" height="23.44"/>
<polygon points="375.11 416.38 375.11 394.7 393.86 394.7 393.86 371.26 351.68 371.26 351.68 416.38 375.11 416.38"/>
<rect x="234.49" y="324.97" width="23.44" height="44.53"/>
<polygon points="281.36 416.38 281.36 392.94 304.21 392.94 304.21 416.38 327.65 416.38 327.65 392.94 304.8 392.94 304.8 369.5 257.93 369.5 257.93 416.38 281.36 416.38"/>
<rect x="187.61" y="231.81" width="46.88" height="23.44"/>
<rect x="117.3" y="255.24" width="23.44" height="46.88"/>
</g>
</svg>