<?xml version="1.0" encoding="UTF-8"?>
<svg xmlns="http://www.w3.org/2000/svg" viewBox="0 0 1000 1300">
<g id="Layer_1">
<path d="M885.64,285.59c-.49,0-.98-.02-1.47-.07s-.98-.12-1.46-.22c-.48-.1-.96-.22-1.42-.36-.47-.14-.93-.31-1.39-.49-.45-.19-.89-.4-1.32-.63-.43-.23-.86-.48-1.27-.75-.4-.28-.8-.57-1.18-.88-.38-.31-.75-.64-1.1-.99-.34-.35-.67-.71-.99-1.09-.31-.38-.6-.78-.87-1.19-.27-.4-.52-.83-.75-1.26-.23-.43-.44-.88-.63-1.33-.19-.45-.35-.91-.5-1.38-.14-.47-.26-.95-.36-1.42-.09-.48-.17-.97-.21-1.46-.05-.49-.08-.99-.08-1.47s.03-.99,.08-1.48c.04-.49,.12-.97,.21-1.46,.1-.47,.22-.95,.36-1.42,.15-.47,.31-.93,.5-1.38,.19-.45,.4-.9,.63-1.33,.23-.43,.48-.85,.75-1.26,.27-.41,.56-.81,.87-1.18,.32-.39,.65-.75,.99-1.1,2.8-2.79,6.66-4.4,10.61-4.4s7.82,1.61,10.61,4.4c.34,.35,.68,.71,.99,1.1,.31,.37,.6,.77,.87,1.18,.27,.41,.53,.83,.75,1.26,.23,.43,.44,.88,.63,1.33,.19,.45,.36,.91,.5,1.38,.14,.47,.26,.95,.36,1.42,.09,.49,.17,.97,.22,1.46,.05,.49,.07,.99,.07,1.48s-.02,.98-.07,1.47c-.05,.49-.13,.98-.22,1.46-.1,.47-.22,.95-.36,1.42-.14,.47-.31,.93-.5,1.38-.19,.45-.4,.9-.63,1.33-.22,.43-.48,.86-.75,1.26-.27,.41-.56,.81-.87,1.19-.31,.38-.65,.74-.99,1.09-.35,.35-.72,.68-1.1,.99-.38,.31-.77,.6-1.18,.88-.41,.27-.83,.52-1.26,.75-.44,.23-.88,.44-1.33,.63-.45,.18-.92,.35-1.38,.49-.47,.14-.95,.26-1.43,.36-.48,.1-.97,.17-1.45,.22-.49,.05-.99,.07-1.48,.07Z"/>
</g>
<g id="TEXTO">
<g>
<path d="M398.39,467.81c-9.28,0-17.59-6.49-19.56-15.93L308.98,116.3c-3.55-15.44-15.08-28.1-30.13-33.06-.04-.01-.07-.02-.11-.04L148.13,39.32c-10.47-3.52-16.11-14.86-12.59-25.33,3.52-10.47,14.86-16.1,25.33-12.59l130.55,43.86c28.33,9.36,50.03,33.25,56.61,62.35,.03,.11,.05,.23,.07,.34l69.88,335.77c2.25,10.81-4.69,21.41-15.5,23.66-1.37,.29-2.75,.42-4.1,.42Z" fill="#585858"/>
<path d="M53.13,219.67H500.52s446.45,0,446.45,0c5.55,.39,8.58,3.06,9.65,4.22,1.18,1.29,1.78,2.58,1.78,3.85-11.04,176.05-23.99,349.56-38.48,515.72v.09s-.02,.09-.02,.09c-1.72,20.8-3.49,41.83-5.2,62.17-12.75,151.48-24.79,294.57-24.49,444.19-.07,5.98-3.56,9.96-5.87,9.99H118.04c-4.13-.52-10.34-7.27-10.63-15.86v-.32s-.03-.32-.03-.32c-3.06-61.22-5.72-120.65-8.29-178.13-5.16-115.39-10.03-224.39-17.54-335.19-5.94-93.92-13.91-190.38-21.63-283.67-5.89-71.2-11.97-144.81-17.22-217.92,.2-2.75,1.54-4.66,2.68-5.81,1.15-1.16,3.68-3.11,7.75-3.11m894.85-40c-149.15,0-298.31,0-447.46,0s-298.31,0-447.46,0c-28.03,.05-50.57,22.33-50.38,50,12.21,170.44,28.52,337.92,38.96,503.12,11.26,166.06,16.64,329.85,25.79,512.7,.97,28.81,23.14,53.5,49.43,54.51H884.47c25.35-.1,45.61-22.47,45.75-49.89-.34-168.56,15.48-332.56,29.55-503.17,14.8-169.67,27.85-345.95,38.59-517.27,1.16-26.43-21.31-48.84-50.38-50h0Z"/>
<path d="M49.37,336.21l34.81,842.57c0,65.88,13.08,96.26,44.42,96.26H874.36c31.34,0,43.75-38.42,43.75-75.9l33.87-833.73s-84.54-21.01-202.49-12.66c-98.4,6.97-285.78,29.91-384.42,28.61-128.98-1.7-315.7-45.16-315.7-45.16Z"/>
<path d="M828.65,285.6h-154.29c-8.28,0-15-6.72-15-15s6.72-15,15-15h154.29c8.28,0,15,6.72,15,15s-6.72,15-15,15Z"/>
<rect x="173.18" y="444.77" width="654.98" height="654.98" rx="40" ry="40" fill="#e5e7ef"/>
<g>
<rect x="229.42" y="1196.69" width="10.84" height="48.6" fill="#fff"/>
<rect x="229.42" y="1180.49" width="10.84" height="9.94" fill="#fff"/>
<polygon points="257.36 1229.09 299.21 1229.09 299.21 1218.92 268.21 1218.92 268.21 1200.61 293.81 1200.61 293.81 1190.44 268.21 1190.44 268.21 1174.46 299.21 1174.46 299.21 1164.29 257.36 1164.29 257.36 1229.09" fill="#fff"/>
<path d="M342.25,1203.74c-2.33-1.27-5.42-2.41-9.29-3.4-3.78-.96-6.62-1.77-8.53-2.43-1.91-.66-3.17-1.32-3.8-1.98-.63-.66-.95-1.46-.95-2.38,0-1.65,.78-2.93,2.34-3.85,1.56-.92,3.61-1.3,6.17-1.15,2.67,.15,4.81,.83,6.41,2.03,1.6,1.2,2.54,2.83,2.81,4.9l11.07-1.98c-.42-2.91-1.53-5.45-3.33-7.61-1.8-2.16-4.16-3.83-7.09-5s-6.28-1.75-10.06-1.75-7.23,.61-10.08,1.82c-2.85,1.22-5.07,2.95-6.66,5.2s-2.38,4.89-2.38,7.92c0,2.43,.52,4.5,1.58,6.21,1.05,1.71,2.77,3.19,5.17,4.43s5.64,2.41,9.72,3.49c3.66,.96,6.38,1.75,8.15,2.38,1.77,.63,2.92,1.28,3.44,1.96,.52,.67,.79,1.57,.79,2.68,0,1.8-.71,3.22-2.14,4.25-1.43,1.04-3.44,1.55-6.05,1.55-2.97,0-5.43-.69-7.38-2.07-1.95-1.38-3.21-3.27-3.78-5.67l-11.07,1.71c.81,4.89,3.09,8.68,6.84,11.38,3.75,2.7,8.62,4.05,14.62,4.05s11.18-1.39,14.74-4.18c3.55-2.79,5.33-6.63,5.33-11.52,0-2.52-.52-4.66-1.55-6.43-1.03-1.77-2.71-3.29-5.04-4.57Z" fill="#fff"/>
<path d="M372.88,1191.32c1.83-1.33,4.16-2,6.98-2,2.49,0,4.71,.73,6.66,2.18,1.95,1.46,3.34,3.49,4.18,6.1l10.8-2.92c-1.17-4.8-3.67-8.59-7.49-11.36-3.83-2.78-8.5-4.16-14.02-4.16-4.92,0-9.17,1.1-12.74,3.31s-6.32,5.24-8.26,9.09c-1.94,3.86-2.92,8.27-2.95,13.25,.03,4.89,.98,9.27,2.86,13.14s4.58,6.92,8.12,9.16c3.54,2.24,7.81,3.35,12.83,3.35,5.43,0,10.02-1.33,13.77-3.98,3.75-2.65,6.38-6.46,7.88-11.41l-11.07-2.47c-.84,2.49-2.09,4.39-3.76,5.71s-3.94,1.98-6.82,1.98c-4.08,0-7.16-1.42-9.23-4.27-2.07-2.85-3.1-6.58-3.1-11.21,0-2.97,.43-5.62,1.3-7.96,.87-2.34,2.22-4.18,4.05-5.51Z" fill="#fff"/>
<path d="M448.07,1188.19c-1.59-3.21-4.03-5.52-7.31-6.93s-7.09-2.12-11.41-2.12c-5.73,0-10.28,1.25-13.66,3.74s-5.66,5.79-6.86,9.9l9.9,3.11c.81-2.49,2.23-4.25,4.28-5.26,2.04-1.02,4.15-1.53,6.34-1.53,3.63,0,6.21,.79,7.74,2.38,1.27,1.32,2,3.26,2.19,5.81-1.95,.29-3.87,.57-5.72,.83-3.08,.44-5.92,.91-8.55,1.42-2.62,.51-4.91,1.08-6.86,1.71-2.58,.87-4.68,1.99-6.3,3.35-1.62,1.37-2.82,2.99-3.6,4.86-.78,1.88-1.17,3.98-1.17,6.32,0,2.67,.62,5.12,1.87,7.33,1.24,2.22,3.08,4,5.51,5.33,2.43,1.33,5.4,2,8.91,2,4.38,0,8.03-.82,10.96-2.45,2.25-1.26,4.28-3.08,6.1-5.45v6.55h9.5v-29.83c0-2.1-.09-4.04-.27-5.83s-.71-3.53-1.58-5.24Zm-9.99,25.56c-.36,1.11-1.06,2.29-2.09,3.55s-2.42,2.33-4.16,3.2-3.84,1.3-6.3,1.3c-1.71,0-3.14-.27-4.3-.81-1.16-.54-2.03-1.27-2.63-2.18-.6-.92-.9-1.97-.9-3.17,0-1.05,.23-1.96,.7-2.75,.46-.78,1.13-1.47,2-2.07,.87-.6,1.94-1.12,3.2-1.58,1.29-.42,2.77-.8,4.46-1.15,1.68-.34,3.69-.71,6.03-1.1,1.49-.25,3.2-.52,5.07-.82-.02,.83-.05,1.76-.09,2.82-.08,1.79-.4,3.37-.97,4.75Z" fill="#fff"/>
<path d="M504.63,1191.43c-.66-2.1-1.68-4.08-3.06-5.94-1.38-1.86-3.24-3.39-5.58-4.59-2.34-1.2-5.31-1.8-8.91-1.8-4.56,0-8.4,1-11.52,2.99-1.68,1.07-3.13,2.35-4.37,3.81v-5.41h-9.67v48.6h10.98v-24.97c0-2.97,.33-5.41,.99-7.31s1.54-3.41,2.63-4.5c1.09-1.09,2.32-1.87,3.67-2.32,1.35-.45,2.71-.67,4.09-.67,2.58,0,4.63,.56,6.14,1.67,1.51,1.11,2.65,2.53,3.42,4.25,.76,1.73,1.25,3.52,1.46,5.38,.21,1.86,.32,3.56,.32,5.08v23.4h10.98v-27.13c0-1.17-.1-2.69-.29-4.57-.2-1.88-.62-3.86-1.28-5.96Z" fill="#fff"/>
<path d="M551.45,1182.68c-3.53-2.35-7.81-3.53-12.85-3.53-4.77,0-8.97,1.08-12.6,3.24s-6.46,5.2-8.5,9.11c-2.04,3.92-3.06,8.53-3.06,13.84,0,4.92,1.04,9.27,3.13,13.05,2.08,3.78,4.99,6.74,8.71,8.87s8.04,3.19,12.96,3.19,8.96-1.21,12.85-3.64,6.76-5.83,8.62-10.21l-10.71-3.24c-1.05,2.25-2.54,3.97-4.48,5.15-1.94,1.19-4.24,1.78-6.91,1.78-4.14,0-7.29-1.35-9.45-4.05-1.69-2.12-2.71-4.93-3.08-8.42h35.16c.42-5.82-.23-10.87-1.94-15.17-1.71-4.29-4.33-7.61-7.85-9.97Zm-12.4,5.96c3.93,0,6.81,1.21,8.64,3.65,1.3,1.72,2.13,4.18,2.53,7.33h-23.89c.5-2.81,1.43-5.1,2.82-6.86,2.16-2.74,5.46-4.12,9.9-4.12Z" fill="#fff"/>
<path d="M608.72,1188.19c-1.59-3.21-4.03-5.52-7.31-6.93s-7.09-2.12-11.41-2.12c-5.73,0-10.28,1.25-13.66,3.74s-5.66,5.79-6.86,9.9l9.9,3.11c.81-2.49,2.23-4.25,4.28-5.26,2.04-1.02,4.15-1.53,6.34-1.53,3.63,0,6.21,.79,7.74,2.38,1.27,1.32,2,3.26,2.19,5.81-1.95,.29-3.87,.57-5.72,.83-3.08,.44-5.92,.91-8.55,1.42-2.62,.51-4.91,1.08-6.86,1.71-2.58,.87-4.68,1.99-6.3,3.35-1.62,1.37-2.82,2.99-3.6,4.86-.78,1.88-1.17,3.98-1.17,6.32,0,2.67,.62,5.12,1.87,7.33,1.24,2.22,3.08,4,5.51,5.33,2.43,1.33,5.4,2,8.91,2,4.38,0,8.03-.82,10.96-2.45,2.25-1.26,4.28-3.08,6.1-5.45v6.55h9.5v-29.83c0-2.1-.09-4.04-.27-5.83s-.71-3.53-1.58-5.24Zm-9.99,25.56c-.36,1.11-1.06,2.29-2.09,3.55s-2.42,2.33-4.16,3.2-3.84,1.3-6.3,1.3c-1.71,0-3.14-.27-4.3-.81-1.16-.54-2.03-1.27-2.63-2.18-.6-.92-.9-1.97-.9-3.17,0-1.05,.23-1.96,.7-2.75,.46-.78,1.13-1.47,2-2.07,.87-.6,1.94-1.12,3.2-1.58,1.29-.42,2.77-.8,4.46-1.15,1.68-.34,3.69-.71,6.03-1.1,1.49-.25,3.2-.52,5.07-.82-.02,.83-.05,1.76-.09,2.82-.08,1.79-.4,3.37-.97,4.75Z" fill="#fff"/>
<path d="M674.82,1179.28c-3.24,0-6.18,.72-8.82,2.16-2.49,1.36-4.47,3.23-5.99,5.59-1.2-2.25-2.89-4.06-5.06-5.43-2.45-1.54-5.48-2.32-9.11-2.32-3.3,0-6.28,.73-8.93,2.18-2.04,1.12-3.76,2.56-5.15,4.32v-5.28h-9.58v48.6h10.93v-29.92c0-3.03,.83-5.49,2.5-7.38,1.67-1.89,3.88-2.83,6.64-2.83s5.1,.94,6.75,2.83c1.65,1.89,2.47,4.53,2.47,7.92v29.38h10.8v-29.92c0-2.13,.41-3.97,1.21-5.51,.81-1.54,1.91-2.71,3.29-3.51s2.94-1.19,4.68-1.19c2.82,0,5.05,.94,6.71,2.81,1.65,1.88,2.47,4.48,2.47,7.81v29.52h10.84v-32.26c0-5.25-1.43-9.49-4.3-12.71-2.87-3.22-6.98-4.84-12.35-4.84Z" fill="#fff"/>
<path d="M736.72,1182.68c-3.53-2.35-7.81-3.53-12.85-3.53-4.77,0-8.97,1.08-12.6,3.24s-6.46,5.2-8.5,9.11c-2.04,3.92-3.06,8.53-3.06,13.84,0,4.92,1.04,9.27,3.13,13.05,2.08,3.78,4.99,6.74,8.71,8.87s8.04,3.19,12.96,3.19,8.96-1.21,12.85-3.64,6.76-5.83,8.62-10.21l-10.71-3.24c-1.05,2.25-2.54,3.97-4.48,5.15-1.94,1.19-4.24,1.78-6.91,1.78-4.14,0-7.29-1.35-9.45-4.05-1.69-2.12-2.71-4.93-3.08-8.42h35.16c.42-5.82-.23-10.87-1.94-15.17-1.71-4.29-4.33-7.61-7.85-9.97Zm-12.4,5.96c3.93,0,6.81,1.21,8.64,3.65,1.3,1.72,2.13,4.18,2.53,7.33h-23.89c.5-2.81,1.43-5.1,2.82-6.86,2.16-2.74,5.46-4.12,9.9-4.12Z" fill="#fff"/>
<rect x="761.08" y="1164.29" width="10.84" height="48.6" fill="#fff"/>
<rect x="761.08" y="1219.15" width="10.84" height="9.95" fill="#fff"/>
</g>
<g>
<path d="M414,516.26H244v170h170v-170Zm-40,130h-90v-90h90v90Z"/>
<rect x="309" y="581.26" width="40" height="40"/>
<path d="M756,516.26h-170v170h170v-170Zm-40,130h-90v-90h90v90Z"/>
<rect x="651" y="581.26" width="40" height="40"/>
<path d="M414,858.26H244v170h170v-170Zm-40,130h-90v-90h90v90Z"/>
<rect x="309" y="923.26" width="40" height="40"/>
<rect x="284" y="713.26" width="40" height="40"/>
<polygon points="363 793.26 363 833.26 403 833.26 403 793.26 364 793.26 364 753.26 324 753.26 324 793.26 363 793.26"/>
<rect x="524" y="593.26" width="40" height="40"/>
<rect x="444" y="556.26" width="40" height="77"/>
<rect x="484" y="516.26" width="40" height="40"/>
<polygon points="524 633.26 484 633.26 484 673.26 444 673.26 444 713.26 524 713.26 524 633.26"/>
<polygon points="484 833.26 484 872.26 524 872.26 524 911.26 604 911.26 604 871.26 524 871.26 524 832.26 484 832.26 484 753.26 444 753.26 444 833.26 484 833.26"/>
<rect x="524" y="713.26" width="40" height="80"/>
<path d="M644,832.26h112v-80h-40v-39h-73v40h-39v40h40v39Zm0-79h72v39h-72v-39Z"/>
<rect x="716" y="871.26" width="40" height="80"/>
<rect x="564" y="793.26" width="40" height="40"/>
<rect x="604" y="911.26" width="40" height="40"/>
<rect x="644" y="871.26" width="40" height="40"/>
<polygon points="684 1028.26 684 991.26 716 991.26 716 951.26 644 951.26 644 1028.26 684 1028.26"/>
<rect x="444" y="872.26" width="40" height="76"/>
<polygon points="524 1028.26 524 988.26 563 988.26 563 1028.26 603 1028.26 603 988.26 564 988.26 564 948.26 484 948.26 484 1028.26 524 1028.26"/>
<rect x="364" y="713.26" width="80" height="40"/>
<rect x="244" y="753.26" width="40" height="80"/>
</g>
</g>
</g>
</svg>